<?xml version="1.0" encoding="UTF-8"?>
<!DOCTYPE svg PUBLIC "-//W3C//DTD SVG 1.1//EN" "http://www.w3.org/Graphics/SVG/1.1/DTD/svg11.dtd">
<svg xmlns="http://www.w3.org/2000/svg" version="1.1" width="194px" height="259px" style="shape-rendering:geometricPrecision; text-rendering:geometricPrecision; image-rendering:optimizeQuality; fill-rule:evenodd; clip-rule:evenodd" xmlns:xlink="http://www.w3.org/1999/xlink">
<g><path style="opacity:1" fill="#010102" d="M -0.5,-0.5 C 64.1667,-0.5 128.833,-0.5 193.5,-0.5C 193.5,37.5 193.5,75.5 193.5,113.5C 192.265,113.279 191.265,112.612 190.5,111.5C 188.578,118.481 184.245,120.481 177.5,117.5C 177.5,115.5 177.5,113.5 177.5,111.5C 173.445,111.176 169.445,111.509 165.5,112.5C 167.201,112.19 168.868,112.69 170.5,114C 171.308,116.088 172.308,118.088 173.5,120C 165.622,122.976 157.456,124.81 149,125.5C 147.373,125.375 145.873,124.875 144.5,124C 149.372,122.612 154.372,122.112 159.5,122.5C 159.5,120.5 159.5,118.5 159.5,116.5C 154.156,116.334 148.823,116.501 143.5,117C 137.498,117.777 131.664,118.944 126,120.5C 120.989,120.238 116.156,119.238 111.5,117.5C 111.238,118.978 111.571,120.311 112.5,121.5C 117.768,122.575 118.768,125.242 115.5,129.5C 113.234,130.314 110.9,130.814 108.5,131C 106.241,134.955 102.908,137.122 98.5,137.5C 98.5,139.5 98.5,141.5 98.5,143.5C 96.8212,143.285 95.8212,143.952 95.5,145.5C 94.448,145.351 93.448,145.517 92.5,146C 89.3247,149.876 85.8247,153.376 82,156.5C 81.5172,157.448 81.3505,158.448 81.5,159.5C 81.19,160.738 80.69,160.738 80,159.5C 79.51,160.793 79.3433,162.127 79.5,163.5C 79.5,163.833 79.5,164.167 79.5,164.5C 78.2794,163.972 77.1127,163.305 76,162.5C 74.2089,166.439 71.7089,169.772 68.5,172.5C 70.7745,167.867 73.1079,163.2 75.5,158.5C 75.1667,158.167 74.8333,157.833 74.5,157.5C 73.5197,158.981 72.353,160.315 71,161.5C 65.7821,171.819 60.9487,182.319 56.5,193C 55.5536,196.143 55.5536,199.143 56.5,202C 53.0919,211.364 52.0919,220.531 53.5,229.5C 49.1161,229.174 44.7828,229.508 40.5,230.5C 44.4454,231.491 48.4454,231.824 52.5,231.5C 52.3489,236.353 52.6822,241.353 53.5,246.5C 52.6729,250.439 52.0062,254.439 51.5,258.5C 34.1667,258.5 16.8333,258.5 -0.5,258.5C -0.5,172.167 -0.5,85.8333 -0.5,-0.5 Z"/></g>
<g><path style="opacity:1" fill="#727272" d="M 82.5,9.5 C 84.4748,9.15816 86.8082,8.82482 89.5,8.5C 89.5,9.5 89.5,10.5 89.5,11.5C 88.1779,11.33 87.0113,11.6634 86,12.5C 84.9326,11.8095 83.7659,11.3095 82.5,11C 83.7383,10.31 83.7383,9.81001 82.5,9.5 Z"/></g>
<g><path style="opacity:1" fill="#848484" d="M 63.5,8.5 C 67.6994,9.73976 71.8661,9.73976 76,8.5C 77.8254,9.10291 79.6587,9.76957 81.5,10.5C 77.6197,11.7948 73.7864,11.7948 70,10.5C 68.2151,11.2401 66.3817,11.9067 64.5,12.5C 63.5713,11.3112 63.238,9.97782 63.5,8.5 Z"/></g>
<g><path style="opacity:1" fill="#848484" d="M 155.5,8.5 C 158.167,8.5 160.833,8.5 163.5,8.5C 163.649,9.55198 163.483,10.552 163,11.5C 160.712,11.2625 158.212,11.2625 155.5,11.5C 155.5,10.5 155.5,9.5 155.5,8.5 Z"/></g>
<g><path style="opacity:1" fill="#7c7c7c" d="M 41.5,8.5 C 45.6875,8.61483 50.3541,9.2815 55.5,10.5C 51.1712,11.3602 47.0045,11.6936 43,11.5C 41.9614,10.7562 41.4614,9.75618 41.5,8.5 Z"/></g>
<g><path style="opacity:1" fill="#909090" d="M 57.5,8.5 C 58.2216,8.91753 58.7216,9.5842 59,10.5C 60.5158,7.94854 61.3491,8.28187 61.5,11.5C 59.712,11.7852 58.0453,11.4519 56.5,10.5C 56.8627,9.81654 57.1961,9.14987 57.5,8.5 Z"/></g>
<g><path style="opacity:1" fill="#5c5c5c" d="M 164.5,9.5 C 167.304,8.36216 170.304,8.19549 173.5,9C 174.821,10.5445 174.488,11.7112 172.5,12.5C 170.744,11.5931 168.911,11.5931 167,12.5C 166.167,12.1667 165.333,11.8333 164.5,11.5C 165.55,10.5712 165.55,9.90455 164.5,9.5 Z"/></g>
<g><path style="opacity:1" fill="#767676" d="M 175.5,8.5 C 178.29,8.7508 181.29,8.7508 184.5,8.5C 184.5,9.5 184.5,10.5 184.5,11.5C 181.5,11.5 178.5,11.5 175.5,11.5C 175.5,10.5 175.5,9.5 175.5,8.5 Z"/></g>
<g><path style="opacity:1" fill="#525252" d="M 8.5,8.5 C 16.5,8.5 24.5,8.5 32.5,8.5C 32.5,17.5 32.5,26.5 32.5,35.5C 24.5,35.5 16.5,35.5 8.5,35.5C 8.5,26.5 8.5,17.5 8.5,8.5 Z"/></g>
<g><path style="opacity:1" fill="#090909" d="M 22.5,30.5 C 19.9912,28.8428 17.8245,29.1762 16,31.5C 14.951,29.8934 13.451,29.2267 11.5,29.5C 11.5,30.5 11.5,31.5 11.5,32.5C 14.2469,32.1866 16.9135,32.52 19.5,33.5C 16.2317,34.487 12.8984,34.8204 9.5,34.5C 9.5,26.1667 9.5,17.8333 9.5,9.5C 16.8333,9.5 24.1667,9.5 31.5,9.5C 31.5,17.8333 31.5,26.1667 31.5,34.5C 27.774,34.8226 24.1073,34.4892 20.5,33.5C 21.6119,32.7348 22.2786,31.7348 22.5,30.5 Z"/></g>
<g><path style="opacity:1" fill="#5e5e5f" d="M 27.5,26.5 C 26.7784,26.0825 26.2784,25.4158 26,24.5C 25.6121,25.428 24.9454,26.0946 24,26.5C 21.9193,26.915 19.7526,26.915 17.5,26.5C 19.6871,25.9515 20.3538,24.7848 19.5,23C 18.5509,22.3828 17.7175,22.5494 17,23.5C 16.3333,22.8333 15.6667,22.1667 15,21.5C 14.1627,23.0074 12.9961,23.5074 11.5,23C 12.6289,19.8011 12.6289,16.3011 11.5,12.5C 17.1738,11.6293 22.6738,11.296 28,11.5C 29.023,12.6001 29.523,13.9334 29.5,15.5C 28.9535,17.6755 27.9535,19.0088 26.5,19.5C 27.2234,21.7822 27.5567,24.1155 27.5,26.5 Z"/></g>
<g><path style="opacity:1" fill="#8f8f91" d="M 17.5,26.5 C 19.7526,26.915 21.9193,26.915 24,26.5C 24.9454,26.0946 25.6121,25.428 26,24.5C 26.2784,25.4158 26.7784,26.0825 27.5,26.5C 28.3764,26.3691 29.0431,26.7025 29.5,27.5C 23.5276,28.6636 17.5276,28.8303 11.5,28C 13.5644,27.3468 15.2311,26.1801 16.5,24.5C 17.2975,24.9569 17.6309,25.6236 17.5,26.5 Z"/></g>
<g><path style="opacity:1" fill="#7d7d7e" d="M 22.5,30.5 C 25.4748,28.9392 28.1415,29.4392 30.5,32C 27.4791,32.8671 24.8124,32.3671 22.5,30.5 Z"/></g>
<g><path style="opacity:1" fill="#090a16" d="M 127.5,59.5 C 123.67,60.6886 122.67,63.022 124.5,66.5C 124.5,66.8333 124.5,67.1667 124.5,67.5C 123.732,68.2625 123.232,69.2625 123,70.5C 121.913,68.1858 120.079,66.8524 117.5,66.5C 118.279,64.0728 119.446,64.0728 121,66.5C 123.553,61.6091 122.053,59.2758 116.5,59.5C 116.5,62.1667 116.5,64.8333 116.5,67.5C 116.167,67.5 115.833,67.5 115.5,67.5C 114.167,67.5 112.833,67.5 111.5,67.5C 111.5,66.5 111.5,65.5 111.5,64.5C 116.833,64.1667 116.833,63.8333 111.5,63.5C 111.5,62.5 111.5,61.5 111.5,60.5C 116.5,59.9969 116.167,59.6636 110.5,59.5C 110.5,62.5 110.5,65.5 110.5,68.5C 109.833,68.8333 109.167,69.1667 108.5,69.5C 108.665,66.1501 108.498,62.8168 108,59.5C 107.814,62.0356 107.314,64.369 106.5,66.5C 100.801,56.745 99.1339,57.4116 101.5,68.5C 100.89,69.391 100.557,70.391 100.5,71.5C 98.8333,71.5 97.1667,71.5 95.5,71.5C 93.3912,70.3496 91.3912,69.0163 89.5,67.5C 88.1667,67.5 86.8333,67.5 85.5,67.5C 85.5,66.5 85.5,65.5 85.5,64.5C 90.8333,64.1667 90.8333,63.8333 85.5,63.5C 85.5,62.5 85.5,61.5 85.5,60.5C 87.099,60.7678 88.4324,60.4345 89.5,59.5C 91.335,59.1658 93.0017,59.1658 94.5,59.5C 95.9783,55.7699 98.145,55.1033 101,57.5C 103.511,55.1283 105.844,55.4616 108,58.5C 111.102,57.7781 114.268,57.6114 117.5,58C 115.071,57.5488 114.904,56.7155 117,55.5C 118.101,57.3939 119.434,58.0606 121,57.5C 122.806,55.0481 124.306,55.3814 125.5,58.5C 127.005,55.8694 127.671,56.2027 127.5,59.5 Z"/></g>
<g><path style="opacity:1" fill="#6e737e" d="M 127.5,59.5 C 129.527,59.3379 131.527,59.5045 133.5,60C 134.252,60.6708 134.586,61.5041 134.5,62.5C 133.542,62.0472 132.708,61.3805 132,60.5C 130.355,60.6932 128.521,60.8598 126.5,61C 124.845,62.4443 124.178,64.2776 124.5,66.5C 122.67,63.022 123.67,60.6886 127.5,59.5 Z"/></g>
<g><path style="opacity:1" fill="#6a727f" d="M 106.5,66.5 C 104.871,65.3747 103.371,64.0414 102,62.5C 101.505,64.4727 101.338,66.4727 101.5,68.5C 99.1339,57.4116 100.801,56.745 106.5,66.5 Z"/></g>
<g><path style="opacity:1" fill="#6f7182" d="M 94.5,59.5 C 100.167,59.6636 100.5,59.9969 95.5,60.5C 95.5,61.5 95.5,62.5 95.5,63.5C 100.833,63.8333 100.833,64.1667 95.5,64.5C 95.5,65.5 95.5,66.5 95.5,67.5C 96.9778,67.238 98.3112,67.5713 99.5,68.5C 97.9547,69.4519 96.288,69.7852 94.5,69.5C 94.5,66.1667 94.5,62.8333 94.5,59.5 Z"/></g>
<g><path style="opacity:1" fill="#6c6f7d" d="M 134.5,62.5 C 136.371,62.1412 137.871,61.1412 139,59.5C 139.345,61.2009 138.678,62.5342 137,63.5C 136.667,65.1667 136.333,66.8333 136,68.5C 135.685,66.4144 135.185,64.4144 134.5,62.5 Z"/></g>
<g><path style="opacity:1" fill="#62667a" d="M 115.5,67.5 C 115.209,68.6491 114.376,69.3158 113,69.5C 111.93,69.472 111.097,69.1386 110.5,68.5C 110.5,65.5 110.5,62.5 110.5,59.5C 116.167,59.6636 116.5,59.9969 111.5,60.5C 111.5,61.5 111.5,62.5 111.5,63.5C 116.833,63.8333 116.833,64.1667 111.5,64.5C 111.5,65.5 111.5,66.5 111.5,67.5C 112.833,67.5 114.167,67.5 115.5,67.5 Z"/></g>
<g><path style="opacity:1" fill="#707485" d="M 117.5,66.5 C 117.444,69.517 117.11,69.8503 116.5,67.5C 116.5,64.8333 116.5,62.1667 116.5,59.5C 122.053,59.2758 123.553,61.6091 121,66.5C 119.446,64.0728 118.279,64.0728 117.5,66.5 Z"/></g>
<g><path style="opacity:1" fill="#010614" d="M 117.5,60.5 C 118.5,60.5 119.5,60.5 120.5,60.5C 120.5,61.5 120.5,62.5 120.5,63.5C 119.5,63.5 118.5,63.5 117.5,63.5C 117.5,62.5 117.5,61.5 117.5,60.5 Z"/></g>
<g><path style="opacity:1" fill="#373c49" d="M 28.5,67.5 C 27.7387,68.3909 26.7387,69.0576 25.5,69.5C 22.4844,69.3361 19.4844,69.0027 16.5,68.5C 21.7275,66.8725 21.5608,65.2058 16,63.5C 15.5172,62.552 15.3505,61.552 15.5,60.5C 18.0545,59.612 20.7212,59.2786 23.5,59.5C 23.5,62.1667 23.5,64.8333 23.5,67.5C 25.1667,67.5 26.8333,67.5 28.5,67.5 Z"/></g>
<g><path style="opacity:1" fill="#6f7384" d="M 108.5,69.5 C 107.599,68.7095 106.932,67.7095 106.5,66.5C 107.314,64.369 107.814,62.0356 108,59.5C 108.498,62.8168 108.665,66.1501 108.5,69.5 Z"/></g>
<g><path style="opacity:1" fill="#5c6171" d="M 124.5,67.5 C 124.5,67.1667 124.5,66.8333 124.5,66.5C 126.484,67.6942 128.484,67.6942 130.5,66.5C 127.869,64.9954 128.203,64.3287 131.5,64.5C 131.171,69.9461 128.837,70.9461 124.5,67.5 Z"/></g>
<g><path style="opacity:1" fill="#5f626e" d="M 34.5,64.5 C 36.9572,66.0009 36.9572,67.6676 34.5,69.5C 29.3402,68.2717 29.3402,67.6051 34.5,67.5C 34.5,66.5 34.5,65.5 34.5,64.5 Z"/></g>
<g><path style="opacity:1" fill="#545767" d="M 76.5,63.5 C 76.5,63.8333 76.5,64.1667 76.5,64.5C 77.1174,64.6107 77.6174,64.944 78,65.5C 78.4955,63.5273 78.6621,61.5273 78.5,59.5C 80.369,61.6353 81.0356,64.3019 80.5,67.5C 81.8333,67.5 83.1667,67.5 84.5,67.5C 84.5,64.8333 84.5,62.1667 84.5,59.5C 86.1667,59.5 87.8333,59.5 89.5,59.5C 88.4324,60.4345 87.099,60.7678 85.5,60.5C 85.5,61.5 85.5,62.5 85.5,63.5C 90.8333,63.8333 90.8333,64.1667 85.5,64.5C 85.5,65.5 85.5,66.5 85.5,67.5C 86.8333,67.5 88.1667,67.5 89.5,67.5C 87.3647,69.369 84.6981,70.0356 81.5,69.5C 79.8762,69.6399 78.7096,68.9733 78,67.5C 76.5557,69.1554 74.7224,69.822 72.5,69.5C 72.5,66.1667 72.5,62.8333 72.5,59.5C 76.5172,58.8386 77.8505,60.1719 76.5,63.5 Z"/></g>
<g><path style="opacity:1" fill="#070d28" d="M 76.5,64.5 C 76.5,65.5 76.5,66.5 76.5,67.5C 75.5,67.5 74.5,67.5 73.5,67.5C 73.5,66.5 73.5,65.5 73.5,64.5C 74.5,64.5 75.5,64.5 76.5,64.5 Z"/></g>
<g><path style="opacity:1" fill="#090a14" d="M 78.5,59.5 C 78.6621,61.5273 78.4955,63.5273 78,65.5C 77.6174,64.944 77.1174,64.6107 76.5,64.5C 76.5,64.1667 76.5,63.8333 76.5,63.5C 77.8505,60.1719 76.5172,58.8386 72.5,59.5C 72.5,62.8333 72.5,66.1667 72.5,69.5C 74.7224,69.822 76.5557,69.1554 78,67.5C 78.7096,68.9733 79.8762,69.6399 81.5,69.5C 80.8333,70.1667 80.1667,70.8333 79.5,71.5C 77.7085,71.366 76.0418,71.6993 74.5,72.5C 74.2172,71.7109 73.7172,71.0442 73,70.5C 72.2904,71.9733 71.1238,72.6399 69.5,72.5C 69.44,71.9569 69.1067,71.6236 68.5,71.5C 67.7189,72.7287 67.2189,74.062 67,75.5C 66.6232,74.0577 65.7899,73.0577 64.5,72.5C 63.9032,71.8614 63.0698,71.528 62,71.5C 60.3009,71.3866 59.1342,72.0532 58.5,73.5C 57.7784,73.9175 57.2784,74.5842 57,75.5C 56.7811,74.062 56.2811,72.7287 55.5,71.5C 54.6922,73.4233 54.1922,75.4233 54,77.5C 52.6288,75.9586 51.1288,74.6253 49.5,73.5C 48.4523,71.0673 47.7856,71.0673 47.5,73.5C 47.1667,73.5 46.8333,73.5 46.5,73.5C 46.5,72.1667 45.8333,71.5 44.5,71.5C 43.1169,70.5573 41.7836,69.5573 40.5,68.5C 40.6309,69.3764 40.2975,70.0431 39.5,70.5C 37.9291,69.6906 36.2624,69.3573 34.5,69.5C 36.9572,67.6676 36.9572,66.0009 34.5,64.5C 30.3807,62.3958 30.714,60.8958 35.5,60C 33.3435,59.9219 31.3435,59.7552 29.5,59.5C 28.52,62.0865 28.1866,64.7531 28.5,67.5C 26.8333,67.5 25.1667,67.5 23.5,67.5C 23.5,64.8333 23.5,62.1667 23.5,59.5C 20.7212,59.2786 18.0545,59.612 15.5,60.5C 16.3629,59.0597 16.3629,57.7264 15.5,56.5C 18.6256,55.8584 21.6256,56.525 24.5,58.5C 24.9106,57.7376 25.0773,56.7376 25,55.5C 26.3086,57.8912 27.3086,57.8912 28,55.5C 29.7216,55.9615 31.555,56.1282 33.5,56C 32.2888,56.8928 32.2888,57.7261 33.5,58.5C 34.1924,57.9747 34.6924,57.3081 35,56.5C 36.3876,57.5536 37.8876,57.7203 39.5,57C 36.9365,56.237 36.9365,55.737 39.5,55.5C 41.0293,55.5288 42.196,56.1955 43,57.5C 43.3333,57.1667 43.6667,56.8333 44,56.5C 44.3076,57.3081 44.8076,57.9747 45.5,58.5C 46.7193,57.7366 47.7193,56.7366 48.5,55.5C 50.4134,56.373 52.2467,57.373 54,58.5C 55.493,54.9422 57.6597,54.6088 60.5,57.5C 61.4255,56.3595 62.2588,56.3595 63,57.5C 63.3333,56.8333 63.6667,56.1667 64,55.5C 65.4781,58.9931 67.4781,59.3264 70,56.5C 72.7536,56.9254 75.5869,57.9254 78.5,59.5 Z"/></g>
<g><path style="opacity:1" fill="#5a6074" d="M 61.5,59.5 C 62.3171,61.9686 62.8171,64.6353 63,67.5C 64.3333,64.8333 65.6667,62.1667 67,59.5C 69.4905,62.4651 70.8238,65.7984 71,69.5C 70.5193,67.522 69.3527,66.1887 67.5,65.5C 65.4287,66.2861 63.762,67.6194 62.5,69.5C 59.9007,68.101 58.4007,66.101 58,63.5C 59,64.5 60,65.5 61,66.5C 61.4966,64.1902 61.6633,61.8568 61.5,59.5 Z"/></g>
<g><path style="opacity:1" fill="#5f6476" d="M 45.5,59.5 C 46.4972,59.4701 47.1639,59.9701 47.5,61C 48.5038,62.7983 49.0038,64.6316 49,66.5C 47.3333,65.1667 45.6667,65.1667 44,66.5C 43.8648,64.0784 44.3648,61.7451 45.5,59.5 Z"/></g>
<g><path style="opacity:1" fill="#5b6070" d="M 34.5,64.5 C 33.1779,64.67 32.0113,64.3366 31,63.5C 30.3918,65.0664 29.5585,66.3998 28.5,67.5C 28.1866,64.7531 28.52,62.0865 29.5,59.5C 31.3435,59.7552 33.3435,59.9219 35.5,60C 30.714,60.8958 30.3807,62.3958 34.5,64.5 Z"/></g>
<g><path style="opacity:1" fill="#0c101c" d="M 76.5,63.5 C 75.5,63.5 74.5,63.5 73.5,63.5C 74.2458,59.69 75.2458,59.69 76.5,63.5 Z"/></g>
<g><path style="opacity:1" fill="#696c7c" d="M 53.5,59.5 C 54.9953,59.4148 55.9953,60.0815 56.5,61.5C 56.1543,62.6956 55.6543,62.6956 55,61.5C 54.6667,63.8333 54.3333,66.1667 54,68.5C 53.502,65.5184 53.3354,62.5184 53.5,59.5 Z"/></g>
<g><path style="opacity:1" fill="#777b88" d="M 40.5,68.5 C 39.5269,66.0521 39.1936,63.3854 39.5,60.5C 39.8333,59.1667 40.1667,59.1667 40.5,60.5C 40.5,63.1667 40.5,65.8333 40.5,68.5 Z"/></g>
<g><path style="opacity:1" fill="#afaeae" d="M 105.5,76.5 C 102.5,76.8333 101.167,75.5 101.5,72.5C 103.068,71.5269 104.735,71.3603 106.5,72C 101.714,72.8958 101.381,74.3958 105.5,76.5 Z"/></g>
<g><path style="opacity:1" fill="#afaeb1" d="M 15.5,71.5 C 21.6834,70.785 24.6834,71.1183 24.5,72.5C 24.5,73.5 24.5,74.5 24.5,75.5C 29.8333,75.8333 29.8333,76.1667 24.5,76.5C 24.5,77.5 24.5,78.5 24.5,79.5C 25.9778,79.238 27.3112,79.5713 28.5,80.5C 26.9547,81.4519 25.288,81.7852 23.5,81.5C 23.5,78.5 23.5,75.5 23.5,72.5C 22.1667,72.5 20.8333,72.5 19.5,72.5C 19.1667,83.1667 18.8333,83.1667 18.5,72.5C 17.209,72.7373 16.209,72.404 15.5,71.5 Z"/></g>
<g><path style="opacity:1" fill="#8c8d8d" d="M 95.5,71.5 C 97.1667,71.5 98.8333,71.5 100.5,71.5C 101.167,71.5 101.5,71.8333 101.5,72.5C 100.167,72.5 98.8333,72.5 97.5,72.5C 97.5,73.5 97.5,74.5 97.5,75.5C 101.5,75.8333 101.5,76.1667 97.5,76.5C 97.5,77.5 97.5,78.5 97.5,79.5C 100.167,79.5 102.833,79.5 105.5,79.5C 105.5,78.5 105.5,77.5 105.5,76.5C 108.074,79.0175 107.408,80.6842 103.5,81.5C 101.141,81.5438 98.6406,81.2105 96,80.5C 95.502,77.5184 95.3354,74.5184 95.5,71.5 Z"/></g>
<g><path style="opacity:1" fill="#0d0e10" d="M 101.5,72.5 C 101.167,75.5 102.5,76.8333 105.5,76.5C 105.5,77.5 105.5,78.5 105.5,79.5C 102.833,79.5 100.167,79.5 97.5,79.5C 97.5,78.5 97.5,77.5 97.5,76.5C 101.5,76.1667 101.5,75.8333 97.5,75.5C 97.5,74.5 97.5,73.5 97.5,72.5C 98.8333,72.5 100.167,72.5 101.5,72.5 Z"/></g>
<g><path style="opacity:1" fill="#101011" d="M 34.5,64.5 C 34.5,65.5 34.5,66.5 34.5,67.5C 29.3402,67.6051 29.3402,68.2717 34.5,69.5C 36.2624,69.3573 37.9291,69.6906 39.5,70.5C 40.2975,70.0431 40.6309,69.3764 40.5,68.5C 41.7836,69.5573 43.1169,70.5573 44.5,71.5C 44.5,72.8333 44.5,74.1667 44.5,75.5C 42.8333,75.5 41.1667,75.5 39.5,75.5C 38.1667,75.8333 38.1667,76.1667 39.5,76.5C 41.1667,76.5 42.8333,76.5 44.5,76.5C 44.238,77.9778 44.5713,79.3112 45.5,80.5C 46.4742,78.2573 46.8076,75.924 46.5,73.5C 46.8333,73.5 47.1667,73.5 47.5,73.5C 47.3367,75.8568 47.5034,78.1902 48,80.5C 48.1862,77.9644 48.6862,75.631 49.5,73.5C 50.713,76.2254 52.5464,78.5588 55,80.5C 56.0884,77.0074 57.255,76.8408 58.5,80C 61.5702,82.2454 63.9035,81.7454 65.5,78.5C 66.1174,78.3893 66.6174,78.056 67,77.5C 67.7655,81.3624 69.9322,82.3624 73.5,80.5C 72.3112,79.5713 70.9778,79.238 69.5,79.5C 69.5,77.1667 69.5,74.8333 69.5,72.5C 71.1238,72.6399 72.2904,71.9733 73,70.5C 73.7172,71.0442 74.2172,71.7109 74.5,72.5C 72.5118,76.724 73.6784,79.724 78,81.5C 82.0981,80.7546 83.7648,78.4213 83,74.5C 81.7616,79.6371 79.0949,80.6371 75,77.5C 74.3333,76.5 74.3333,75.5 75,74.5C 77.0873,73.3123 78.5873,72.3123 79.5,71.5C 80.1667,70.8333 80.8333,70.1667 81.5,69.5C 84.6981,70.0356 87.3647,69.369 89.5,67.5C 91.3912,69.0163 93.3912,70.3496 95.5,71.5C 95.3354,74.5184 95.502,77.5184 96,80.5C 98.6406,81.2105 101.141,81.5438 103.5,81.5C 102.5,81.8333 101.833,82.5 101.5,83.5C 100.167,86.5 100.167,89.5 101.5,92.5C 101.217,93.2891 100.717,93.9558 100,94.5C 98.0517,93.8906 96.2184,93.224 94.5,92.5C 93.8333,92.5 93.1667,92.5 92.5,92.5C 92.6646,89.4816 92.498,86.4816 92,83.5C 90.6618,86.0823 88.8285,86.7489 86.5,85.5C 86.2172,84.7109 85.7172,84.0442 85,83.5C 84.502,86.4816 84.3354,89.4816 84.5,92.5C 83.8333,92.5 83.5,92.1667 83.5,91.5C 82.8333,87.5 82.1667,87.5 81.5,91.5C 77.5,91.8333 77.5,92.1667 81.5,92.5C 80.828,93.2674 79.9947,93.9341 79,94.5C 77.2084,94.3982 75.3751,93.7316 73.5,92.5C 77.1612,92.6499 78.1612,91.1499 76.5,88C 75.552,87.5172 74.552,87.3505 73.5,87.5C 73.5,86.5 73.5,85.5 73.5,84.5C 76.5946,83.4414 75.9279,83.4414 71.5,84.5C 70.0813,83.5489 68.4147,83.2155 66.5,83.5C 66.5,86.1667 66.5,88.8333 66.5,91.5C 66.1667,91.5 65.8333,91.5 65.5,91.5C 65.8333,88.5 64.5,87.1667 61.5,87.5C 63.2294,88.2362 64.2294,89.5695 64.5,91.5C 62.7354,92.4614 60.7354,92.7947 58.5,92.5C 58.5,92.1667 58.5,91.8333 58.5,91.5C 56.712,91.7852 55.0453,91.4519 53.5,90.5C 50.6835,81.2941 48.3502,81.2941 46.5,90.5C 46.1818,93.4849 44.5152,95.1515 41.5,95.5C 38.9658,94.7268 36.6325,93.7268 34.5,92.5C 37.1194,92.7683 39.6194,92.435 42,91.5C 44.2454,88.4298 43.7454,86.0965 40.5,84.5C 38.7354,83.5386 36.7354,83.2053 34.5,83.5C 34.5,86.1667 34.5,88.8333 34.5,91.5C 34.1667,91.5 33.8333,91.5 33.5,91.5C 33.6641,88.8127 33.4974,86.146 33,83.5C 32.6667,85.8333 32.3333,88.1667 32,90.5C 30.9609,89.2899 29.7942,88.2899 28.5,87.5C 28.2882,85.6159 27.2882,84.2826 25.5,83.5C 24.6816,86.1071 24.1816,88.7737 24,91.5C 23.7216,90.5842 23.2216,89.9175 22.5,89.5C 22.6716,88.5084 22.3382,87.8417 21.5,87.5C 21.5674,86.0413 21.2341,84.7079 20.5,83.5C 21.2223,82.4489 22.2223,81.7822 23.5,81.5C 25.288,81.7852 26.9547,81.4519 28.5,80.5C 27.3112,79.5713 25.9778,79.238 24.5,79.5C 24.5,78.5 24.5,77.5 24.5,76.5C 29.8333,76.1667 29.8333,75.8333 24.5,75.5C 24.5,74.5 24.5,73.5 24.5,72.5C 24.6834,71.1183 21.6834,70.785 15.5,71.5C 16.1098,70.609 16.4431,69.609 16.5,68.5C 19.4844,69.0027 22.4844,69.3361 25.5,69.5C 26.7387,69.0576 27.7387,68.3909 28.5,67.5C 29.5585,66.3998 30.3918,65.0664 31,63.5C 32.0113,64.3366 33.1779,64.67 34.5,64.5 Z"/></g>
<g><path style="opacity:1" fill="#9c9c9c" d="M 58.5,73.5 C 57.8715,79.2473 60.2048,80.914 65.5,78.5C 63.9035,81.7454 61.5702,82.2454 58.5,80C 57.255,76.8408 56.0884,77.0074 55,80.5C 52.5464,78.5588 50.713,76.2254 49.5,73.5C 51.1288,74.6253 52.6288,75.9586 54,77.5C 54.1922,75.4233 54.6922,73.4233 55.5,71.5C 56.2811,72.7287 56.7811,74.062 57,75.5C 57.2784,74.5842 57.7784,73.9175 58.5,73.5 Z"/></g>
<g><path style="opacity:1" fill="#959595" d="M 30.5,78.5 C 32.7463,79.2096 35.0796,79.7096 37.5,80C 34.4298,82.2454 32.0965,81.7454 30.5,78.5 Z"/></g>
<g><path style="opacity:1" fill="#d6d7d8" d="M 49.5,73.5 C 48.6862,75.631 48.1862,77.9644 48,80.5C 47.5034,78.1902 47.3367,75.8568 47.5,73.5C 47.7856,71.0673 48.4523,71.0673 49.5,73.5 Z"/></g>
<g><path style="opacity:1" fill="#070707" d="M 64.5,72.5 C 65.1495,74.4352 65.4828,76.4352 65.5,78.5C 60.2048,80.914 57.8715,79.2473 58.5,73.5C 60.4352,72.8505 62.4352,72.5172 64.5,72.5 Z"/></g>
<g><path style="opacity:1" fill="#a09fa3" d="M 44.5,71.5 C 45.8333,71.5 46.5,72.1667 46.5,73.5C 46.8076,75.924 46.4742,78.2573 45.5,80.5C 44.5713,79.3112 44.238,77.9778 44.5,76.5C 42.8333,76.5 41.1667,76.5 39.5,76.5C 38.1667,76.1667 38.1667,75.8333 39.5,75.5C 41.1667,75.5 42.8333,75.5 44.5,75.5C 44.5,74.1667 44.5,72.8333 44.5,71.5 Z"/></g>
<g><path style="opacity:1" fill="#a9a9ac" d="M 30.5,78.5 C 28.8865,72.4577 31.2198,70.4577 37.5,72.5C 36.0909,72.6541 34.4242,72.8208 32.5,73C 30.8446,74.4443 30.178,76.2776 30.5,78.5 Z"/></g>
<g><path style="opacity:1" fill="#8d8b8b" d="M 69.5,72.5 C 69.5,74.8333 69.5,77.1667 69.5,79.5C 70.9778,79.238 72.3112,79.5713 73.5,80.5C 69.9322,82.3624 67.7655,81.3624 67,77.5C 66.6174,78.056 66.1174,78.3893 65.5,78.5C 65.4828,76.4352 65.1495,74.4352 64.5,72.5C 65.7899,73.0577 66.6232,74.0577 67,75.5C 67.2189,74.062 67.7189,72.7287 68.5,71.5C 69.1067,71.6236 69.44,71.9569 69.5,72.5 Z"/></g>
<g><path style="opacity:1" fill="#a0a1a3" d="M 85.5,73.5 C 86.3121,72.0069 87.6455,71.3402 89.5,71.5C 90.5,71.8333 91.5,72.1667 92.5,72.5C 90.3702,72.2512 88.0368,72.5845 85.5,73.5 Z"/></g>
<g><path style="opacity:1" fill="#b8b6b8" d="M 64.5,72.5 C 62.4352,72.5172 60.4352,72.8505 58.5,73.5C 59.1342,72.0532 60.3009,71.3866 62,71.5C 63.0698,71.528 63.9032,71.8614 64.5,72.5 Z"/></g>
<g><path style="opacity:1" fill="#a5a4a7" d="M 79.5,71.5 C 78.5873,72.3123 77.0873,73.3123 75,74.5C 74.3333,75.5 74.3333,76.5 75,77.5C 79.0949,80.6371 81.7616,79.6371 83,74.5C 83.7648,78.4213 82.0981,80.7546 78,81.5C 73.6784,79.724 72.5118,76.724 74.5,72.5C 76.0418,71.6993 77.7085,71.366 79.5,71.5 Z"/></g>
<g><path style="opacity:1" fill="#a7a6a8" d="M 85.5,73.5 C 84.5548,78.8946 86.5548,80.5613 91.5,78.5C 88.8694,76.9954 89.2027,76.3287 92.5,76.5C 91.8093,81.6784 89.3093,82.6784 85,79.5C 84.2109,77.2884 84.3775,75.2884 85.5,73.5 Z"/></g>
<g><path style="opacity:1" fill="#cbcbcb" d="M 106.5,90.5 C 107.314,88.369 107.814,86.0356 108,83.5C 108.667,86.5 108.667,89.5 108,92.5C 107.283,91.9558 106.783,91.2891 106.5,90.5 Z"/></g>
<g><path style="opacity:1" fill="#b8b8b8" d="M 73.5,87.5 C 72.0937,87.0269 71.427,86.0269 71.5,84.5C 75.9279,83.4414 76.5946,83.4414 73.5,84.5C 73.5,85.5 73.5,86.5 73.5,87.5 Z"/></g>
<g><path style="opacity:1" fill="#c5c5c5" d="M 109.5,84.5 C 113.991,83.2587 115.324,83.2587 113.5,84.5C 113.167,95.1667 112.833,95.1667 112.5,84.5C 111.5,84.5 110.5,84.5 109.5,84.5 Z"/></g>
<g><path style="opacity:1" fill="#c7c7c7" d="M 118.5,87.5 C 117.566,86.4324 117.232,85.099 117.5,83.5C 123.167,83.6636 123.5,83.9969 118.5,84.5C 118.5,85.5 118.5,86.5 118.5,87.5 Z"/></g>
<g><path style="opacity:1" fill="#b8b8b8" d="M 20.5,83.5 C 21.2341,84.7079 21.5674,86.0413 21.5,87.5C 22.3382,87.8417 22.6716,88.5084 22.5,89.5C 19.6748,89.1616 17.5082,90.1616 16,92.5C 16.4182,88.9968 17.9182,85.9968 20.5,83.5 Z"/></g>
<g><path style="opacity:1" fill="#ababab" d="M 58.5,91.5 C 58.5,91.8333 58.5,92.1667 58.5,92.5C 55.0164,92.6724 52.0164,91.6724 49.5,89.5C 48.4163,89.685 47.4163,90.0183 46.5,90.5C 48.3502,81.2941 50.6835,81.2941 53.5,90.5C 55.0453,91.4519 56.712,91.7852 58.5,91.5 Z"/></g>
<g><path style="opacity:1" fill="#bdbdbd" d="M 61.5,87.5 C 59.5565,86.9217 59.2232,85.9217 60.5,84.5C 61.723,83.3861 63.0563,83.2195 64.5,84C 63.552,84.4828 62.552,84.6495 61.5,84.5C 61.5,85.5 61.5,86.5 61.5,87.5 Z"/></g>
<g><path style="opacity:1" fill="#cccccc" d="M 71.5,84.5 C 70.1667,84.5 68.8333,84.5 67.5,84.5C 67.5,85.5 67.5,86.5 67.5,87.5C 72.8333,87.8333 72.8333,88.1667 67.5,88.5C 67.5,89.5 67.5,90.5 67.5,91.5C 72.1393,92.3714 71.8059,92.3714 66.5,91.5C 66.5,88.8333 66.5,86.1667 66.5,83.5C 68.4147,83.2155 70.0813,83.5489 71.5,84.5 Z"/></g>
<g><path style="opacity:1" fill="#aeaeae" d="M 78.5,83.5 C 82.8383,83.6219 83.1716,83.9553 79.5,84.5C 79.6713,87.7973 79.0046,88.1306 77.5,85.5C 77.8627,84.8165 78.1961,84.1499 78.5,83.5 Z"/></g>
<g><path style="opacity:1" fill="#ababab" d="M 92.5,92.5 C 91.6909,90.7078 91.1909,88.7078 91,86.5C 88.7604,89.2932 87.2604,88.9599 86.5,85.5C 88.8285,86.7489 90.6618,86.0823 92,83.5C 92.498,86.4816 92.6646,89.4816 92.5,92.5 Z"/></g>
<g><path style="opacity:1" fill="#010201" d="M 48.5,86.5 C 50.337,86.6395 50.6704,87.3061 49.5,88.5C 48.7025,88.0431 48.3691,87.3764 48.5,86.5 Z"/></g>
<g><path style="opacity:1" fill="#060606" d="M 21.5,87.5 C 18.4428,88.9697 17.9428,88.303 20,85.5C 20.2784,86.4158 20.7784,87.0825 21.5,87.5 Z"/></g>
<g><path style="opacity:1" fill="#b8b8b8" d="M 58.5,91.5 C 58.2381,89.4362 57.0714,88.1029 55,87.5C 54.51,86.2068 54.3433,84.8734 54.5,83.5C 59.0407,83.3309 59.374,83.9975 55.5,85.5C 56.3467,86.8448 57.5134,87.8448 59,88.5C 59.7401,89.7494 59.5735,90.7494 58.5,91.5 Z"/></g>
<g><path style="opacity:1" fill="#bdbdbd" d="M 61.5,87.5 C 64.5,87.1667 65.8333,88.5 65.5,91.5C 65.1667,91.5 64.8333,91.5 64.5,91.5C 64.2294,89.5695 63.2294,88.2362 61.5,87.5 Z"/></g>
<g><path style="opacity:1" fill="#a8a8a8" d="M 102.5,85.5 C 104.587,86.5846 105.92,88.2512 106.5,90.5C 104.413,89.4154 103.08,87.7488 102.5,85.5 Z"/></g>
<g><path style="opacity:1" fill="#b7b7b7" d="M 73.5,87.5 C 74.552,87.3505 75.552,87.5172 76.5,88C 78.1612,91.1499 77.1612,92.6499 73.5,92.5C 73.0618,92.5654 72.7284,92.3988 72.5,92C 77.286,91.1042 77.6193,89.6042 73.5,87.5 Z"/></g>
<g><path style="opacity:1" fill="#c7c7c7" d="M 94.5,92.5 C 94.5,89.5 94.5,86.5 94.5,83.5C 100.167,83.6636 100.5,83.9969 95.5,84.5C 95.5,85.5 95.5,86.5 95.5,87.5C 100.833,87.8333 100.833,88.1667 95.5,88.5C 95.5,89.5 95.5,90.5 95.5,91.5C 100.5,92.0031 100.167,92.3364 94.5,92.5 Z"/></g>
<g><path style="opacity:1" fill="#d7d7d7" d="M 101.5,83.5 C 101.833,84.1667 102.167,84.8333 102.5,85.5C 101.532,87.6074 101.198,89.9407 101.5,92.5C 100.167,89.5 100.167,86.5 101.5,83.5 Z"/></g>
<g><path style="opacity:1" fill="#bebebe" d="M 118.5,87.5 C 121.68,87.1762 122.847,88.5096 122,91.5C 121.31,89.6498 120.144,88.3164 118.5,87.5 Z"/></g>
<g><path style="opacity:1" fill="#c3c3c3" d="M 86.5,85.5 C 85.8333,87.8333 85.1667,90.1667 84.5,92.5C 84.3354,89.4816 84.502,86.4816 85,83.5C 85.7172,84.0442 86.2172,84.7109 86.5,85.5 Z"/></g>
<g><path style="opacity:1" fill="#b6b6b6" d="M 33.5,91.5 C 30.9051,91.9597 29.2385,90.6263 28.5,87.5C 29.7942,88.2899 30.9609,89.2899 32,90.5C 32.3333,88.1667 32.6667,85.8333 33,83.5C 33.4974,86.146 33.6641,88.8127 33.5,91.5 Z"/></g>
<g><path style="opacity:1" fill="#979797" d="M 28.5,87.5 C 27.8826,87.3893 27.3826,87.056 27,86.5C 26.5045,88.4727 26.3379,90.4727 26.5,92.5C 25.1667,92.5 23.8333,92.5 22.5,92.5C 22.5,91.5 22.5,90.5 22.5,89.5C 23.2216,89.9175 23.7216,90.5842 24,91.5C 24.1816,88.7737 24.6816,86.1071 25.5,83.5C 27.2882,84.2826 28.2882,85.6159 28.5,87.5 Z"/></g>
<g><path style="opacity:1" fill="#b6b6b6" d="M 40.5,84.5 C 43.7454,86.0965 44.2454,88.4298 42,91.5C 39.6194,92.435 37.1194,92.7683 34.5,92.5C 34.5,92.1667 34.5,91.8333 34.5,91.5C 34.5,88.8333 34.5,86.1667 34.5,83.5C 36.7354,83.2053 38.7354,83.5386 40.5,84.5 Z"/></g>
<g><path style="opacity:1" fill="#060606" d="M 40.5,84.5 C 42.914,89.7952 41.2473,92.1285 35.5,91.5C 35.5,89.1667 35.5,86.8333 35.5,84.5C 37.1667,84.5 38.8333,84.5 40.5,84.5 Z"/></g>
<g><path style="opacity:1" fill="#afafaf" d="M 83.5,91.5 C 82.8333,91.8333 82.1667,92.1667 81.5,92.5C 77.5,92.1667 77.5,91.8333 81.5,91.5C 82.1667,87.5 82.8333,87.5 83.5,91.5 Z"/></g>
<g><path style="opacity:1" fill="#0a0209" d="M 193.5,113.5 C 193.5,120.167 193.5,126.833 193.5,133.5C 190.355,135.045 187.521,134.378 185,131.5C 182.667,131.833 180.333,132.167 178,132.5C 176.326,131.324 174.826,129.99 173.5,128.5C 172.5,130.167 171.167,131.5 169.5,132.5C 168.914,132.291 168.414,131.957 168,131.5C 163.233,132.452 158.4,133.285 153.5,134C 149.998,139.801 145.331,140.967 139.5,137.5C 139.657,138.873 139.49,140.207 139,141.5C 138.586,141.043 138.086,140.709 137.5,140.5C 136.46,144.52 134.126,145.52 130.5,143.5C 126.276,146.466 121.609,148.466 116.5,149.5C 116.5,150.5 116.5,151.5 116.5,152.5C 114.833,152.5 113.167,152.5 111.5,152.5C 111.649,151.448 111.483,150.448 111,149.5C 109.855,150.636 108.688,151.636 107.5,152.5C 106.347,151.687 106.347,150.687 107.5,149.5C 109.295,147.297 111.629,146.131 114.5,146C 115.88,144.676 116.214,143.343 115.5,142C 119.527,138.64 123.194,134.973 126.5,131C 125.315,129.647 123.981,128.48 122.5,127.5C 118.738,128.502 115.072,130.169 111.5,132.5C 111.5,133.5 111.5,134.5 111.5,135.5C 107.281,135.528 103.781,137.195 101,140.5C 100.517,141.448 100.351,142.448 100.5,143.5C 99.8333,143.5 99.1667,143.5 98.5,143.5C 98.5,141.5 98.5,139.5 98.5,137.5C 102.908,137.122 106.241,134.955 108.5,131C 110.9,130.814 113.234,130.314 115.5,129.5C 118.768,125.242 117.768,122.575 112.5,121.5C 111.571,120.311 111.238,118.978 111.5,117.5C 116.156,119.238 120.989,120.238 126,120.5C 131.664,118.944 137.498,117.777 143.5,117C 148.823,116.501 154.156,116.334 159.5,116.5C 159.5,118.5 159.5,120.5 159.5,122.5C 154.372,122.112 149.372,122.612 144.5,124C 145.873,124.875 147.373,125.375 149,125.5C 157.456,124.81 165.622,122.976 173.5,120C 172.308,118.088 171.308,116.088 170.5,114C 168.868,112.69 167.201,112.19 165.5,112.5C 169.445,111.509 173.445,111.176 177.5,111.5C 177.5,113.5 177.5,115.5 177.5,117.5C 184.245,120.481 188.578,118.481 190.5,111.5C 191.265,112.612 192.265,113.279 193.5,113.5 Z"/></g>
<g><path style="opacity:1" fill="#410818" d="M 107.5,152.5 C 105.066,155.438 102.399,158.271 99.5,161C 99.9574,161.414 100.291,161.914 100.5,162.5C 99.0603,163.952 97.3936,164.952 95.5,165.5C 96.252,163.9 97.252,162.4 98.5,161C 98.1667,160.667 97.8333,160.333 97.5,160C 100.835,157.659 103.002,154.493 104,150.5C 106.883,148.153 109.383,145.486 111.5,142.5C 111.291,141.914 110.957,141.414 110.5,141C 113.038,139.829 113.538,138.329 112,136.5C 111.683,138.301 111.016,138.634 110,137.5C 106.233,138.683 103.067,140.683 100.5,143.5C 100.351,142.448 100.517,141.448 101,140.5C 103.781,137.195 107.281,135.528 111.5,135.5C 111.5,134.5 111.5,133.5 111.5,132.5C 115.072,130.169 118.738,128.502 122.5,127.5C 123.981,128.48 125.315,129.647 126.5,131C 123.194,134.973 119.527,138.64 115.5,142C 116.214,143.343 115.88,144.676 114.5,146C 111.629,146.131 109.295,147.297 107.5,149.5C 106.347,150.687 106.347,151.687 107.5,152.5 Z"/></g>
<g><path style="opacity:1" fill="#591e45" d="M 190.5,137.5 C 190.856,139.19 191.856,140.19 193.5,140.5C 193.5,141.167 193.5,141.833 193.5,142.5C 185.238,142.07 177.738,141.404 171,140.5C 163.323,142.694 155.823,144.36 148.5,145.5C 148.833,144.833 149.167,144.167 149.5,143.5C 162.969,140.739 176.636,138.739 190.5,137.5 Z"/></g>
<g><path style="opacity:1" fill="#1a3b5c" d="M 190.5,137.5 C 176.636,138.739 162.969,140.739 149.5,143.5C 148.85,143.196 148.183,142.863 147.5,142.5C 142.372,145.133 137.372,147.967 132.5,151C 130.866,151.494 129.199,151.66 127.5,151.5C 128.635,150.526 129.635,149.359 130.5,148C 131.449,147.383 132.282,147.549 133,148.5C 134.802,146.322 136.969,144.489 139.5,143C 141.441,142.696 143.107,141.863 144.5,140.5C 145.967,140.723 147.467,141.056 149,141.5C 150.177,139.824 151.677,138.491 153.5,137.5C 158.288,136.289 163.122,136.289 168,137.5C 168.667,136.167 169.667,135.167 171,134.5C 174.789,134.623 178.623,134.623 182.5,134.5C 183.799,135.09 184.632,136.09 185,137.5C 187.008,134.861 188.841,134.861 190.5,137.5 Z"/></g>
<g><path style="opacity:1" fill="#f14e86" d="M 193.5,144.5 C 193.5,145.833 193.5,147.167 193.5,148.5C 191.983,148.489 190.816,147.823 190,146.5C 188,146.5 186,146.5 184,146.5C 183,147.167 182,147.833 181,148.5C 179.171,148.435 177.338,148.102 175.5,147.5C 177.288,145.804 179.455,144.471 182,143.5C 185.734,143.262 189.567,143.595 193.5,144.5 Z"/></g>
<g><path style="opacity:1" fill="#d75a8e" d="M 193.5,142.5 C 193.5,143.167 193.5,143.833 193.5,144.5C 189.567,143.595 185.734,143.262 182,143.5C 179.455,144.471 177.288,145.804 175.5,147.5C 175.5,148.167 175.5,148.833 175.5,149.5C 171.885,149.155 168.552,149.822 165.5,151.5C 167.139,147.132 165.473,145.466 160.5,146.5C 153.737,148.225 147.07,150.391 140.5,153C 135.846,157.351 131.513,161.851 127.5,166.5C 127.5,166.833 127.5,167.167 127.5,167.5C 126.833,167.167 126.167,166.833 125.5,166.5C 126.167,164.833 126.833,163.167 127.5,161.5C 131.263,158.954 134.929,155.621 138.5,151.5C 139.82,149.73 141.32,149.397 143,150.5C 144.73,148.598 146.563,146.931 148.5,145.5C 155.823,144.36 163.323,142.694 171,140.5C 177.738,141.404 185.238,142.07 193.5,142.5 Z"/></g>
<g><path style="opacity:1" fill="#120d22" d="M 193.5,133.5 C 193.5,135.833 193.5,138.167 193.5,140.5C 191.856,140.19 190.856,139.19 190.5,137.5C 188.841,134.861 187.008,134.861 185,137.5C 184.632,136.09 183.799,135.09 182.5,134.5C 178.623,134.623 174.789,134.623 171,134.5C 169.667,135.167 168.667,136.167 168,137.5C 163.122,136.289 158.288,136.289 153.5,137.5C 151.677,138.491 150.177,139.824 149,141.5C 147.467,141.056 145.967,140.723 144.5,140.5C 143.107,141.863 141.441,142.696 139.5,143C 136.969,144.489 134.802,146.322 133,148.5C 132.282,147.549 131.449,147.383 130.5,148C 129.635,149.359 128.635,150.526 127.5,151.5C 125.485,153.947 123.151,155.28 120.5,155.5C 121.568,160.937 119.734,162.27 115,159.5C 113.85,160.424 112.85,160.424 112,159.5C 111.549,161.929 110.715,162.096 109.5,160C 107.833,159.333 106.167,159.333 104.5,160C 104.255,161.911 104.255,163.911 104.5,166C 102.109,167.309 102.109,168.309 104.5,169C 103.09,169.368 102.09,170.201 101.5,171.5C 103.161,170.657 105.161,170.657 107.5,171.5C 108.246,172.736 108.579,174.07 108.5,175.5C 110.5,175.5 112.5,175.5 114.5,175.5C 113.211,176.637 112.211,177.97 111.5,179.5C 111.167,179.5 110.833,179.5 110.5,179.5C 109.608,176.708 107.608,175.375 104.5,175.5C 103.633,178.479 102.3,181.312 100.5,184C 101.651,186.204 100.985,187.704 98.5,188.5C 98.631,187.761 98.4643,187.094 98,186.5C 96.6089,189.203 94.6089,189.869 92,188.5C 90.469,189.217 89.1357,190.217 88,191.5C 87.5,191.333 87,191.167 86.5,191C 86.9765,188.852 87.3098,186.352 87.5,183.5C 87.4439,181.36 86.7773,179.694 85.5,178.5C 87.7616,176.315 89.2616,173.648 90,170.5C 91.7038,168.627 93.5372,166.96 95.5,165.5C 97.3936,164.952 99.0603,163.952 100.5,162.5C 100.291,161.914 99.9574,161.414 99.5,161C 102.399,158.271 105.066,155.438 107.5,152.5C 108.688,151.636 109.855,150.636 111,149.5C 111.483,150.448 111.649,151.448 111.5,152.5C 113.167,152.5 114.833,152.5 116.5,152.5C 116.5,151.5 116.5,150.5 116.5,149.5C 121.609,148.466 126.276,146.466 130.5,143.5C 134.126,145.52 136.46,144.52 137.5,140.5C 138.086,140.709 138.586,141.043 139,141.5C 139.49,140.207 139.657,138.873 139.5,137.5C 145.331,140.967 149.998,139.801 153.5,134C 158.4,133.285 163.233,132.452 168,131.5C 168.414,131.957 168.914,132.291 169.5,132.5C 171.167,131.5 172.5,130.167 173.5,128.5C 174.826,129.99 176.326,131.324 178,132.5C 180.333,132.167 182.667,131.833 185,131.5C 187.521,134.378 190.355,135.045 193.5,133.5 Z"/></g>
<g><path style="opacity:1" fill="#a41e3c" d="M 95.5,157.5 C 95.7615,156.208 95.2615,154.875 94,153.5C 89.3449,158.209 84.5116,162.543 79.5,166.5C 79.5,165.833 79.5,165.167 79.5,164.5C 79.5,164.167 79.5,163.833 79.5,163.5C 85.4647,158.043 91.6313,152.709 98,147.5C 101.293,148.138 102.293,150.138 101,153.5C 99.549,155.464 97.7157,156.797 95.5,157.5 Z"/></g>
<g><path style="opacity:1" fill="#e64273" d="M 175.5,149.5 C 176.9,150.1 177.9,151.1 178.5,152.5C 171.825,153.722 165.491,154.389 159.5,154.5C 159.782,153.222 160.449,152.222 161.5,151.5C 162.833,151.5 164.167,151.5 165.5,151.5C 168.552,149.822 171.885,149.155 175.5,149.5 Z"/></g>
<g><path style="opacity:1" fill="#d83157" d="M 193.5,148.5 C 193.5,154.167 193.5,159.833 193.5,165.5C 188.846,164.715 184.179,163.882 179.5,163C 178.279,160.966 176.945,159.133 175.5,157.5C 178.734,157.795 181.734,157.129 184.5,155.5C 183.653,154.155 182.487,153.155 181,152.5C 180.023,153.774 179.189,153.774 178.5,152.5C 177.9,151.1 176.9,150.1 175.5,149.5C 175.5,148.833 175.5,148.167 175.5,147.5C 177.338,148.102 179.171,148.435 181,148.5C 182,147.833 183,147.167 184,146.5C 186,146.5 188,146.5 190,146.5C 190.816,147.823 191.983,148.489 193.5,148.5 Z"/></g>
<g><path style="opacity:1" fill="#be6aa4" d="M 165.5,151.5 C 164.167,151.5 162.833,151.5 161.5,151.5C 156.924,152.644 152.257,153.811 147.5,155C 146.965,157.109 145.965,157.609 144.5,156.5C 143.614,157.325 143.281,158.325 143.5,159.5C 141.517,159.157 140.183,159.824 139.5,161.5C 136.319,163.592 133.319,165.925 130.5,168.5C 130.167,168.5 129.833,168.5 129.5,168.5C 129.5,167.167 128.833,166.5 127.5,166.5C 131.513,161.851 135.846,157.351 140.5,153C 147.07,150.391 153.737,148.225 160.5,146.5C 165.473,145.466 167.139,147.132 165.5,151.5 Z"/></g>
<g><path style="opacity:1" fill="#66193c" d="M 133.5,153.5 C 131.016,155.8 129.016,158.467 127.5,161.5C 126.833,163.167 126.167,164.833 125.5,166.5C 125.167,166.5 124.833,166.5 124.5,166.5C 124.715,164.821 124.048,163.821 122.5,163.5C 122.461,162.417 122.127,161.417 121.5,160.5C 122.687,159.481 123.687,158.314 124.5,157C 126.741,157.271 128.741,156.271 130.5,154C 131.448,153.517 132.448,153.351 133.5,153.5 Z"/></g>
<g><path style="opacity:1" fill="#7a1233" d="M 178.5,152.5 C 179.189,153.774 180.023,153.774 181,152.5C 182.487,153.155 183.653,154.155 184.5,155.5C 181.734,157.129 178.734,157.795 175.5,157.5C 170.604,155.554 165.271,154.887 159.5,155.5C 159.5,155.167 159.5,154.833 159.5,154.5C 165.491,154.389 171.825,153.722 178.5,152.5 Z"/></g>
<g><path style="opacity:1" fill="#330511" d="M 95.5,145.5 C 91.2635,150.614 86.5968,155.281 81.5,159.5C 81.3505,158.448 81.5172,157.448 82,156.5C 85.8247,153.376 89.3247,149.876 92.5,146C 93.448,145.517 94.448,145.351 95.5,145.5 Z"/></g>
<g><path style="opacity:1" fill="#c34572" d="M 161.5,151.5 C 160.449,152.222 159.782,153.222 159.5,154.5C 159.5,154.833 159.5,155.167 159.5,155.5C 158.105,155.562 156.605,155.562 155,155.5C 152.686,156.733 150.519,158.067 148.5,159.5C 145.785,161.123 142.785,161.79 139.5,161.5C 140.183,159.824 141.517,159.157 143.5,159.5C 143.281,158.325 143.614,157.325 144.5,156.5C 145.965,157.609 146.965,157.109 147.5,155C 152.257,153.811 156.924,152.644 161.5,151.5 Z"/></g>
<g><path style="opacity:1" fill="#96294e" d="M 148.5,145.5 C 146.563,146.931 144.73,148.598 143,150.5C 141.32,149.397 139.82,149.73 138.5,151.5C 134.929,155.621 131.263,158.954 127.5,161.5C 129.016,158.467 131.016,155.8 133.5,153.5C 137.846,149.71 142.846,147.043 148.5,145.5 Z"/></g>
<g><path style="opacity:1" fill="#4a1e48" d="M 175.5,163.5 C 171.422,162.991 167.088,162.324 162.5,161.5C 159.748,161.714 157.414,162.714 155.5,164.5C 152.038,164.193 152.038,163.193 155.5,161.5C 158.5,161.833 159.833,160.5 159.5,157.5C 162.417,158.291 165.25,158.291 168,157.5C 168.309,158.766 168.809,159.933 169.5,161C 172.051,161.002 174.051,161.836 175.5,163.5 Z"/></g>
<g><path style="opacity:1" fill="#c7254d" d="M 95.5,157.5 C 94.3955,159.153 94.2288,160.82 95,162.5C 91.2684,166.062 87.7684,169.729 84.5,173.5C 82.1441,177.646 79.1441,181.479 75.5,185C 76.727,186.587 76.3937,187.921 74.5,189C 73.0347,189.601 72.0347,189.101 71.5,187.5C 71.4269,184.874 72.0936,182.208 73.5,179.5C 75.3234,175.485 77.3234,171.152 79.5,166.5C 84.5116,162.543 89.3449,158.209 94,153.5C 95.2615,154.875 95.7615,156.208 95.5,157.5 Z"/></g>
<g><path style="opacity:1" fill="#70142c" d="M 95.5,165.5 C 93.5372,166.96 91.7038,168.627 90,170.5C 89.2616,173.648 87.7616,176.315 85.5,178.5C 83.7295,183.494 81.7295,188.16 79.5,192.5C 78.2028,194.371 77.2028,196.371 76.5,198.5C 76.7646,194.147 77.2646,189.813 78,185.5C 81.634,182.313 83.8006,178.313 84.5,173.5C 87.7684,169.729 91.2684,166.062 95,162.5C 94.2288,160.82 94.3955,159.153 95.5,157.5C 97.7157,156.797 99.549,155.464 101,153.5C 102.293,150.138 101.293,148.138 98,147.5C 91.6313,152.709 85.4647,158.043 79.5,163.5C 79.3433,162.127 79.51,160.793 80,159.5C 80.69,160.738 81.19,160.738 81.5,159.5C 86.5968,155.281 91.2635,150.614 95.5,145.5C 95.8212,143.952 96.8212,143.285 98.5,143.5C 99.1667,143.5 99.8333,143.5 100.5,143.5C 103.067,140.683 106.233,138.683 110,137.5C 111.016,138.634 111.683,138.301 112,136.5C 113.538,138.329 113.038,139.829 110.5,141C 110.957,141.414 111.291,141.914 111.5,142.5C 109.383,145.486 106.883,148.153 104,150.5C 103.002,154.493 100.835,157.659 97.5,160C 97.8333,160.333 98.1667,160.667 98.5,161C 97.252,162.4 96.252,163.9 95.5,165.5 Z"/></g>
<g><path style="opacity:1" fill="#352958" d="M 175.5,163.5 C 175.953,164.458 176.619,165.292 177.5,166C 179.833,166.333 182.167,166.667 184.5,167C 186.279,169.505 188.612,171.005 191.5,171.5C 186.056,171.211 180.723,170.378 175.5,169C 170.136,168.171 164.802,168.337 159.5,169.5C 153.767,171.909 148.101,174.409 142.5,177C 137.274,181.728 132.274,186.561 127.5,191.5C 127.5,189.833 127.5,188.167 127.5,186.5C 131.365,185.294 133.365,182.627 133.5,178.5C 136.636,178.397 139.302,177.397 141.5,175.5C 143.048,175.179 143.715,174.179 143.5,172.5C 145.833,171.833 148.167,171.167 150.5,170.5C 151.962,168.745 153.795,167.412 156,166.5C 156.692,165.563 156.525,164.897 155.5,164.5C 157.414,162.714 159.748,161.714 162.5,161.5C 167.088,162.324 171.422,162.991 175.5,163.5 Z"/></g>
<g><path style="opacity:1" fill="#5f1839" d="M 159.5,155.5 C 165.271,154.887 170.604,155.554 175.5,157.5C 176.945,159.133 178.279,160.966 179.5,163C 184.179,163.882 188.846,164.715 193.5,165.5C 193.5,167.5 193.5,169.5 193.5,171.5C 192.833,171.5 192.167,171.5 191.5,171.5C 188.612,171.005 186.279,169.505 184.5,167C 182.167,166.667 179.833,166.333 177.5,166C 176.619,165.292 175.953,164.458 175.5,163.5C 174.051,161.836 172.051,161.002 169.5,161C 168.809,159.933 168.309,158.766 168,157.5C 165.25,158.291 162.417,158.291 159.5,157.5C 159.833,160.5 158.5,161.833 155.5,161.5C 153.721,159.656 151.388,158.99 148.5,159.5C 150.519,158.067 152.686,156.733 155,155.5C 156.605,155.562 158.105,155.562 159.5,155.5 Z"/></g>
<g><path style="opacity:1" fill="#50284d" d="M 122.5,163.5 C 124.048,163.821 124.715,164.821 124.5,166.5C 120.075,170.091 116.575,174.424 114,179.5C 113.23,178.402 112.397,178.402 111.5,179.5C 112.211,177.97 113.211,176.637 114.5,175.5C 113.822,173.142 113.488,170.975 113.5,169C 114.449,168.383 115.282,168.549 116,169.5C 116.5,167.667 117.667,166.5 119.5,166C 118.549,165.282 118.383,164.449 119,163.5C 119.986,164.171 121.153,164.171 122.5,163.5 Z"/></g>
<g><path style="opacity:1" fill="#600b2a" d="M 148.5,159.5 C 145.666,161.75 142.666,163.916 139.5,166C 137.35,167.411 135.016,168.245 132.5,168.5C 131.833,168.5 131.167,168.5 130.5,168.5C 133.319,165.925 136.319,163.592 139.5,161.5C 142.785,161.79 145.785,161.123 148.5,159.5 Z"/></g>
<g><path style="opacity:1" fill="#2c0e25" d="M 148.5,159.5 C 151.388,158.99 153.721,159.656 155.5,161.5C 152.038,163.193 152.038,164.193 155.5,164.5C 156.525,164.897 156.692,165.563 156,166.5C 153.795,167.412 151.962,168.745 150.5,170.5C 148.715,168.823 148.049,166.989 148.5,165C 146.866,164.506 145.199,164.34 143.5,164.5C 143.649,165.552 143.483,166.552 143,167.5C 142.667,167.167 142.333,166.833 142,166.5C 139.695,168.022 138.195,170.022 137.5,172.5C 139.741,172.046 141.741,172.046 143.5,172.5C 143.715,174.179 143.048,175.179 141.5,175.5C 140.127,175.657 138.793,175.49 137.5,175C 137.833,174.667 138.167,174.333 138.5,174C 136.63,171.96 134.63,170.127 132.5,168.5C 135.016,168.245 137.35,167.411 139.5,166C 142.666,163.916 145.666,161.75 148.5,159.5 Z"/></g>
<g><path style="opacity:1" fill="#45052b" d="M 150.5,170.5 C 148.167,171.167 145.833,171.833 143.5,172.5C 141.741,172.046 139.741,172.046 137.5,172.5C 138.195,170.022 139.695,168.022 142,166.5C 142.333,166.833 142.667,167.167 143,167.5C 143.483,166.552 143.649,165.552 143.5,164.5C 145.199,164.34 146.866,164.506 148.5,165C 148.049,166.989 148.715,168.823 150.5,170.5 Z"/></g>
<g><path style="opacity:1" fill="#331331" d="M 149.5,143.5 C 149.167,144.167 148.833,144.833 148.5,145.5C 142.846,147.043 137.846,149.71 133.5,153.5C 132.448,153.351 131.448,153.517 130.5,154C 128.741,156.271 126.741,157.271 124.5,157C 123.687,158.314 122.687,159.481 121.5,160.5C 122.127,161.417 122.461,162.417 122.5,163.5C 121.153,164.171 119.986,164.171 119,163.5C 118.383,164.449 118.549,165.282 119.5,166C 117.667,166.5 116.5,167.667 116,169.5C 115.282,168.549 114.449,168.383 113.5,169C 113.488,170.975 113.822,173.142 114.5,175.5C 112.5,175.5 110.5,175.5 108.5,175.5C 108.579,174.07 108.246,172.736 107.5,171.5C 105.161,170.657 103.161,170.657 101.5,171.5C 102.09,170.201 103.09,169.368 104.5,169C 102.109,168.309 102.109,167.309 104.5,166C 104.255,163.911 104.255,161.911 104.5,160C 106.167,159.333 107.833,159.333 109.5,160C 110.715,162.096 111.549,161.929 112,159.5C 112.85,160.424 113.85,160.424 115,159.5C 119.734,162.27 121.568,160.937 120.5,155.5C 123.151,155.28 125.485,153.947 127.5,151.5C 129.199,151.66 130.866,151.494 132.5,151C 137.372,147.967 142.372,145.133 147.5,142.5C 148.183,142.863 148.85,143.196 149.5,143.5 Z"/></g>
<g><path style="opacity:1" fill="#49091d" d="M 79.5,164.5 C 79.5,165.167 79.5,165.833 79.5,166.5C 77.3234,171.152 75.3234,175.485 73.5,179.5C 71.4735,181.865 69.8068,184.531 68.5,187.5C 69.4709,188.962 69.1376,190.295 67.5,191.5C 66.8328,194.977 66.1661,198.311 65.5,201.5C 65.7072,198.541 65.3739,195.374 64.5,192C 65.3567,191.311 66.0233,190.478 66.5,189.5C 65.943,187.765 65.6097,186.098 65.5,184.5C 66.8905,184.891 67.8905,184.058 68.5,182C 67.6051,178.905 67.6051,175.738 68.5,172.5C 71.7089,169.772 74.2089,166.439 76,162.5C 77.1127,163.305 78.2794,163.972 79.5,164.5 Z"/></g>
<g><path style="opacity:1" fill="#9c457c" d="M 124.5,166.5 C 124.833,166.5 125.167,166.5 125.5,166.5C 126.167,166.833 126.833,167.167 127.5,167.5C 123.69,171.365 119.856,175.365 116,179.5C 115.517,180.448 115.351,181.448 115.5,182.5C 113.659,183.402 112.326,184.736 111.5,186.5C 110.069,188.437 108.402,190.27 106.5,192C 107.821,193.545 107.488,194.711 105.5,195.5C 104.5,195.167 103.833,194.5 103.5,193.5C 104.883,191.68 105.883,189.68 106.5,187.5C 108.024,184.926 109.358,182.259 110.5,179.5C 110.833,179.5 111.167,179.5 111.5,179.5C 112.397,178.402 113.23,178.402 114,179.5C 116.575,174.424 120.075,170.091 124.5,166.5 Z"/></g>
<g><path style="opacity:1" fill="#653b69" d="M 127.5,166.5 C 128.833,166.5 129.5,167.167 129.5,168.5C 126.178,171.634 123.178,174.967 120.5,178.5C 118.205,179.136 116.539,180.469 115.5,182.5C 115.351,181.448 115.517,180.448 116,179.5C 119.856,175.365 123.69,171.365 127.5,167.5C 127.5,167.167 127.5,166.833 127.5,166.5 Z"/></g>
<g><path style="opacity:1" fill="#6967ac" d="M 193.5,183.5 C 193.5,184.167 193.5,184.833 193.5,185.5C 191.883,184.962 190.216,184.629 188.5,184.5C 188.67,183.178 188.337,182.011 187.5,181C 181.545,180.149 175.711,180.649 170,182.5C 167.208,181.784 164.374,181.451 161.5,181.5C 157.831,180.697 155.164,181.864 153.5,185C 150.085,185.406 147.418,187.072 145.5,190C 144.099,190.41 142.766,190.91 141.5,191.5C 143.558,189.758 145.225,187.591 146.5,185C 151.612,181.808 157.278,179.641 163.5,178.5C 171.805,178.953 180.139,179.12 188.5,179C 190.083,180.758 191.75,182.258 193.5,183.5 Z"/></g>
<g><path style="opacity:1" fill="#1b1538" d="M 129.5,168.5 C 129.833,168.5 130.167,168.5 130.5,168.5C 131.167,168.5 131.833,168.5 132.5,168.5C 134.63,170.127 136.63,171.96 138.5,174C 138.167,174.333 137.833,174.667 137.5,175C 138.793,175.49 140.127,175.657 141.5,175.5C 139.302,177.397 136.636,178.397 133.5,178.5C 133.365,182.627 131.365,185.294 127.5,186.5C 127.565,186.062 127.399,185.728 127,185.5C 124.772,187.113 122.272,187.78 119.5,187.5C 119.343,186.127 119.51,184.793 120,183.5C 121.987,182.782 123.821,181.782 125.5,180.5C 124.235,178.132 122.569,177.465 120.5,178.5C 123.178,174.967 126.178,171.634 129.5,168.5 Z"/></g>
<g><path style="opacity:1" fill="#302144" d="M 110.5,179.5 C 109.358,182.259 108.024,184.926 106.5,187.5C 104.743,188.292 103.409,189.625 102.5,191.5C 101.135,192.807 99.8016,192.807 98.5,191.5C 98.9175,190.778 99.5842,190.278 100.5,190C 99.5842,189.722 98.9175,189.222 98.5,188.5C 100.985,187.704 101.651,186.204 100.5,184C 102.3,181.312 103.633,178.479 104.5,175.5C 107.608,175.375 109.608,176.708 110.5,179.5 Z"/></g>
<g><path style="opacity:1" fill="#901833" d="M 84.5,173.5 C 83.8006,178.313 81.634,182.313 78,185.5C 77.2646,189.813 76.7646,194.147 76.5,198.5C 74.2861,204.275 73.2861,210.275 73.5,216.5C 72.7109,216.783 72.0442,217.283 71.5,218C 72.0509,219.398 72.3842,220.732 72.5,222C 71.0437,224.266 70.2104,226.766 70,229.5C 67.9134,229.921 65.7468,229.921 63.5,229.5C 63.3342,224.821 63.5008,220.155 64,215.5C 65.317,214.32 65.4837,212.82 64.5,211C 64.4934,209.188 65.16,207.688 66.5,206.5C 66.24,205.095 65.9066,203.762 65.5,202.5C 65.5,202.167 65.5,201.833 65.5,201.5C 66.1661,198.311 66.8328,194.977 67.5,191.5C 69.1376,190.295 69.4709,188.962 68.5,187.5C 69.8068,184.531 71.4735,181.865 73.5,179.5C 72.0936,182.208 71.4269,184.874 71.5,187.5C 72.0347,189.101 73.0347,189.601 74.5,189C 76.3937,187.921 76.727,186.587 75.5,185C 79.1441,181.479 82.1441,177.646 84.5,173.5 Z"/></g>
<g><path style="opacity:1" fill="#9367ae" d="M 193.5,185.5 C 193.5,186.833 193.5,188.167 193.5,189.5C 190.865,188.167 188.531,186.333 186.5,184C 185.167,183.333 183.833,183.333 182.5,184C 178.564,186.24 174.564,188.24 170.5,190C 173.53,192.014 176.863,193.181 180.5,193.5C 181.749,195.136 183.416,196.303 185.5,197C 188.207,197.395 190.873,197.895 193.5,198.5C 193.5,200.167 193.5,201.833 193.5,203.5C 190.237,202.518 186.903,201.851 183.5,201.5C 180.487,202.356 179.82,204.189 181.5,207C 178.183,207.498 174.85,207.665 171.5,207.5C 171.5,206.5 171.5,205.5 171.5,204.5C 167.555,203.573 164.888,204.906 163.5,208.5C 165.435,209.068 166.768,210.235 167.5,212C 167.095,212.945 166.428,213.612 165.5,214C 162.55,212.533 159.217,211.7 155.5,211.5C 155.167,211.5 154.833,211.5 154.5,211.5C 154.539,210.417 154.873,209.417 155.5,208.5C 159.41,208.219 162.41,206.552 164.5,203.5C 167.881,201.306 171.548,199.973 175.5,199.5C 175.5,197.833 175.5,196.167 175.5,194.5C 172.102,194.18 168.768,194.513 165.5,195.5C 165.167,196.167 164.833,196.833 164.5,197.5C 161.582,198.87 158.582,199.87 155.5,200.5C 154.599,196.759 155.932,194.759 159.5,194.5C 159.5,193.5 159.5,192.5 159.5,191.5C 156.342,192.876 153.009,193.542 149.5,193.5C 149.389,192.883 149.056,192.383 148.5,192C 150.9,191.814 153.234,191.314 155.5,190.5C 157.395,188.955 159.395,187.455 161.5,186C 162.728,184.51 162.728,183.01 161.5,181.5C 164.374,181.451 167.208,181.784 170,182.5C 175.711,180.649 181.545,180.149 187.5,181C 188.337,182.011 188.67,183.178 188.5,184.5C 190.216,184.629 191.883,184.962 193.5,185.5 Z"/></g>
<g><path style="opacity:1" fill="#a25892" d="M 193.5,189.5 C 193.5,190.5 193.5,191.5 193.5,192.5C 191.518,192.005 189.518,191.505 187.5,191C 188.131,189.232 187.298,188.065 185,187.5C 181.805,188.221 180.305,190.221 180.5,193.5C 176.863,193.181 173.53,192.014 170.5,190C 174.564,188.24 178.564,186.24 182.5,184C 183.833,183.333 185.167,183.333 186.5,184C 188.531,186.333 190.865,188.167 193.5,189.5 Z"/></g>
<g><path style="opacity:1" fill="#10020d" d="M 85.5,178.5 C 86.7773,179.694 87.4439,181.36 87.5,183.5C 87.3098,186.352 86.9765,188.852 86.5,191C 87,191.167 87.5,191.333 88,191.5C 89.1357,190.217 90.469,189.217 92,188.5C 94.6089,189.869 96.6089,189.203 98,186.5C 98.4643,187.094 98.631,187.761 98.5,188.5C 98.9175,189.222 99.5842,189.722 100.5,190C 99.5842,190.278 98.9175,190.778 98.5,191.5C 97.8783,192.627 97.045,193.627 96,194.5C 95.944,197.78 95.1107,200.78 93.5,203.5C 94.4431,205.47 93.7764,206.97 91.5,208C 92.0734,210.435 92.4067,212.935 92.5,215.5C 91.7638,217.229 90.4305,218.229 88.5,218.5C 87.6475,216.074 85.9808,215.24 83.5,216C 82.1092,217.65 80.6092,218.15 79,217.5C 78.0201,219.059 77.1867,220.726 76.5,222.5C 75.7864,219.973 75.1197,217.473 74.5,215C 76.736,207.563 78.4026,200.063 79.5,192.5C 81.7295,188.16 83.7295,183.494 85.5,178.5 Z"/></g>
<g><path style="opacity:1" fill="#192c39" d="M 68.5,172.5 C 63.4076,179.987 60.0743,187.987 58.5,196.5C 58.8333,199.833 59.1667,203.167 59.5,206.5C 58.3112,207.429 56.9778,207.762 55.5,207.5C 55.0822,214.79 54.7489,222.123 54.5,229.5C 54.1667,229.5 53.8333,229.5 53.5,229.5C 52.0919,220.531 53.0919,211.364 56.5,202C 55.5536,199.143 55.5536,196.143 56.5,193C 60.9487,182.319 65.7821,171.819 71,161.5C 72.353,160.315 73.5197,158.981 74.5,157.5C 74.8333,157.833 75.1667,158.167 75.5,158.5C 73.1079,163.2 70.7745,167.867 68.5,172.5 Z"/></g>
<g><path style="opacity:1" fill="#62437b" d="M 161.5,181.5 C 162.728,183.01 162.728,184.51 161.5,186C 159.395,187.455 157.395,188.955 155.5,190.5C 153.234,191.314 150.9,191.814 148.5,192C 149.056,192.383 149.389,192.883 149.5,193.5C 147.919,195.142 147.253,197.142 147.5,199.5C 141.095,200.594 138.762,197.927 140.5,191.5C 140.833,191.5 141.167,191.5 141.5,191.5C 142.766,190.91 144.099,190.41 145.5,190C 147.418,187.072 150.085,185.406 153.5,185C 155.164,181.864 157.831,180.697 161.5,181.5 Z"/></g>
<g><path style="opacity:1" fill="#d55590" d="M 193.5,192.5 C 193.5,194.5 193.5,196.5 193.5,198.5C 190.873,197.895 188.207,197.395 185.5,197C 183.416,196.303 181.749,195.136 180.5,193.5C 180.305,190.221 181.805,188.221 185,187.5C 187.298,188.065 188.131,189.232 187.5,191C 189.518,191.505 191.518,192.005 193.5,192.5 Z"/></g>
<g><path style="opacity:1" fill="#471834" d="M 111.5,186.5 C 110.361,189.425 109.861,192.425 110,195.5C 111.044,196.623 111.71,197.956 112,199.5C 112.5,199 113,198.5 113.5,198C 111.622,196.007 111.288,193.841 112.5,191.5C 118.862,195.518 120.529,200.852 117.5,207.5C 116.842,206.602 116.176,205.602 115.5,204.5C 114.914,204.709 114.414,205.043 114,205.5C 113.818,208.226 113.318,210.893 112.5,213.5C 110.625,214.409 109.292,215.743 108.5,217.5C 108.167,217.5 107.833,217.5 107.5,217.5C 106.833,217.5 106.167,217.5 105.5,217.5C 106.438,215.674 107.438,213.841 108.5,212C 105.343,207.628 106.01,203.961 110.5,201C 109.91,199.491 109.244,197.991 108.5,196.5C 105,201.5 101.5,206.5 98,211.5C 98.3554,212.959 98.1888,214.293 97.5,215.5C 97.6107,216.117 97.944,216.617 98.5,217C 96.8988,217.273 95.3988,217.773 94,218.5C 92.9614,217.756 92.4614,216.756 92.5,215.5C 92.4067,212.935 92.0734,210.435 91.5,208C 93.7764,206.97 94.4431,205.47 93.5,203.5C 95.1107,200.78 95.944,197.78 96,194.5C 97.045,193.627 97.8783,192.627 98.5,191.5C 99.8016,192.807 101.135,192.807 102.5,191.5C 103.409,189.625 104.743,188.292 106.5,187.5C 105.883,189.68 104.883,191.68 103.5,193.5C 103.833,194.5 104.5,195.167 105.5,195.5C 107.488,194.711 107.821,193.545 106.5,192C 108.402,190.27 110.069,188.437 111.5,186.5 Z"/></g>
<g><path style="opacity:1" fill="#232346" d="M 127.5,186.5 C 127.5,188.167 127.5,189.833 127.5,191.5C 125.436,196.353 122.936,201.02 120,205.5C 118.374,211.556 117.208,217.556 116.5,223.5C 116.392,218.13 116.725,212.797 117.5,207.5C 120.529,200.852 118.862,195.518 112.5,191.5C 111.288,193.841 111.622,196.007 113.5,198C 113,198.5 112.5,199 112,199.5C 111.71,197.956 111.044,196.623 110,195.5C 109.861,192.425 110.361,189.425 111.5,186.5C 112.326,184.736 113.659,183.402 115.5,182.5C 116.539,180.469 118.205,179.136 120.5,178.5C 122.569,177.465 124.235,178.132 125.5,180.5C 123.821,181.782 121.987,182.782 120,183.5C 119.51,184.793 119.343,186.127 119.5,187.5C 122.272,187.78 124.772,187.113 127,185.5C 127.399,185.728 127.565,186.062 127.5,186.5 Z"/></g>
<g><path style="opacity:1" fill="#d15995" d="M 183.5,201.5 C 186.903,201.851 190.237,202.518 193.5,203.5C 193.5,204.833 193.5,206.167 193.5,207.5C 190.389,206.056 187.056,205.222 183.5,205C 182.316,203.855 182.316,202.688 183.5,201.5 Z"/></g>
<g><path style="opacity:1" fill="#357dc0" d="M 191.5,171.5 C 192.167,171.5 192.833,171.5 193.5,171.5C 193.5,175.5 193.5,179.5 193.5,183.5C 191.75,182.258 190.083,180.758 188.5,179C 180.139,179.12 171.805,178.953 163.5,178.5C 157.278,179.641 151.612,181.808 146.5,185C 145.225,187.591 143.558,189.758 141.5,191.5C 141.167,191.5 140.833,191.5 140.5,191.5C 140.167,191.5 139.833,191.5 139.5,191.5C 137.102,193.548 134.436,195.381 131.5,197C 132.634,198.016 132.301,198.683 130.5,199C 131.308,199.308 131.975,199.808 132.5,200.5C 130.331,203.495 128.831,206.829 128,210.5C 127.667,210.833 127.333,211.167 127,211.5C 126.581,210.328 125.915,209.328 125,208.5C 124.55,210.519 123.717,212.352 122.5,214C 122.728,214.399 123.062,214.565 123.5,214.5C 121.683,219.296 119.683,223.963 117.5,228.5C 117.768,226.901 117.434,225.568 116.5,224.5C 116.5,224.167 116.5,223.833 116.5,223.5C 117.208,217.556 118.374,211.556 120,205.5C 122.936,201.02 125.436,196.353 127.5,191.5C 132.274,186.561 137.274,181.728 142.5,177C 148.101,174.409 153.767,171.909 159.5,169.5C 164.802,168.337 170.136,168.171 175.5,169C 180.723,170.378 186.056,171.211 191.5,171.5 Z"/></g>
<g><path style="opacity:1" fill="#3564a4" d="M 139.5,191.5 C 136.402,196.446 134.069,201.779 132.5,207.5C 135.167,207.5 137.833,207.5 140.5,207.5C 140.461,208.583 140.127,209.583 139.5,210.5C 136.64,211.18 134.14,212.513 132,214.5C 131.681,218.239 132.181,221.906 133.5,225.5C 133.457,226.416 133.124,227.083 132.5,227.5C 131.377,223.401 130.043,219.401 128.5,215.5C 127.52,218.086 127.187,220.753 127.5,223.5C 126.5,223.5 125.5,223.5 124.5,223.5C 124.827,221.512 125.16,219.512 125.5,217.5C 125.36,215.97 124.693,214.97 123.5,214.5C 123.062,214.565 122.728,214.399 122.5,214C 123.717,212.352 124.55,210.519 125,208.5C 125.915,209.328 126.581,210.328 127,211.5C 127.333,211.167 127.667,210.833 128,210.5C 128.831,206.829 130.331,203.495 132.5,200.5C 131.975,199.808 131.308,199.308 130.5,199C 132.301,198.683 132.634,198.016 131.5,197C 134.436,195.381 137.102,193.548 139.5,191.5 Z"/></g>
<g><path style="opacity:1" fill="#a96caf" d="M 183.5,201.5 C 182.316,202.688 182.316,203.855 183.5,205C 187.056,205.222 190.389,206.056 193.5,207.5C 193.5,212.167 193.5,216.833 193.5,221.5C 192.508,221.672 191.842,221.338 191.5,220.5C 191.5,217.833 191.5,215.167 191.5,212.5C 185.202,210.761 178.869,210.428 172.5,211.5C 170.981,214.044 169.648,216.711 168.5,219.5C 163.001,220.834 160.334,224.334 160.5,230C 161.008,231.893 162.008,233.393 163.5,234.5C 162.417,234.461 161.417,234.127 160.5,233.5C 159.671,228.198 159.171,222.864 159,217.5C 157.431,216.062 155.931,214.562 154.5,213C 155.056,212.617 155.389,212.117 155.5,211.5C 159.217,211.7 162.55,212.533 165.5,214C 166.428,213.612 167.095,212.945 167.5,212C 166.768,210.235 165.435,209.068 163.5,208.5C 164.888,204.906 167.555,203.573 171.5,204.5C 171.5,205.5 171.5,206.5 171.5,207.5C 174.85,207.665 178.183,207.498 181.5,207C 179.82,204.189 180.487,202.356 183.5,201.5 Z"/></g>
<g><path style="opacity:1" fill="#1d0a1f" d="M 105.5,217.5 C 103.929,218.197 102.429,218.53 101,218.5C 100.241,216.937 99.0744,215.937 97.5,215.5C 98.1888,214.293 98.3554,212.959 98,211.5C 101.5,206.5 105,201.5 108.5,196.5C 109.244,197.991 109.91,199.491 110.5,201C 106.01,203.961 105.343,207.628 108.5,212C 107.438,213.841 106.438,215.674 105.5,217.5 Z"/></g>
<g><path style="opacity:1" fill="#dec1e7" d="M 191.5,220.5 C 191.842,221.338 192.508,221.672 193.5,221.5C 193.5,223.833 193.5,226.167 193.5,228.5C 192.833,229.5 192.167,230.5 191.5,231.5C 190.386,227.896 189.052,224.396 187.5,221C 185.382,220.365 183.382,219.531 181.5,218.5C 179.244,219.114 177.244,220.114 175.5,221.5C 175.539,220.417 175.873,219.417 176.5,218.5C 176,218.167 175.5,217.833 175,217.5C 173.357,218.315 171.857,219.315 170.5,220.5C 171.085,218.078 172.585,216.411 175,215.5C 175.483,214.552 175.649,213.552 175.5,212.5C 179.227,213.372 182.893,214.539 186.5,216C 188.062,217.634 189.729,219.134 191.5,220.5 Z"/></g>
<g><path style="opacity:1" fill="#4476bf" d="M 140.5,207.5 C 141.5,207.5 142.5,207.5 143.5,207.5C 143.665,211.182 143.499,214.848 143,218.5C 140.957,219.579 139.624,221.246 139,223.5C 138.391,228.861 138.558,234.195 139.5,239.5C 138.5,239.5 137.5,239.5 136.5,239.5C 136.167,239.5 135.833,239.5 135.5,239.5C 136.056,235.334 135.056,231.668 132.5,228.5C 132.5,228.167 132.5,227.833 132.5,227.5C 133.124,227.083 133.457,226.416 133.5,225.5C 132.181,221.906 131.681,218.239 132,214.5C 134.14,212.513 136.64,211.18 139.5,210.5C 140.127,209.583 140.461,208.583 140.5,207.5 Z"/></g>
<g><path style="opacity:1" fill="#3c0916" d="M 65.5,202.5 C 65.9066,203.762 66.24,205.095 66.5,206.5C 65.16,207.688 64.4934,209.188 64.5,211C 65.4837,212.82 65.317,214.32 64,215.5C 63.5008,220.155 63.3342,224.821 63.5,229.5C 63.1667,229.5 62.8333,229.5 62.5,229.5C 62.2877,221.273 62.2877,213.106 62.5,205C 63.6906,204.302 64.6906,203.469 65.5,202.5 Z"/></g>
<g><path style="opacity:1" fill="#23030f" d="M 79.5,192.5 C 78.4026,200.063 76.736,207.563 74.5,215C 75.1197,217.473 75.7864,219.973 76.5,222.5C 77.1867,220.726 78.0201,219.059 79,217.5C 80.6092,218.15 82.1092,217.65 83.5,216C 85.9808,215.24 87.6475,216.074 88.5,218.5C 88.5654,218.938 88.3988,219.272 88,219.5C 87.1627,217.993 85.9961,217.493 84.5,218C 82.8446,219.444 82.178,221.278 82.5,223.5C 84.9892,223.298 87.3225,223.798 89.5,225C 87.273,225.704 86.9397,226.871 88.5,228.5C 87.661,230.983 88.661,232.816 91.5,234C 90.6919,234.308 90.0253,234.808 89.5,235.5C 90.6651,236.584 91.9984,237.417 93.5,238C 92.5842,238.278 91.9175,238.778 91.5,239.5C 90.5,239.5 89.5,239.5 88.5,239.5C 86.0784,236.584 84.4117,233.251 83.5,229.5C 81.8008,229.66 80.1341,229.494 78.5,229C 78.8333,228.667 79.1667,228.333 79.5,228C 78.5,227.667 77.5,227.333 76.5,227C 77.8398,224.851 77.1731,223.684 74.5,223.5C 73.9117,221.274 73.5784,218.941 73.5,216.5C 73.2861,210.275 74.2861,204.275 76.5,198.5C 77.2028,196.371 78.2028,194.371 79.5,192.5 Z"/></g>
<g><path style="opacity:1" fill="#360517" d="M 92.5,215.5 C 92.4614,216.756 92.9614,217.756 94,218.5C 95.3988,217.773 96.8988,217.273 98.5,217C 97.944,216.617 97.6107,216.117 97.5,215.5C 99.0744,215.937 100.241,216.937 101,218.5C 102.429,218.53 103.929,218.197 105.5,217.5C 106.167,217.5 106.833,217.5 107.5,217.5C 106.123,220.162 105.123,222.996 104.5,226C 103.991,227.169 103.158,228.002 102,228.5C 97.1831,227.457 92.6831,227.457 88.5,228.5C 86.9397,226.871 87.273,225.704 89.5,225C 87.3225,223.798 84.9892,223.298 82.5,223.5C 82.178,221.278 82.8446,219.444 84.5,218C 85.9961,217.493 87.1627,217.993 88,219.5C 88.3988,219.272 88.5654,218.938 88.5,218.5C 90.4305,218.229 91.7638,217.229 92.5,215.5 Z"/></g>
<g><path style="opacity:1" fill="#a2558f" d="M 154.5,211.5 C 154.833,211.5 155.167,211.5 155.5,211.5C 155.389,212.117 155.056,212.617 154.5,213C 155.931,214.562 157.431,216.062 159,217.5C 159.171,222.864 159.671,228.198 160.5,233.5C 161.417,234.127 162.417,234.461 163.5,234.5C 164.822,234.67 165.989,234.337 167,233.5C 167.377,234.942 168.21,235.942 169.5,236.5C 169.5,237.5 169.5,238.5 169.5,239.5C 167.521,237.832 165.188,237.166 162.5,237.5C 158.857,232.864 157.191,233.531 157.5,239.5C 156.167,239.5 154.833,239.5 153.5,239.5C 151.885,235.897 149.885,232.563 147.5,229.5C 146.16,230.688 145.493,232.188 145.5,234C 145.943,235.825 146.277,237.658 146.5,239.5C 145.5,239.5 144.5,239.5 143.5,239.5C 143.5,240.833 143.5,242.167 143.5,243.5C 142.504,243.586 141.671,243.252 141,242.5C 140.172,237.798 140.338,233.131 141.5,228.5C 143.694,228.642 146.027,228.309 148.5,227.5C 150.566,223.122 151.732,218.455 152,213.5C 152.708,212.619 153.542,211.953 154.5,211.5 Z"/></g>
<g><path style="opacity:1" fill="#f9f3fa" d="M 175.5,221.5 C 175.33,222.822 175.663,223.989 176.5,225C 178.568,225.687 180.568,225.52 182.5,224.5C 183.429,225.689 183.762,227.022 183.5,228.5C 180.438,228.844 177.438,229.511 174.5,230.5C 174.863,231.183 175.196,231.85 175.5,232.5C 174.341,233.456 173.174,234.456 172,235.5C 171.5,235.167 171,234.833 170.5,234.5C 169.561,230.235 169.228,225.902 169.5,221.5C 169.5,220.833 169.833,220.5 170.5,220.5C 171.857,219.315 173.357,218.315 175,217.5C 175.5,217.833 176,218.167 176.5,218.5C 175.873,219.417 175.539,220.417 175.5,221.5 Z"/></g>
<g><path style="opacity:1" fill="#ead3ed" d="M 169.5,221.5 C 169.228,225.902 169.561,230.235 170.5,234.5C 171,234.833 171.5,235.167 172,235.5C 173.174,234.456 174.341,233.456 175.5,232.5C 174.888,235.697 172.888,237.031 169.5,236.5C 168.601,233.4 167.934,230.233 167.5,227C 167.393,224.779 168.06,222.946 169.5,221.5 Z"/></g>
<g><path style="opacity:1" fill="#b291bd" d="M 191.5,231.5 C 190.448,231.649 189.448,231.483 188.5,231C 189.517,229.951 189.684,228.784 189,227.5C 188,228.833 187,228.833 186,227.5C 183.984,229.745 181.651,231.745 179,233.5C 178.261,235.221 177.427,236.887 176.5,238.5C 174.775,236.908 173.775,237.242 173.5,239.5C 172.833,239.5 172.167,239.5 171.5,239.5C 170.833,239.5 170.167,239.5 169.5,239.5C 169.5,238.5 169.5,237.5 169.5,236.5C 172.888,237.031 174.888,235.697 175.5,232.5C 175.196,231.85 174.863,231.183 174.5,230.5C 177.438,229.511 180.438,228.844 183.5,228.5C 183.762,227.022 183.429,225.689 182.5,224.5C 180.568,225.52 178.568,225.687 176.5,225C 175.663,223.989 175.33,222.822 175.5,221.5C 177.244,220.114 179.244,219.114 181.5,218.5C 183.382,219.531 185.382,220.365 187.5,221C 189.052,224.396 190.386,227.896 191.5,231.5 Z"/></g>
<g><path style="opacity:1" fill="#a885bf" d="M 191.5,220.5 C 189.729,219.134 188.062,217.634 186.5,216C 182.893,214.539 179.227,213.372 175.5,212.5C 175.649,213.552 175.483,214.552 175,215.5C 172.585,216.411 171.085,218.078 170.5,220.5C 169.833,220.5 169.5,220.833 169.5,221.5C 168.06,222.946 167.393,224.779 167.5,227C 167.934,230.233 168.601,233.4 169.5,236.5C 168.21,235.942 167.377,234.942 167,233.5C 165.989,234.337 164.822,234.67 163.5,234.5C 162.008,233.393 161.008,231.893 160.5,230C 160.334,224.334 163.001,220.834 168.5,219.5C 169.648,216.711 170.981,214.044 172.5,211.5C 178.869,210.428 185.202,210.761 191.5,212.5C 191.5,215.167 191.5,217.833 191.5,220.5 Z"/></g>
<g><path style="opacity:1" fill="#6d6d6d" d="M 9.5,228.5 C 12.82,229.175 15.9866,229.175 19,228.5C 19.6924,229.025 20.1924,229.692 20.5,230.5C 16.5084,231.347 12.6751,231.68 9,231.5C 8.53042,230.423 8.69708,229.423 9.5,228.5 Z"/></g>
<g><path style="opacity:1" fill="#616161" d="M 24.5,228.5 C 26.1947,229.011 27.8614,229.678 29.5,230.5C 26.8333,231.833 24.1667,231.833 21.5,230.5C 22.6016,229.824 23.6016,229.158 24.5,228.5 Z"/></g>
<g><path style="opacity:1" fill="#777777" d="M 33.5,229.5 C 35.604,229.201 37.604,229.534 39.5,230.5C 38.5,230.833 37.5,231.167 36.5,231.5C 34.9704,231.36 33.9704,230.693 33.5,229.5 Z"/></g>
<g><path style="opacity:1" fill="#6c6d6f" d="M 53.5,229.5 C 53.8333,229.5 54.1667,229.5 54.5,229.5C 58.5,230.167 58.5,230.833 54.5,231.5C 53.8333,231.5 53.1667,231.5 52.5,231.5C 48.4454,231.824 44.4454,231.491 40.5,230.5C 44.7828,229.508 49.1161,229.174 53.5,229.5 Z"/></g>
<g><path style="opacity:1" fill="#545fac" d="M 123.5,214.5 C 124.693,214.97 125.36,215.97 125.5,217.5C 125.16,219.512 124.827,221.512 124.5,223.5C 125.5,223.5 126.5,223.5 127.5,223.5C 127.187,220.753 127.52,218.086 128.5,215.5C 130.043,219.401 131.377,223.401 132.5,227.5C 132.5,227.833 132.5,228.167 132.5,228.5C 129.171,232.171 127.505,231.837 127.5,227.5C 123.849,227.162 122.183,228.828 122.5,232.5C 121.711,232.783 121.044,233.283 120.5,234C 121.138,235.707 121.138,237.54 120.5,239.5C 118.611,236.308 117.611,232.642 117.5,228.5C 119.683,223.963 121.683,219.296 123.5,214.5 Z"/></g>
<g><path style="opacity:1" fill="#1e3549" d="M 52.5,231.5 C 53.1667,231.5 53.8333,231.5 54.5,231.5C 55.221,239.379 56.221,247.212 57.5,255C 56.552,255.483 55.552,255.649 54.5,255.5C 54.81,252.287 54.4767,249.287 53.5,246.5C 52.6822,241.353 52.3489,236.353 52.5,231.5 Z"/></g>
<g><path style="opacity:1" fill="#4a0827" d="M 107.5,217.5 C 107.833,217.5 108.167,217.5 108.5,217.5C 109.167,217.5 109.833,217.5 110.5,217.5C 109.553,220.22 109.887,222.886 111.5,225.5C 109.202,227.924 107.536,230.757 106.5,234C 107.815,235.395 107.481,236.395 105.5,237C 106.756,237.417 107.423,238.25 107.5,239.5C 102.167,239.5 96.8333,239.5 91.5,239.5C 91.9175,238.778 92.5842,238.278 93.5,238C 91.9984,237.417 90.6651,236.584 89.5,235.5C 90.0253,234.808 90.6919,234.308 91.5,234C 88.661,232.816 87.661,230.983 88.5,228.5C 92.6831,227.457 97.1831,227.457 102,228.5C 103.158,228.002 103.991,227.169 104.5,226C 105.123,222.996 106.123,220.162 107.5,217.5 Z"/></g>
<g><path style="opacity:1" fill="#5d0f27" d="M 73.5,216.5 C 73.5784,218.941 73.9117,221.274 74.5,223.5C 72.9743,224.105 71.9743,225.271 71.5,227C 71.9834,229.472 72.3167,231.972 72.5,234.5C 71.0687,235.78 70.4021,237.447 70.5,239.5C 66.6021,239.625 65.1021,237.958 66,234.5C 65.2411,232.937 64.0744,231.937 62.5,231.5C 62.8333,230.833 63.1667,230.167 63.5,229.5C 65.7468,229.921 67.9134,229.921 70,229.5C 70.2104,226.766 71.0437,224.266 72.5,222C 72.3842,220.732 72.0509,219.398 71.5,218C 72.0442,217.283 72.7109,216.783 73.5,216.5 Z"/></g>
<g><path style="opacity:1" fill="#9a999a" d="M 26.5,234.5 C 27.2216,234.918 27.7216,235.584 28,236.5C 31.3333,236.5 34.6667,236.5 38,236.5C 40.9832,234.496 44.1499,234.496 47.5,236.5C 51.0891,234.433 52.2557,235.433 51,239.5C 50.6924,238.692 50.1924,238.025 49.5,237.5C 48.3044,237.846 48.3044,238.346 49.5,239C 47.6667,239.167 45.8333,239.333 44,239.5C 36.4411,238.619 28.6077,238.619 20.5,239.5C 20.5,238.167 20.5,236.833 20.5,235.5C 21.8221,235.33 22.9887,235.663 24,236.5C 24.9947,235.934 25.828,235.267 26.5,234.5 Z"/></g>
<g><path style="opacity:1" fill="#7f1b48" d="M 110.5,217.5 C 111.847,218.171 113.014,218.171 114,217.5C 114.572,224.553 115.405,231.553 116.5,238.5C 115.675,239.386 114.675,239.719 113.5,239.5C 111.833,239.5 110.167,239.5 108.5,239.5C 108.167,239.5 107.833,239.5 107.5,239.5C 107.423,238.25 106.756,237.417 105.5,237C 107.481,236.395 107.815,235.395 106.5,234C 107.536,230.757 109.202,227.924 111.5,225.5C 109.887,222.886 109.553,220.22 110.5,217.5 Z"/></g>
<g><path style="opacity:1" fill="#9877b8" d="M 191.5,231.5 C 192.167,230.5 192.833,229.5 193.5,228.5C 193.5,233.167 193.5,237.833 193.5,242.5C 191.856,242.286 190.356,242.62 189,243.5C 187.658,240.424 185.491,240.091 182.5,242.5C 180.721,246.096 181.721,248.596 185.5,250C 184.833,250.333 184.167,250.667 183.5,251C 186.675,250.947 189.342,251.78 191.5,253.5C 187.528,252.892 183.528,252.392 179.5,252C 178.729,249.56 178.562,247.06 179,244.5C 177.11,242.746 175.277,241.08 173.5,239.5C 173.775,237.242 174.775,236.908 176.5,238.5C 177.427,236.887 178.261,235.221 179,233.5C 181.651,231.745 183.984,229.745 186,227.5C 187,228.833 188,228.833 189,227.5C 189.684,228.784 189.517,229.951 188.5,231C 189.448,231.483 190.448,231.649 191.5,231.5 Z"/></g>
<g><path style="opacity:1" fill="#692250" d="M 117.5,207.5 C 116.725,212.797 116.392,218.13 116.5,223.5C 116.5,223.833 116.5,224.167 116.5,224.5C 116.521,232.294 117.521,239.96 119.5,247.5C 120.982,249.483 122.649,251.316 124.5,253C 124.043,253.414 123.709,253.914 123.5,254.5C 125.743,255.474 128.076,255.808 130.5,255.5C 130.443,256.609 130.11,257.609 129.5,258.5C 127.5,258.5 125.5,258.5 123.5,258.5C 123.288,256.616 122.288,255.283 120.5,254.5C 121.46,253.188 121.294,251.854 120,250.5C 118.333,249.5 117,248.167 116,246.5C 115.282,247.451 114.449,247.617 113.5,247C 113.737,244.712 113.737,242.212 113.5,239.5C 114.675,239.719 115.675,239.386 116.5,238.5C 115.405,231.553 114.572,224.553 114,217.5C 113.014,218.171 111.847,218.171 110.5,217.5C 109.833,217.5 109.167,217.5 108.5,217.5C 109.292,215.743 110.625,214.409 112.5,213.5C 113.318,210.893 113.818,208.226 114,205.5C 114.414,205.043 114.914,204.709 115.5,204.5C 116.176,205.602 116.842,206.602 117.5,207.5 Z"/></g>
<g><path style="opacity:1" fill="#e76ba3" d="M 162.5,237.5 C 165.188,237.166 167.521,237.832 169.5,239.5C 170.167,239.5 170.833,239.5 171.5,239.5C 171.544,242.316 172.544,244.649 174.5,246.5C 175.489,250.107 175.823,253.774 175.5,257.5C 179.277,256.006 183.277,255.339 187.5,255.5C 187.5,256.5 187.5,257.5 187.5,258.5C 182.167,258.5 176.833,258.5 171.5,258.5C 170.91,253.822 170.577,249.155 170.5,244.5C 168.39,241.381 165.723,239.048 162.5,237.5 Z"/></g>
<g><path style="opacity:1" fill="#8163ab" d="M 132.5,228.5 C 135.056,231.668 136.056,235.334 135.5,239.5C 135.167,239.5 134.833,239.5 134.5,239.5C 133.167,239.5 131.833,239.5 130.5,239.5C 130.5,240.833 130.5,242.167 130.5,243.5C 130.5,245.5 130.5,247.5 130.5,249.5C 130.167,249.5 129.833,249.5 129.5,249.5C 127.362,249.297 125.695,248.297 124.5,246.5C 123.57,241.863 122.903,237.196 122.5,232.5C 122.183,228.828 123.849,227.162 127.5,227.5C 127.505,231.837 129.171,232.171 132.5,228.5 Z"/></g>
<g><path style="opacity:1" fill="#655fa4" d="M 139.5,191.5 C 139.833,191.5 140.167,191.5 140.5,191.5C 138.762,197.927 141.095,200.594 147.5,199.5C 147.253,197.142 147.919,195.142 149.5,193.5C 153.009,193.542 156.342,192.876 159.5,191.5C 159.5,192.5 159.5,193.5 159.5,194.5C 155.932,194.759 154.599,196.759 155.5,200.5C 158.582,199.87 161.582,198.87 164.5,197.5C 164.833,196.833 165.167,196.167 165.5,195.5C 168.768,194.513 172.102,194.18 175.5,194.5C 175.5,196.167 175.5,197.833 175.5,199.5C 171.548,199.973 167.881,201.306 164.5,203.5C 162.41,206.552 159.41,208.219 155.5,208.5C 154.873,209.417 154.539,210.417 154.5,211.5C 153.542,211.953 152.708,212.619 152,213.5C 151.732,218.455 150.566,223.122 148.5,227.5C 146.027,228.309 143.694,228.642 141.5,228.5C 140.338,233.131 140.172,237.798 141,242.5C 141.671,243.252 142.504,243.586 143.5,243.5C 143.5,244.833 143.5,246.167 143.5,247.5C 142.5,247.5 141.5,247.5 140.5,247.5C 139.167,244.833 137.833,242.167 136.5,239.5C 137.5,239.5 138.5,239.5 139.5,239.5C 138.558,234.195 138.391,228.861 139,223.5C 139.624,221.246 140.957,219.579 143,218.5C 143.499,214.848 143.665,211.182 143.5,207.5C 142.5,207.5 141.5,207.5 140.5,207.5C 137.833,207.5 135.167,207.5 132.5,207.5C 134.069,201.779 136.402,196.446 139.5,191.5 Z"/></g>
<g><path style="opacity:1" fill="#5b548e" d="M 122.5,232.5 C 122.903,237.196 123.57,241.863 124.5,246.5C 125.695,248.297 127.362,249.297 129.5,249.5C 129.25,250.922 128.417,251.922 127,252.5C 121.426,249.363 119.26,245.03 120.5,239.5C 121.138,237.54 121.138,235.707 120.5,234C 121.044,233.283 121.711,232.783 122.5,232.5 Z"/></g>
<g><path style="opacity:1" fill="#bc4d8c" d="M 153.5,239.5 C 151.219,239.077 149.552,239.744 148.5,241.5C 147.133,240.147 146.133,240.481 145.5,242.5C 147.74,245.45 149.073,248.784 149.5,252.5C 147.456,250.781 145.456,249.114 143.5,247.5C 143.5,246.167 143.5,244.833 143.5,243.5C 143.5,242.167 143.5,240.833 143.5,239.5C 144.5,239.5 145.5,239.5 146.5,239.5C 146.277,237.658 145.943,235.825 145.5,234C 145.493,232.188 146.16,230.688 147.5,229.5C 149.885,232.563 151.885,235.897 153.5,239.5 Z"/></g>
<g><path style="opacity:1" fill="#715faa" d="M 193.5,242.5 C 193.5,247.833 193.5,253.167 193.5,258.5C 191.833,258.5 190.167,258.5 188.5,258.5C 188.5,257.5 188.5,256.5 188.5,255.5C 190.179,255.715 191.179,255.048 191.5,253.5C 189.342,251.78 186.675,250.947 183.5,251C 184.167,250.667 184.833,250.333 185.5,250C 181.721,248.596 180.721,246.096 182.5,242.5C 185.491,240.091 187.658,240.424 189,243.5C 190.356,242.62 191.856,242.286 193.5,242.5 Z"/></g>
<g><path style="opacity:1" fill="#571437" d="M 108.5,239.5 C 110.167,239.5 111.833,239.5 113.5,239.5C 113.737,242.212 113.737,244.712 113.5,247C 114.449,247.617 115.282,247.451 116,246.5C 117,248.167 118.333,249.5 120,250.5C 121.294,251.854 121.46,253.188 120.5,254.5C 122.288,255.283 123.288,256.616 123.5,258.5C 119.5,258.5 115.5,258.5 111.5,258.5C 110.316,255.296 108.983,252.129 107.5,249C 108.256,245.875 108.589,242.709 108.5,239.5 Z"/></g>
<g><path style="opacity:1" fill="#e2336e" d="M 153.5,239.5 C 155.398,241.722 157.231,244.055 159,246.5C 159.844,248.463 159.344,249.796 157.5,250.5C 154.263,247.651 151.263,244.651 148.5,241.5C 149.552,239.744 151.219,239.077 153.5,239.5 Z"/></g>
<g><path style="opacity:1" fill="#f35e8d" d="M 162.5,237.5 C 165.723,239.048 168.39,241.381 170.5,244.5C 170.577,249.155 170.91,253.822 171.5,258.5C 168.833,258.5 166.167,258.5 163.5,258.5C 163.5,257.5 163.5,256.5 163.5,255.5C 160.042,255.586 158.042,253.919 157.5,250.5C 159.344,249.796 159.844,248.463 159,246.5C 157.231,244.055 155.398,241.722 153.5,239.5C 154.833,239.5 156.167,239.5 157.5,239.5C 157.191,233.531 158.857,232.864 162.5,237.5 Z"/></g>
<g><path style="opacity:1" fill="#dc6da6" d="M 134.5,239.5 C 134.402,241.553 135.069,243.22 136.5,244.5C 136.433,246.401 136.767,248.234 137.5,250C 135.844,252.925 134.011,253.092 132,250.5C 131.814,247.964 131.314,245.631 130.5,243.5C 130.5,242.167 130.5,240.833 130.5,239.5C 131.833,239.5 133.167,239.5 134.5,239.5 Z"/></g>
<g><path style="opacity:1" fill="#d678ae" d="M 148.5,241.5 C 151.263,244.651 154.263,247.651 157.5,250.5C 158.042,253.919 160.042,255.586 163.5,255.5C 163.5,256.5 163.5,257.5 163.5,258.5C 159.833,258.5 156.167,258.5 152.5,258.5C 151.956,256.284 150.956,254.284 149.5,252.5C 149.073,248.784 147.74,245.45 145.5,242.5C 146.133,240.481 147.133,240.147 148.5,241.5 Z"/></g>
<g><path style="opacity:1" fill="#21071a" d="M 88.5,239.5 C 89.5,239.5 90.5,239.5 91.5,239.5C 96.8333,239.5 102.167,239.5 107.5,239.5C 107.833,239.5 108.167,239.5 108.5,239.5C 108.589,242.709 108.256,245.875 107.5,249C 108.983,252.129 110.316,255.296 111.5,258.5C 106.5,258.5 101.5,258.5 96.5,258.5C 94.8432,254.13 95.1765,249.964 97.5,246C 96.2845,243.904 95.4512,244.071 95,246.5C 92.8077,244.051 90.641,241.718 88.5,239.5 Z"/></g>
<g><path style="opacity:1" fill="#674277" d="M 116.5,224.5 C 117.434,225.568 117.768,226.901 117.5,228.5C 117.611,232.642 118.611,236.308 120.5,239.5C 119.26,245.03 121.426,249.363 127,252.5C 128.417,251.922 129.25,250.922 129.5,249.5C 129.833,249.5 130.167,249.5 130.5,249.5C 130.5,251.5 130.5,253.5 130.5,255.5C 128.076,255.808 125.743,255.474 123.5,254.5C 123.709,253.914 124.043,253.414 124.5,253C 122.649,251.316 120.982,249.483 119.5,247.5C 117.521,239.96 116.521,232.294 116.5,224.5 Z"/></g>
<g><path style="opacity:1" fill="#0f030d" d="M 68.5,172.5 C 67.6051,175.738 67.6051,178.905 68.5,182C 67.8905,184.058 66.8905,184.891 65.5,184.5C 65.6097,186.098 65.943,187.765 66.5,189.5C 66.0233,190.478 65.3567,191.311 64.5,192C 65.3739,195.374 65.7072,198.541 65.5,201.5C 65.5,201.833 65.5,202.167 65.5,202.5C 64.6906,203.469 63.6906,204.302 62.5,205C 62.2877,213.106 62.2877,221.273 62.5,229.5C 57.1667,230.167 57.1667,230.833 62.5,231.5C 62.5878,236.536 63.0878,241.536 64,246.5C 64.4652,247.931 65.2986,249.097 66.5,250C 66.1119,251.808 66.1119,253.475 66.5,255C 67.8333,255.667 69.1667,255.667 70.5,255C 68.8326,250.503 69.8326,245.836 73.5,241C 73.2809,238.705 72.9476,236.539 72.5,234.5C 72.3167,231.972 71.9834,229.472 71.5,227C 71.9743,225.271 72.9743,224.105 74.5,223.5C 77.1731,223.684 77.8398,224.851 76.5,227C 77.5,227.333 78.5,227.667 79.5,228C 79.1667,228.333 78.8333,228.667 78.5,229C 80.1341,229.494 81.8008,229.66 83.5,229.5C 84.4117,233.251 86.0784,236.584 88.5,239.5C 90.641,241.718 92.8077,244.051 95,246.5C 95.4512,244.071 96.2845,243.904 97.5,246C 95.1765,249.964 94.8432,254.13 96.5,258.5C 81.5,258.5 66.5,258.5 51.5,258.5C 52.0062,254.439 52.6729,250.439 53.5,246.5C 54.4767,249.287 54.81,252.287 54.5,255.5C 55.552,255.649 56.552,255.483 57.5,255C 56.221,247.212 55.221,239.379 54.5,231.5C 58.5,230.833 58.5,230.167 54.5,229.5C 54.7489,222.123 55.0822,214.79 55.5,207.5C 56.9778,207.762 58.3112,207.429 59.5,206.5C 59.1667,203.167 58.8333,199.833 58.5,196.5C 60.0743,187.987 63.4076,179.987 68.5,172.5 Z"/></g>
<g><path style="opacity:1" fill="#310917" d="M 62.5,231.5 C 64.0744,231.937 65.2411,232.937 66,234.5C 65.1021,237.958 66.6021,239.625 70.5,239.5C 70.4021,237.447 71.0687,235.78 72.5,234.5C 72.9476,236.539 73.2809,238.705 73.5,241C 69.8326,245.836 68.8326,250.503 70.5,255C 69.1667,255.667 67.8333,255.667 66.5,255C 66.1119,253.475 66.1119,251.808 66.5,250C 65.2986,249.097 64.4652,247.931 64,246.5C 63.0878,241.536 62.5878,236.536 62.5,231.5 Z"/></g>
<g><path style="opacity:1" fill="#776a70" d="M 62.5,229.5 C 62.8333,229.5 63.1667,229.5 63.5,229.5C 63.1667,230.167 62.8333,230.833 62.5,231.5C 57.1667,230.833 57.1667,230.167 62.5,229.5 Z"/></g>
<g><path style="opacity:1" fill="#a57ebb" d="M 134.5,239.5 C 134.833,239.5 135.167,239.5 135.5,239.5C 135.833,239.5 136.167,239.5 136.5,239.5C 137.833,242.167 139.167,244.833 140.5,247.5C 141.5,247.5 142.5,247.5 143.5,247.5C 145.456,249.114 147.456,250.781 149.5,252.5C 150.956,254.284 151.956,256.284 152.5,258.5C 148.833,258.5 145.167,258.5 141.5,258.5C 142.449,256.263 143.116,253.929 143.5,251.5C 142.325,251.719 141.325,251.386 140.5,250.5C 139.5,248.187 138.166,246.187 136.5,244.5C 135.069,243.22 134.402,241.553 134.5,239.5 Z"/></g>
<g><path style="opacity:1" fill="#bd6cac" d="M 171.5,239.5 C 172.167,239.5 172.833,239.5 173.5,239.5C 175.277,241.08 177.11,242.746 179,244.5C 178.562,247.06 178.729,249.56 179.5,252C 183.528,252.392 187.528,252.892 191.5,253.5C 191.179,255.048 190.179,255.715 188.5,255.5C 188.5,256.5 188.5,257.5 188.5,258.5C 188.167,258.5 187.833,258.5 187.5,258.5C 187.5,257.5 187.5,256.5 187.5,255.5C 183.277,255.339 179.277,256.006 175.5,257.5C 175.823,253.774 175.489,250.107 174.5,246.5C 172.544,244.649 171.544,242.316 171.5,239.5 Z"/></g>
<g><path style="opacity:1" fill="#b76da9" d="M 130.5,243.5 C 131.314,245.631 131.814,247.964 132,250.5C 134.011,253.092 135.844,252.925 137.5,250C 136.767,248.234 136.433,246.401 136.5,244.5C 138.166,246.187 139.5,248.187 140.5,250.5C 141.325,251.386 142.325,251.719 143.5,251.5C 143.116,253.929 142.449,256.263 141.5,258.5C 137.5,258.5 133.5,258.5 129.5,258.5C 130.11,257.609 130.443,256.609 130.5,255.5C 130.5,253.5 130.5,251.5 130.5,249.5C 130.5,247.5 130.5,245.5 130.5,243.5 Z"/></g>
</svg>
