<?xml version="1.0" standalone="no"?>
<!DOCTYPE svg PUBLIC "-//W3C//DTD SVG 20010904//EN"
 "http://www.w3.org/TR/2001/REC-SVG-20010904/DTD/svg10.dtd">
<svg version="1.0" xmlns="http://www.w3.org/2000/svg"
 width="176.000000pt" height="220.000000pt" viewBox="0 0 176.000000 220.000000"
 preserveAspectRatio="xMidYMid meet">

<g transform="translate(0.000000,220.000000) scale(0.100000,-0.100000)"
fill="#000000" stroke="none">
<path d="M803 2159 c-40 -4 -108 -22 -152 -39 -350 -135 -532 -518 -412 -868
40 -115 84 -184 171 -272 196 -195 488 -253 753 -149 244 97 427 369 427 638
0 365 -283 668 -650 694 -36 3 -97 1 -137 -4z m35 -71 c2 -11 -3 -18 -12 -18
-23 0 -20 -17 4 -23 20 -5 28 -27 10 -27 -5 0 -10 5 -10 11 0 7 -12 9 -32 6
-18 -3 -27 -3 -20 0 18 7 15 23 -5 24 -10 1 -5 4 11 8 38 8 50 36 12 29 -14
-3 -26 -1 -26 4 0 18 65 4 68 -14z m172 7 c10 -13 15 -13 21 -3 4 7 11 10 14
7 9 -9 -6 -89 -16 -89 -5 0 -7 11 -3 24 5 22 3 24 -27 23 -25 -2 -34 3 -37 17
-2 10 2 22 10 27 18 12 24 11 38 -6z m-362 -74 c25 -44 28 -58 9 -43 -8 7 -18
6 -31 -4 -23 -17 -40 -18 -31 -3 4 6 -1 16 -11 23 -20 15 -13 46 11 46 14 0
19 -11 16 -37 -1 -7 5 -13 14 -13 19 0 19 4 0 40 -23 45 -2 36 23 -9z m532 2
c-17 -12 -19 -17 -8 -30 11 -13 15 -11 36 13 16 19 22 23 18 10 -5 -16 -4 -17
9 -6 21 17 19 6 -7 -40 -24 -42 -40 -47 -47 -14 -2 10 -10 23 -18 29 -12 9
-12 16 -2 37 7 16 17 24 26 21 11 -4 9 -9 -7 -20z m-50 -103 c0 -23 9 -35 44
-59 99 -69 174 -187 197 -314 16 -86 0 -197 -40 -282 -30 -66 -113 -162 -167
-195 -26 -17 -34 -28 -34 -51 l0 -29 -217 2 c-209 3 -218 4 -221 23 -2 11 -31
38 -65 60 -72 48 -144 137 -179 222 -20 50 -23 75 -23 178 1 113 3 124 31 185
43 91 106 166 175 209 43 26 59 42 59 59 l0 22 220 0 220 0 0 -30z m-661 -4
c8 -10 9 -16 1 -21 -6 -3 -7 -11 -4 -17 4 -7 9 -6 14 2 8 14 30 5 30 -11 0 -6
-5 -7 -11 -4 -5 4 -20 -1 -31 -12 -12 -10 -18 -13 -15 -6 4 6 3 14 -2 18 -5 3
-14 -3 -20 -12 -6 -10 -11 -13 -11 -7 0 6 9 19 20 29 11 10 20 22 20 27 0 16
-29 7 -44 -14 -9 -12 -16 -19 -16 -15 0 14 35 56 46 57 6 0 17 -6 23 -14z
m904 -16 c5 -21 -24 -37 -45 -24 -7 4 -4 -2 6 -14 l19 -22 24 22 23 21 0 -22
c0 -12 -4 -20 -9 -17 -4 3 -16 -3 -26 -14 -20 -22 -39 -27 -32 -7 2 6 -2 20
-10 29 -13 15 -13 20 3 46 18 32 39 33 47 2z m-1009 -155 c11 -8 17 -17 14
-20 -5 -5 -68 23 -68 31 0 10 36 2 54 -11z m1136 -52 c0 -18 -43 -39 -48 -24
-7 22 -23 11 -16 -11 3 -13 3 -20 -2 -15 -11 10 -34 80 -29 86 3 2 5 -1 5 -8
0 -8 8 -10 23 -6 22 6 22 6 2 -11 -20 -16 -20 -16 4 -9 17 5 21 4 16 -5 -5 -8
-1 -11 11 -8 20 4 20 7 10 48 l-7 25 15 -25 c9 -14 15 -30 16 -37z m-1152 0
c-4 -23 -23 -26 -42 -7 -13 12 -14 19 -5 30 15 18 52 0 47 -23z m50 2 c-11
-24 -38 -35 -38 -15 0 6 7 10 15 10 8 0 15 7 15 15 0 8 4 15 10 15 6 0 5 -10
-2 -25z m-72 -194 c-18 -7 -66 -3 -66 5 0 2 19 4 43 3 30 0 36 -3 23 -8z
m1194 5 c0 -2 -7 -9 -15 -16 -13 -11 -14 -10 -9 4 5 14 24 23 24 12z m-1180
-56 c0 -5 -18 -10 -40 -10 -22 0 -40 5 -40 10 0 6 18 10 40 10 22 0 40 -4 40
-10z m1188 -17 c-10 -2 -26 -2 -35 0 -10 3 -2 5 17 5 19 0 27 -2 18 -5z
m-1222 -38 c-11 -8 -27 -15 -35 -15 -10 1 -7 6 9 15 33 19 50 18 26 0z m1214
5 c11 -8 7 -9 -15 -4 -37 8 -45 14 -19 14 10 0 26 -5 34 -10z m-5 -30 c3 -5
-3 -10 -15 -10 -12 0 -18 5 -15 10 3 6 10 10 15 10 5 0 12 -4 15 -10z m-1207
-39 c-7 -12 -16 -21 -21 -21 -4 0 0 11 9 25 20 30 31 26 12 -4z m1197 -1 c13
-5 14 -9 5 -9 -8 0 -24 4 -35 9 -13 5 -14 9 -5 9 8 0 24 -4 35 -9z m-1181 -55
c-19 -29 -26 -32 -17 -8 4 11 3 14 -5 9 -7 -4 -12 -3 -12 3 0 5 10 12 23 14
12 2 23 5 25 6 1 0 -5 -10 -14 -24z m1174 -20 c-6 -6 -58 8 -58 16 0 4 14 3
31 -3 16 -6 29 -12 27 -13z m-1128 -9 c0 -3 -15 -12 -32 -20 l-33 -16 24 20
c21 19 41 26 41 16z m1109 -32 c14 -12 -19 -1 -35 12 -18 14 -18 14 6 3 14 -6
27 -13 29 -15z m-53 -37 c-20 -7 -31 -6 -39 3 -9 10 -9 11 0 6 7 -4 21 -3 30
3 10 5 22 7 27 3 6 -3 -3 -10 -18 -15z m-1040 -5 c-7 -12 -46 -23 -46 -13 0 9
43 31 49 25 1 -1 0 -7 -3 -12z m46 -73 c-18 -16 -32 -27 -32 -23 0 12 53 64
59 58 3 -3 -9 -18 -27 -35z m975 4 c-10 -9 -57 -10 -57 -1 0 4 14 8 32 8 17 0
28 -3 25 -7z m-917 -73 c0 -16 -4 -30 -8 -30 -5 0 -7 14 -4 30 2 17 6 30 8 30
2 0 4 -13 4 -30z m880 20 c0 -5 -2 -10 -4 -10 -3 0 -8 5 -11 10 -3 6 -1 10 4
10 6 0 11 -4 11 -10z m-25 -28 c-7 -8 -35 7 -35 18 0 6 7 6 20 -2 10 -7 17
-14 15 -16z m-25 -28 c0 -4 -9 1 -20 11 -11 10 -20 23 -20 28 0 6 9 1 20 -11
11 -12 20 -24 20 -28z m-799 -7 c-13 -12 -20 -15 -16 -7 14 26 28 41 33 35 3
-3 -5 -16 -17 -28z m41 -12 c-2 -14 -9 -28 -15 -32 -7 -4 -8 0 -4 11 4 10 7
24 7 32 0 8 4 14 9 14 4 0 6 -11 3 -25z m700 5 c10 -10 14 -21 10 -24 -4 -2
-15 7 -25 20 -21 29 -9 32 15 4z m-29 -20 c9 -11 13 -20 7 -20 -5 0 -14 9 -20
20 -6 11 -9 20 -8 20 2 0 11 -9 21 -20z m-626 -20 c-6 -16 -15 -30 -18 -30 -4
0 -2 14 4 30 6 17 15 30 18 30 4 0 2 -13 -4 -30z m603 9 c16 -30 8 -31 -13 -3
-10 13 -13 24 -8 24 6 0 15 -9 21 -21z m-26 -14 c3 -8 1 -15 -3 -15 -5 0 -11
7 -15 15 -3 8 -1 15 3 15 5 0 11 -7 15 -15z m-529 -24 c-3 -12 -10 -21 -15
-21 -5 0 -4 11 2 25 13 29 23 26 13 -4z m435 -7 c17 -49 7 -53 -13 -4 -8 22
-12 40 -7 40 5 0 14 -16 20 -36z m-419 -5 c-5 -13 -10 -19 -10 -12 -1 15 10
45 15 40 3 -2 0 -15 -5 -28z m484 -7 c-8 -8 -25 10 -25 26 0 13 2 13 14 -4 8
-10 13 -21 11 -22z m-435 -10 c0 -15 -2 -15 -10 -2 -13 20 -13 33 0 25 6 -3
10 -14 10 -23z m31 -13 c-6 -16 -10 -18 -10 -7 -1 22 12 55 16 42 2 -6 -1 -22
-6 -35z m46 -6 c-3 -10 -5 -4 -5 12 0 17 2 24 5 18 2 -7 2 -21 0 -30z m63 -10
c0 -7 -5 -13 -12 -13 -6 0 -9 3 -5 6 3 3 1 18 -4 33 -9 24 -8 25 6 7 8 -11 15
-26 15 -33z m148 6 c-3 -20 -5 -19 -9 9 -3 20 -2 29 4 23 5 -5 7 -19 5 -32z
m-30 0 c-3 -8 -7 -3 -11 10 -4 17 -3 21 5 13 5 -5 8 -16 6 -23z m-45 1 c3 -11
1 -20 -4 -20 -5 0 -9 9 -9 20 0 11 2 20 4 20 2 0 6 -9 9 -20z"/>
<path d="M980 2075 c0 -8 5 -15 10 -15 6 0 10 7 10 15 0 8 -4 15 -10 15 -5 0
-10 -7 -10 -15z"/>
<path d="M585 2021 c-3 -5 -1 -12 5 -16 5 -3 10 1 10 9 0 18 -6 21 -15 7z"/>
<path d="M1201 1972 c-17 -31 -13 -40 5 -14 9 13 14 26 11 29 -3 2 -10 -4 -16
-15z"/>
<path d="M730 1470 l0 -450 180 0 180 0 0 58 0 57 -67 0 -68 0 -3 333 -2 332
70 0 70 0 0 60 0 60 -180 0 -180 0 0 -450z"/>
<path d="M666 1771 c-15 -16 -15 -19 3 -35 18 -16 19 -16 23 14 6 38 -4 46
-26 21z"/>
<path d="M1001 1766 c15 -15 113 -76 116 -73 2 3 7 21 10 41 l6 36 -68 0 c-38
0 -66 -2 -64 -4z"/>
<path d="M990 1721 c0 -32 48 -112 64 -107 6 1 19 14 30 29 18 25 18 28 3 45
-9 10 -35 28 -57 41 l-40 22 0 -30z"/>
<path d="M1136 1709 c-6 -36 -3 -45 26 -77 17 -21 34 -36 37 -35 12 4 17 68 8
88 -11 24 -48 65 -57 65 -4 0 -10 -18 -14 -41z"/>
<path d="M603 1710 c-13 -15 -23 -36 -23 -47 0 -19 17 -51 23 -43 2 3 18 24
36 48 27 35 31 45 21 57 -18 21 -32 18 -57 -15z"/>
<path d="M648 1656 c-21 -27 -38 -52 -37 -55 0 -3 13 -16 29 -29 l29 -23 11
21 c6 11 10 46 8 78 l-3 57 -37 -49z"/>
<path d="M986 1614 c1 -25 4 -47 6 -49 2 -2 13 4 26 13 l22 17 -22 32 c-13 18
-25 33 -28 33 -3 0 -5 -21 -4 -46z"/>
<path d="M1087 1624 l-28 -33 22 -63 c12 -35 24 -65 25 -67 3 -4 65 65 77 86
9 15 -19 68 -50 95 -17 14 -20 12 -46 -18z"/>
<path d="M556 1640 c-32 -86 -35 -102 -23 -121 11 -17 14 -15 34 32 20 46 21
54 9 77 -11 20 -16 23 -20 12z"/>
<path d="M1224 1625 c-11 -27 -10 -90 3 -145 l10 -45 17 39 c19 43 16 102 -9
146 -13 24 -14 24 -21 5z"/>
<path d="M576 1533 l-17 -48 33 -27 c18 -16 35 -28 38 -28 4 0 12 24 19 53 12
51 11 53 -14 75 -14 12 -30 22 -35 22 -4 0 -15 -21 -24 -47z"/>
<path d="M1018 1562 c-26 -16 -28 -21 -28 -89 0 -40 3 -73 6 -73 4 0 27 10 51
22 41 20 43 24 37 52 -3 17 -13 48 -23 68 l-16 37 -27 -17z"/>
<path d="M1190 1534 c0 -7 -18 -30 -40 -53 -41 -42 -41 -42 -38 -113 l3 -71
54 53 53 54 -6 54 c-6 49 -25 105 -26 76z"/>
<path d="M673 1510 c-24 -56 -25 -88 -5 -99 25 -13 30 3 22 74 -6 46 -7 48
-17 25z"/>
<path d="M521 1443 c0 -42 3 -52 9 -38 12 28 12 83 0 90 -6 4 -10 -16 -9 -52z"/>
<path d="M1257 1443 c-15 -29 -40 -153 -32 -161 7 -7 36 71 46 126 12 63 7 76
-14 35z"/>
<path d="M550 1403 c0 -56 2 -59 39 -85 22 -16 41 -28 43 -28 1 0 2 27 2 61
-2 58 -4 62 -37 85 -20 13 -38 24 -41 24 -4 0 -6 -26 -6 -57z"/>
<path d="M1038 1402 l-48 -22 0 -70 0 -70 38 16 c20 9 42 18 49 21 16 7 27 82
16 118 l-8 30 -47 -23z"/>
<path d="M650 1340 c0 -44 4 -59 16 -64 27 -11 29 -7 26 53 -3 48 -7 60 -23
64 -17 5 -19 -1 -19 -53z"/>
<path d="M1202 1363 c-7 -12 -32 -36 -56 -53 -34 -25 -45 -39 -49 -68 -3 -20
-8 -45 -12 -54 -6 -15 -2 -18 22 -18 43 0 79 43 98 118 19 72 17 111 -3 75z"/>
<path d="M550 1316 c0 -23 95 -144 105 -134 2 2 -1 22 -6 45 -8 31 -21 48 -55
71 -28 20 -44 27 -44 18z"/>
<path d="M660 1243 c0 -25 22 -93 29 -89 12 8 -1 95 -15 100 -8 3 -14 -1 -14
-11z"/>
<path d="M1028 1242 c-31 -14 -38 -22 -38 -44 0 -26 3 -28 38 -28 38 0 39 1
49 45 12 51 9 52 -49 27z"/>
<path d="M1340 1889 c0 -5 5 -7 10 -4 6 3 10 8 10 11 0 2 -4 4 -10 4 -5 0 -10
-5 -10 -11z"/>
<path d="M320 1700 c0 -5 5 -10 11 -10 5 0 7 5 4 10 -3 6 -8 10 -11 10 -2 0
-4 -4 -4 -10z"/>
<path d="M1463 555 c-41 -18 -65 -56 -67 -105 -1 -52 24 -85 105 -136 78 -50
129 -97 129 -119 0 -9 -11 -27 -25 -40 -43 -44 -132 -30 -173 27 -24 33 -42
22 -42 -24 0 -24 4 -48 8 -54 20 -32 176 -45 236 -20 66 27 102 107 73 162
-20 37 -58 73 -127 116 -72 45 -90 64 -90 93 0 67 123 73 165 8 9 -12 22 -23
31 -23 12 0 14 11 12 51 l-3 52 -45 13 c-58 17 -146 17 -187 -1z"/>
<path d="M88 537 c21 -22 22 -32 22 -225 0 -192 -1 -202 -20 -212 -36 -19 -11
-30 71 -30 61 0 79 3 79 14 0 8 -7 16 -15 20 -12 4 -15 25 -15 101 l0 96 93
-3 92 -3 -1 -89 c0 -71 -4 -91 -17 -101 -35 -26 -19 -35 63 -35 62 0 80 3 80
14 0 8 -7 16 -15 20 -13 4 -15 38 -15 215 0 176 2 210 15 215 8 3 15 10 15 16
0 6 -32 10 -80 10 -78 0 -98 -9 -62 -29 14 -8 17 -24 17 -88 l0 -78 -95 0 -95
0 3 80 c2 55 8 84 18 91 26 20 15 24 -73 24 l-86 0 21 -23z"/>
<path d="M540 552 c0 -4 9 -13 20 -20 18 -11 20 -23 20 -155 1 -208 15 -250
101 -295 36 -19 55 -23 101 -19 76 7 118 32 145 87 19 39 23 68 29 213 5 127
10 170 21 174 35 13 5 23 -72 23 -87 0 -100 -6 -65 -28 19 -11 20 -23 20 -173
0 -207 -10 -229 -99 -229 -70 0 -76 16 -79 218 -3 151 -1 177 12 184 34 19 12
28 -69 28 -47 0 -85 -3 -85 -8z"/>
<path d="M1010 552 c0 -4 9 -13 20 -20 19 -11 20 -23 20 -212 0 -191 -1 -199
-21 -214 -35 -24 -13 -36 66 -36 79 0 101 12 66 36 -19 13 -21 25 -21 100 l0
84 69 0 c61 0 70 -3 76 -20 4 -11 15 -20 26 -20 18 0 20 6 17 72 -2 58 -6 73
-19 76 -10 2 -19 -5 -22 -18 -5 -18 -13 -20 -77 -20 l-71 0 3 68 3 67 65 3
c77 4 110 -3 110 -23 0 -8 9 -15 20 -15 17 0 20 7 20 50 l0 50 -175 0 c-96 0
-175 -3 -175 -8z"/>
</g>
</svg>
