<svg version="1.1" id="Layer_1" xmlns="http://www.w3.org/2000/svg" xmlns:xlink="http://www.w3.org/1999/xlink" x="0px" y="0px"
	 width="100%" viewBox="0 0 82 50" enable-background="new 0 0 82 50" xml:space="preserve">
<path fill="#FFFFFF" opacity="1.000000" stroke="none" 
	d="
M74.000000,51.000000 
	C74.000000,51.000000 73.500000,51.000000 73.249588,50.605789 
	C72.217285,48.029869 71.435410,45.848160 70.653534,43.666451 
	C70.035347,43.731277 69.417160,43.796104 68.798973,43.860928 
	C68.199318,46.240620 67.599663,48.620312 67.000000,51.000000 
	C67.000000,51.000000 66.500000,51.000000 66.250000,50.568413 
	C66.000000,48.183952 66.000000,46.231075 66.000000,44.755478 
	C63.855225,44.530678 62.159027,44.352894 60.000000,44.126602 
	C60.000000,46.455929 60.000000,48.727966 60.000000,51.000000 
	C60.000000,51.000000 59.500000,51.000000 59.250000,50.573097 
	C58.536388,47.790371 60.506752,43.933434 55.818371,44.078194 
	C51.563728,44.209557 53.456104,47.797440 53.008633,50.029217 
	C52.946148,50.340862 53.000000,50.675827 53.000000,51.000000 
	C51.611111,51.000000 50.222221,51.000000 48.416668,50.579578 
	C48.214283,48.192432 48.428566,46.225708 48.646812,44.222595 
	C47.057213,44.222595 45.643322,44.222595 44.400551,44.222595 
	C44.613342,46.628410 44.806671,48.814205 45.000000,51.000000 
	C45.000000,51.000000 44.500000,51.000000 44.244110,50.611286 
	C42.804234,48.154270 41.620243,46.085972 40.436256,44.017670 
	C39.573547,45.726997 38.720398,47.441349 37.829868,49.136055 
	C37.759056,49.270817 37.429508,49.269623 37.170643,49.346283 
	C37.020699,47.564873 36.877251,45.860603 36.787670,44.796356 
	C34.631039,44.671631 33.024338,44.578712 31.000000,44.461643 
	C31.000000,46.513077 31.000000,48.756538 31.000000,51.000000 
	C31.000000,51.000000 30.500000,51.000000 30.246155,50.635365 
	C30.965691,43.841270 27.105780,43.436470 22.295986,43.961109 
	C20.179056,44.192020 18.011234,43.909294 15.875008,44.021458 
	C12.744020,44.185852 9.620659,44.495495 6.000000,44.782391 
	C6.000000,46.503342 6.000000,48.751671 6.000000,51.000000 
	C4.360853,51.000000 2.721706,51.000000 1.000000,51.000000 
	C1.000000,43.979343 1.000000,36.958454 1.342036,29.602612 
	C4.197623,38.005272 8.038185,40.369019 19.335373,39.914928 
	C25.488749,40.298420 31.407019,41.156021 33.235119,33.408260 
	C33.380749,32.791065 34.772160,32.113869 35.611874,32.076473 
	C39.007420,31.925270 42.413643,32.013729 45.835670,32.013729 
	C45.975941,35.026279 46.087498,37.422077 46.199863,39.835293 
	C49.752953,39.835293 52.870022,39.835293 56.451206,39.905346 
	C64.153587,39.975399 71.391853,39.975399 78.703758,39.975399 
	C78.703758,36.750313 78.703758,34.039101 78.703758,30.956215 
	C70.984207,30.956215 63.557007,30.956215 56.072845,30.536741 
	C56.053883,28.426077 56.091881,26.734888 56.587822,25.025644 
	C63.595425,25.007591 70.145088,25.007591 76.684326,25.007591 
	C76.684326,21.700539 76.684326,18.994553 76.684326,15.956220 
	C69.624680,15.956220 62.877247,15.956220 56.072845,15.536746 
	C56.053879,13.426082 56.091877,11.734891 56.587856,10.025644 
	C64.278984,10.007589 71.512123,10.007589 79.000000,10.007589 
	C79.000000,6.596245 79.000000,3.798123 79.000000,1.000000 
	C80.321785,1.000000 81.643578,1.000000 83.000000,1.000000 
	C83.000000,16.354214 83.000000,31.708448 82.649925,47.433678 
	C80.329132,48.142162 78.358414,48.479656 76.382195,48.818089 
	C76.060364,47.191399 75.743324,45.588966 75.426285,43.986530 
	C74.950859,44.012871 74.475426,44.039215 74.000000,44.065556 
	C74.000000,46.377037 74.000000,48.688519 74.000000,51.000000 
z"/>
<path fill="#005195" opacity="1.000000" stroke="none" 
	d="
M56.129875,10.043700 
	C56.091877,11.734891 56.053879,13.426082 56.026550,15.987770 
	C56.068104,19.586744 56.098988,22.315220 56.129875,25.043697 
	C56.091881,26.734888 56.053883,28.426077 56.026787,30.979218 
	C56.020824,34.505875 56.003960,37.170582 55.987095,39.835293 
	C52.870022,39.835293 49.752953,39.835293 46.199863,39.835293 
	C46.087498,37.422077 45.975941,35.026279 45.835670,32.013729 
	C42.413643,32.013729 39.007420,31.925270 35.611874,32.076473 
	C34.772160,32.113869 33.380749,32.791065 33.235119,33.408260 
	C31.407019,41.156021 25.488749,40.298420 19.404926,39.568237 
	C20.386086,36.344135 21.759045,33.534107 23.244881,30.483845 
	C23.900574,29.537664 24.443390,28.831713 25.268435,27.927837 
	C27.324602,24.470592 29.098543,21.211269 31.007534,17.647215 
	C32.070976,15.924250 32.999374,14.506017 34.087753,12.813351 
	C34.502480,11.747554 34.757225,10.956190 35.333839,10.010355 
	C37.437138,6.903923 39.218567,3.951961 41.000000,1.000000 
	C45.689255,1.000000 50.378513,1.000000 55.530037,1.452840 
	C56.038166,4.618353 56.084019,7.331027 56.129875,10.043700 
M45.916374,13.732327 
	C43.659252,17.019094 41.402130,20.305862 39.073032,23.697441 
	C41.651875,23.697441 43.709263,23.697441 45.993233,23.697441 
	C45.993233,20.435659 45.993233,17.473543 45.916374,13.732327 
z"/>
<path fill="#01A0E9" opacity="1.000000" stroke="none" 
	d="
M30.872482,17.951946 
	C29.098543,21.211269 27.324602,24.470592 24.927986,27.765175 
	C20.572399,26.534847 16.901875,25.023743 13.093294,24.055925 
	C5.674962,22.170818 2.843469,18.445538 2.941495,10.932050 
	C3.015028,5.295854 7.576135,3.700973 11.000000,1.000000 
	C15.689256,1.000000 20.378511,1.000000 25.658367,1.334832 
	C29.169970,4.501385 32.090969,7.333105 35.011971,10.164825 
	C34.757225,10.956190 34.502480,11.747554 33.642185,12.776385 
	C29.182339,12.802108 25.395834,13.730947 21.909246,10.256880 
	C19.681133,8.036769 15.905324,8.458951 13.736167,12.599458 
	C19.655561,14.448366 25.264021,16.200155 30.872482,17.951946 
z"/>
<path fill="#01A0E9" opacity="1.000000" stroke="none" 
	d="
M56.587852,10.025644 
	C56.084019,7.331027 56.038166,4.618353 55.996155,1.452840 
	C63.354252,1.000000 70.708504,1.000000 78.531380,1.000000 
	C79.000000,3.798123 79.000000,6.596245 79.000000,10.007589 
	C71.512123,10.007589 64.278984,10.007589 56.587852,10.025644 
z"/>
<path fill="#01A0E9" opacity="1.000000" stroke="none" 
	d="
M23.132004,30.724075 
	C21.759045,33.534107 20.386086,36.344135 18.943573,39.500858 
	C8.038185,40.369019 4.197623,38.005272 1.342036,29.133831 
	C1.000000,28.250000 1.000000,27.500000 1.457019,26.375137 
	C5.406338,26.322437 10.752605,25.367493 12.026975,27.217482 
	C15.244895,31.888905 18.993837,31.066259 23.132004,30.724075 
z"/>
<path fill="#FFFFFF" opacity="1.000000" stroke="none" 
	d="
M23.244881,30.483845 
	C18.993837,31.066259 15.244895,31.888905 12.026975,27.217482 
	C10.752605,25.367493 5.406338,26.322437 1.457019,26.000137 
	C1.000000,17.780951 1.000000,9.561900 1.000000,1.000000 
	C4.000278,1.000000 7.013575,1.000000 10.513435,1.000000 
	C7.576135,3.700973 3.015028,5.295854 2.941495,10.932050 
	C2.843469,18.445538 5.674962,22.170818 13.093294,24.055925 
	C16.901875,25.023743 20.572399,26.534847 24.645760,27.963097 
	C24.443390,28.831713 23.900574,29.537664 23.244881,30.483845 
z"/>
<path fill="#005195" opacity="1.000000" stroke="none" 
	d="
M6.468636,51.000000 
	C6.000000,48.751671 6.000000,46.503342 6.000000,44.782391 
	C9.620659,44.495495 12.744020,44.185852 15.875008,44.021458 
	C18.011234,43.909294 20.179056,44.192020 22.295986,43.961109 
	C27.105780,43.436470 30.965691,43.841270 29.996155,50.635365 
	C22.312424,51.000000 14.624847,51.000000 6.468636,51.000000 
z"/>
<path fill="#005195" opacity="1.000000" stroke="none" 
	d="
M31.463184,51.000000 
	C31.000000,48.756538 31.000000,46.513077 31.000000,44.461643 
	C33.024338,44.578712 34.631039,44.671631 36.787670,44.796356 
	C36.877251,45.860603 37.020699,47.564873 37.170643,49.346283 
	C37.429508,49.269623 37.759056,49.270817 37.829868,49.136055 
	C38.720398,47.441349 39.573547,45.726997 40.436256,44.017670 
	C41.620243,46.085972 42.804234,48.154270 43.994110,50.611286 
	C39.975456,51.000000 35.950912,51.000000 31.463184,51.000000 
z"/>
<path fill="#FFFFFF" opacity="1.000000" stroke="none" 
	d="
M35.333839,10.010355 
	C32.090969,7.333105 29.169970,4.501385 26.124485,1.334832 
	C30.689257,1.000000 35.378513,1.000000 40.533882,1.000000 
	C39.218567,3.951961 37.437138,6.903923 35.333839,10.010355 
z"/>
<path fill="#005195" opacity="1.000000" stroke="none" 
	d="
M53.428463,51.000000 
	C53.000000,50.675827 52.946148,50.340862 53.008633,50.029217 
	C53.456104,47.797440 51.563728,44.209557 55.818371,44.078194 
	C60.506752,43.933434 58.536388,47.790371 59.000000,50.573097 
	C57.285641,51.000000 55.571285,51.000000 53.428463,51.000000 
z"/>
<path fill="#005195" opacity="1.000000" stroke="none" 
	d="
M60.428459,51.000000 
	C60.000000,48.727966 60.000000,46.455929 60.000000,44.126602 
	C62.159027,44.352894 63.855225,44.530678 66.000000,44.755478 
	C66.000000,46.231075 66.000000,48.183952 66.000000,50.568413 
	C64.285645,51.000000 62.571281,51.000000 60.428459,51.000000 
z"/>
<path fill="#005195" opacity="1.000000" stroke="none" 
	d="
M74.491051,51.000000 
	C74.000000,48.688519 74.000000,46.377037 74.000000,44.065556 
	C74.475426,44.039215 74.950859,44.012871 75.426285,43.986530 
	C75.743324,45.588966 76.060364,47.191399 76.382195,48.818089 
	C78.358414,48.479656 80.329132,48.142162 82.649925,47.902336 
	C83.000000,48.958076 83.000000,49.916157 83.000000,51.000000 
	C80.327980,51.000000 77.655037,51.000000 74.491051,51.000000 
z"/>
<path fill="#005195" opacity="1.000000" stroke="none" 
	d="
M67.428467,51.000000 
	C67.599663,48.620312 68.199318,46.240620 68.798973,43.860928 
	C69.417160,43.796104 70.035347,43.731277 70.653534,43.666451 
	C71.435410,45.848160 72.217285,48.029869 72.999588,50.605789 
	C71.285645,51.000000 69.571281,51.000000 67.428467,51.000000 
z"/>
<path fill="#005195" opacity="1.000000" stroke="none" 
	d="
M45.375000,51.000000 
	C44.806671,48.814205 44.613342,46.628410 44.400551,44.222595 
	C45.643322,44.222595 47.057213,44.222595 48.646812,44.222595 
	C48.428566,46.225708 48.214283,48.192432 48.000000,50.579578 
	C47.250000,51.000000 46.500000,51.000000 45.375000,51.000000 
z"/>
<path fill="#01A0E9" opacity="1.000000" stroke="none" 
	d="
M56.451206,39.905346 
	C56.003960,37.170582 56.020824,34.505875 56.083748,31.398689 
	C63.557007,30.956215 70.984207,30.956215 78.703758,30.956215 
	C78.703758,34.039101 78.703758,36.750313 78.703758,39.975399 
	C71.391853,39.975399 64.153587,39.975399 56.451206,39.905346 
z"/>
<path fill="#01A0E9" opacity="1.000000" stroke="none" 
	d="
M56.587814,25.025644 
	C56.098988,22.315220 56.068104,19.586744 56.083511,16.407244 
	C62.877247,15.956220 69.624680,15.956220 76.684326,15.956220 
	C76.684326,18.994553 76.684326,21.700539 76.684326,25.007591 
	C70.145088,25.007591 63.595425,25.007591 56.587814,25.025644 
z"/>
<path fill="#FFFFFF" opacity="1.000000" stroke="none" 
	d="
M31.007532,17.647213 
	C25.264021,16.200155 19.655561,14.448366 13.736167,12.599458 
	C15.905324,8.458951 19.681133,8.036769 21.909246,10.256880 
	C25.395834,13.730947 29.182339,12.802108 33.482201,13.050817 
	C32.999374,14.506017 32.070976,15.924250 31.007532,17.647213 
z"/>
<path fill="#FFFFFF" opacity="1.000000" stroke="none" 
	d="
M45.954803,14.121877 
	C45.993233,17.473543 45.993233,20.435659 45.993233,23.697441 
	C43.709263,23.697441 41.651875,23.697441 39.073032,23.697441 
	C41.402130,20.305862 43.659252,17.019094 45.954803,14.121877 
z"/>
</svg>