<?xml version="1.0" standalone="no"?>
<!DOCTYPE svg PUBLIC "-//W3C//DTD SVG 20010904//EN"
 "http://www.w3.org/TR/2001/REC-SVG-20010904/DTD/svg10.dtd">
<svg version="1.0" xmlns="http://www.w3.org/2000/svg"
 width="300.000000pt" height="161.000000pt" viewBox="0 0 300.000000 161.000000"
 preserveAspectRatio="xMidYMid meet">

<g transform="translate(0.000000,161.000000) scale(0.100000,-0.100000)"
fill="#000000" stroke="none">
<path d="M1163 1596 c-39 -18 -55 -47 -55 -96 1 -29 -3 -37 -16 -36 -11 1 -18
-8 -20 -21 -3 -19 1 -23 22 -23 l26 0 0 -115 c0 -104 -2 -115 -18 -115 -11 0
-18 -7 -18 -20 0 -19 7 -20 92 -20 81 0 92 2 90 18 0 9 -9 20 -18 24 -16 6
-18 22 -18 118 l0 110 35 0 c21 0 35 5 35 13 0 25 -18 39 -45 35 -35 -4 -56
23 -39 50 8 12 24 17 53 17 38 0 41 2 41 27 0 33 -4 35 -66 43 -32 3 -60 0
-81 -9z"/>
<path d="M1430 1604 c-60 -22 -85 -56 -78 -111 3 -24 0 -28 -19 -25 -13 2 -23
-1 -23 -7 0 -23 14 -41 31 -41 18 0 19 -9 19 -115 0 -108 -1 -115 -20 -115
-13 0 -20 -7 -20 -20 0 -19 7 -20 95 -20 86 0 95 2 95 19 0 10 -9 21 -20 24
-18 5 -20 14 -20 116 l0 111 65 0 65 0 0 -111 c0 -102 -2 -111 -20 -116 -11
-3 -20 -14 -20 -24 0 -17 9 -19 90 -19 83 0 90 1 90 20 0 11 -6 20 -14 20 -22
0 -26 24 -26 156 l0 125 -117 -2 -118 -1 0 33 c0 33 1 34 45 35 39 0 45 3 48
23 2 13 0 27 -5 32 -10 10 -103 20 -123 13z"/>
<path d="M1608 1589 c-28 -16 -23 -65 7 -85 48 -31 106 17 82 67 -14 27 -60
36 -89 18z"/>
<path d="M104 1560 c-56 -36 -74 -128 -36 -180 11 -13 45 -37 78 -53 82 -39
86 -41 98 -60 16 -24 -4 -51 -41 -55 -38 -4 -78 28 -86 68 -6 25 -11 30 -37
30 l-30 0 0 -80 0 -81 48 2 c26 0 70 -2 98 -6 101 -14 174 37 174 119 0 59
-26 89 -121 137 -44 22 -83 47 -86 56 -8 20 9 47 31 51 40 8 67 -8 86 -53 14
-32 25 -45 40 -45 19 0 20 6 20 85 0 83 -1 85 -24 85 -13 0 -26 -5 -28 -11 -3
-9 -9 -9 -25 0 -35 18 -124 13 -159 -9z"/>
<path d="M378 1575 c-12 -12 5 -45 23 -45 18 0 19 -10 19 -170 0 -144 -2 -170
-15 -170 -8 0 -15 -9 -15 -20 0 -18 7 -20 89 -20 78 0 89 2 87 18 0 9 -9 20
-18 24 -15 6 -18 21 -18 102 0 93 1 96 24 102 57 14 61 7 64 -104 2 -86 0
-102 -13 -102 -8 0 -15 -9 -15 -20 0 -18 7 -20 85 -20 77 0 85 2 85 19 0 10
-6 21 -14 24 -10 4 -15 34 -18 117 -3 108 -4 113 -31 136 -33 28 -92 32 -137
9 l-29 -15 -3 67 -3 68 -70 3 c-39 1 -74 0 -77 -3z"/>
<path d="M2058 1574 c-12 -11 5 -44 23 -44 18 0 19 -10 19 -170 0 -144 -2
-170 -15 -170 -8 0 -15 -9 -15 -20 0 -19 7 -20 90 -20 81 0 90 2 90 19 0 10
-9 21 -20 24 -19 5 -20 14 -20 196 l0 191 -73 0 c-41 0 -76 -3 -79 -6z"/>
<path d="M2408 1574 c-12 -12 5 -43 26 -46 15 -2 22 -11 24 -30 3 -28 2 -28
-51 -28 -116 0 -182 -101 -147 -225 18 -66 66 -105 128 -105 26 0 57 6 68 14
13 10 25 11 35 5 8 -5 37 -9 65 -9 43 0 52 3 50 18 0 9 -10 19 -21 22 -19 6
-20 16 -23 198 l-2 192 -74 0 c-40 0 -75 -3 -78 -6z m40 -166 c7 -7 12 -44 12
-98 0 -88 -8 -110 -40 -110 -9 0 -25 9 -36 21 -27 30 -27 148 0 178 21 24 46
27 64 9z"/>
<path d="M855 1460 c-59 -24 -101 -113 -89 -189 14 -86 70 -131 161 -131 57 0
138 33 127 52 -19 34 -25 37 -52 22 -58 -30 -122 -4 -122 51 0 25 0 25 95 25
l95 0 0 33 c-1 49 -34 113 -69 131 -32 17 -113 20 -146 6z m105 -71 c21 -38
13 -49 -35 -49 -38 0 -45 3 -45 20 0 27 35 61 55 54 9 -4 20 -15 25 -25z"/>
<path d="M1819 1447 c-44 -29 -69 -80 -69 -142 0 -134 119 -204 248 -145 46
21 47 22 30 49 -10 17 -14 17 -44 5 -18 -8 -43 -14 -54 -14 -27 0 -70 43 -70
70 0 19 6 20 95 20 l95 0 0 40 c0 86 -56 140 -146 140 -36 0 -61 -6 -85 -23z
m115 -43 c9 -8 16 -26 16 -40 0 -22 -4 -24 -45 -24 -47 0 -53 7 -34 43 21 39
39 45 63 21z"/>
<path d="M0 1051 c0 -23 5 -30 23 -33 22 -3 22 -6 25 -160 2 -153 2 -158 -18
-158 -15 0 -20 -7 -20 -25 l0 -25 100 0 100 0 0 25 c0 18 -5 25 -19 25 -24 0
-31 19 -31 81 l0 49 65 0 65 0 0 -65 c0 -58 -2 -65 -20 -65 -15 0 -20 -7 -20
-25 l0 -25 100 0 c99 0 100 0 100 24 0 18 -6 25 -22 28 -23 3 -23 6 -26 161
-2 152 -2 157 18 157 16 0 20 7 20 30 l0 30 -100 0 -100 0 0 -29 c0 -23 5 -30
23 -33 19 -3 22 -10 25 -60 l3 -58 -66 0 -65 0 0 60 c0 53 2 60 20 60 16 0 20
7 20 30 l0 30 -100 0 -100 0 0 -29z"/>
<path d="M788 1075 c-12 -12 5 -45 23 -45 18 0 19 -10 19 -170 0 -144 -2 -170
-15 -170 -8 0 -15 -9 -15 -20 0 -19 7 -20 90 -20 81 0 90 2 90 19 0 10 -9 21
-20 24 -18 5 -20 15 -22 194 l-3 188 -70 3 c-39 1 -74 0 -77 -3z"/>
<path d="M982 1058 c2 -15 11 -24 26 -26 22 -3 22 -5 22 -173 0 -162 -1 -169
-20 -169 -13 0 -20 -7 -20 -20 0 -19 7 -20 90 -20 82 0 90 2 90 19 0 10 -7 21
-15 25 -12 4 -15 38 -17 193 l-3 188 -78 3 c-77 3 -78 2 -75 -20z"/>
<path d="M513 963 c-18 -3 -23 -11 -23 -35 0 -23 4 -29 16 -24 9 3 33 9 55 12
45 8 69 -7 69 -42 0 -20 -5 -24 -32 -24 -43 -1 -114 -33 -127 -58 -25 -47 -6
-122 36 -141 35 -16 95 -14 122 5 17 12 26 13 34 5 6 -6 35 -11 64 -11 45 0
53 3 53 19 0 10 -9 21 -19 24 -17 4 -19 16 -23 112 -3 106 -3 107 -36 136 -29
26 -38 29 -100 28 -37 -1 -77 -4 -89 -6z m113 -240 c-4 -9 -16 -13 -33 -11
-49 5 -41 68 12 88 17 6 20 3 23 -27 2 -19 1 -42 -2 -50z"/>
<path d="M1228 963 c-12 -3 -18 -14 -18 -35 0 -22 4 -29 14 -25 68 26 130 13
124 -26 -2 -17 -12 -23 -45 -29 -52 -9 -99 -33 -113 -57 -5 -11 -10 -38 -10
-61 0 -77 85 -116 164 -75 20 11 33 12 40 5 5 -5 34 -10 63 -10 45 0 53 3 53
19 0 10 -9 21 -19 24 -17 4 -19 16 -23 112 -3 106 -3 107 -36 136 -30 27 -38
29 -105 28 -39 -1 -80 -3 -89 -6z m120 -200 c-3 -44 -5 -48 -31 -51 -47 -6
-51 64 -5 86 37 17 39 15 36 -35z"/>
<path d="M1514 964 c-18 -8 -4 -44 17 -44 18 0 19 -9 19 -115 0 -96 -3 -115
-15 -115 -8 0 -15 -9 -15 -20 0 -18 7 -20 85 -20 77 0 85 2 85 19 0 10 -7 21
-15 25 -12 4 -15 25 -15 100 0 100 3 106 55 106 30 0 35 -15 35 -121 0 -72 -3
-89 -15 -89 -8 0 -15 -9 -15 -20 0 -18 7 -20 85 -20 78 0 85 2 85 20 0 11 -6
20 -14 20 -21 0 -26 23 -26 110 0 86 10 104 57 98 l28 -3 3 -102 c2 -87 0
-103 -13 -103 -8 0 -15 -9 -15 -20 0 -19 7 -20 90 -20 81 0 90 2 90 19 0 10
-9 21 -20 24 -18 5 -20 14 -20 110 0 99 -2 107 -26 136 -22 26 -33 31 -71 31
-25 0 -60 -7 -79 -16 -30 -14 -35 -14 -56 0 -28 20 -90 21 -128 1 -25 -13 -29
-13 -34 0 -4 11 -22 15 -68 14 -35 0 -68 -3 -74 -5z"/>
<path d="M862 598 c-15 -15 -15 -61 0 -76 17 -17 74 -15 92 4 35 35 7 84 -48
84 -17 0 -37 -5 -44 -12z"/>
<path d="M2242 598 c-7 -7 -12 -24 -12 -38 0 -35 17 -50 57 -50 24 0 37 7 49
25 15 23 15 27 0 50 -18 28 -72 35 -94 13z"/>
<path d="M0 561 c0 -23 5 -30 23 -33 21 -3 22 -7 27 -143 6 -162 15 -184 83
-216 54 -24 121 -24 175 1 66 30 82 73 82 233 0 120 1 127 20 127 16 0 20 7
20 30 l0 31 -97 -3 c-97 -3 -98 -3 -98 -28 0 -18 6 -26 23 -28 22 -3 22 -6 22
-142 0 -138 0 -140 -25 -156 -21 -14 -31 -15 -51 -6 -36 17 -44 50 -44 183 0
112 1 119 20 119 16 0 20 7 20 30 l0 30 -100 0 -100 0 0 -29z"/>
<path d="M2460 553 c-35 -7 -50 -21 -50 -49 0 -17 -6 -24 -20 -24 -15 0 -20
-7 -20 -25 0 -18 5 -25 20 -25 19 0 20 -7 20 -94 0 -51 5 -107 11 -125 13 -37
53 -61 101 -61 60 0 78 10 78 41 0 26 -3 29 -34 29 -43 0 -46 9 -46 121 l0 89
36 0 c31 0 35 3 32 23 -2 17 -11 23 -35 25 -31 3 -33 6 -33 43 0 41 -2 42 -60
32z"/>
<path d="M610 474 c-22 -10 -36 -11 -38 -4 -2 6 -36 10 -81 10 -78 0 -78 0
-73 -25 3 -16 11 -25 23 -25 17 0 19 -9 19 -110 0 -91 -3 -110 -15 -110 -9 0
-15 -9 -15 -25 0 -25 1 -25 90 -25 85 0 90 1 90 21 0 12 -8 23 -20 26 -18 5
-20 14 -20 98 l0 93 30 12 c50 21 60 3 60 -106 0 -77 -3 -94 -15 -94 -9 0 -15
-9 -15 -25 0 -25 1 -25 90 -25 85 0 90 1 90 21 0 12 -8 23 -20 26 -18 5 -20
14 -20 105 0 115 -13 150 -61 167 -41 14 -56 13 -99 -5z"/>
<path d="M1434 471 c-65 -29 -89 -72 -89 -156 0 -58 4 -76 24 -104 44 -61 136
-79 219 -41 46 21 47 22 32 50 -9 16 -13 17 -50 4 -23 -8 -52 -11 -66 -8 -23
6 -54 48 -54 74 0 6 37 10 101 10 l101 0 -7 48 c-10 64 -32 99 -80 122 -51 25
-78 25 -131 1z m104 -74 c18 -37 9 -47 -45 -47 -37 0 -44 3 -39 16 3 9 6 19 6
24 0 16 32 41 49 38 9 -2 22 -16 29 -31z"/>
<path d="M1854 480 c-12 -5 -25 -13 -29 -19 -9 -16 -25 -13 -25 4 0 12 -15 15
-75 15 -73 0 -75 -1 -75 -25 0 -20 5 -25 25 -25 l25 0 0 -110 c0 -103 -1 -110
-20 -110 -15 0 -20 -7 -20 -25 0 -25 1 -25 90 -25 88 0 90 0 90 24 0 15 -7 26
-20 29 -18 5 -20 14 -20 85 0 91 6 101 70 109 40 6 41 7 38 42 -3 38 -17 46
-54 31z"/>
<path d="M2000 479 c-48 -20 -70 -50 -70 -94 0 -49 30 -82 100 -109 25 -10 48
-23 52 -29 12 -20 -4 -37 -37 -37 -34 0 -61 22 -67 55 -2 12 -13 21 -26 23
-21 3 -22 0 -22 -62 l0 -66 33 1 c17 0 57 -3 87 -6 47 -6 60 -4 89 17 45 30
57 65 37 113 -13 30 -27 41 -80 65 -72 33 -83 44 -65 66 21 26 62 13 81 -26
10 -20 25 -35 35 -35 15 0 19 11 21 62 l3 63 -38 -2 c-21 0 -54 2 -73 5 -19 4
-46 2 -60 -4z"/>
<path d="M812 458 c2 -15 11 -24 26 -26 21 -3 22 -7 22 -112 0 -99 -2 -108
-20 -113 -12 -3 -20 -14 -20 -26 0 -20 5 -21 90 -21 89 0 90 0 90 25 0 15 -6
25 -15 25 -12 0 -15 24 -17 133 l-3 132 -78 3 c-77 3 -78 2 -75 -20z"/>
<path d="M990 456 c0 -15 7 -26 17 -28 12 -2 33 -45 68 -133 l50 -130 46 -3
46 -3 50 133 c42 111 54 134 72 136 16 3 21 9 19 25 -3 20 -10 22 -75 25 -72
3 -73 3 -73 -23 0 -16 6 -25 16 -25 9 0 14 -6 12 -12 -3 -7 -15 -44 -28 -82
l-23 -70 -28 74 c-29 74 -29 90 -3 90 8 0 14 10 14 25 0 25 -1 25 -90 25 -89
0 -90 0 -90 -24z"/>
<path d="M2190 455 c0 -20 5 -25 25 -25 l25 0 0 -109 c0 -100 -2 -109 -20
-114 -12 -3 -20 -14 -20 -26 0 -20 5 -21 90 -21 88 0 90 0 90 24 0 15 -7 26
-21 29 -19 5 -20 12 -18 134 l1 128 -76 3 c-76 3 -76 3 -76 -23z"/>
<path d="M2600 471 c0 -23 13 -41 30 -41 16 0 19 -12 22 -115 3 -100 6 -117
24 -136 29 -28 93 -36 135 -15 17 9 34 16 36 16 10 0 0 -69 -13 -89 -15 -21
-23 -23 -80 -19 l-64 4 0 -32 c0 -30 3 -32 45 -38 114 -18 199 28 216 114 4
25 8 103 9 173 0 121 1 129 21 134 12 4 18 11 15 20 -3 8 -6 19 -6 24 0 6 -36
9 -87 7 -83 -3 -88 -4 -91 -25 -3 -18 2 -23 17 -23 20 0 21 -6 21 -95 0 -85
-2 -95 -21 -105 -11 -6 -30 -10 -42 -8 -21 3 -22 9 -27 128 l-5 125 -77 3
c-45 2 -78 -1 -78 -7z"/>
</g>
</svg>
