<?xml version="1.0" standalone="no"?>
<!DOCTYPE svg PUBLIC "-//W3C//DTD SVG 20010904//EN"
 "http://www.w3.org/TR/2001/REC-SVG-20010904/DTD/svg10.dtd">
<svg version="1.0" xmlns="http://www.w3.org/2000/svg"
 width="766.000000pt" height="400.000000pt" viewBox="0 0 766.000000 400.000000"
 preserveAspectRatio="xMidYMid meet">

<g transform="translate(0.000000,400.000000) scale(0.100000,-0.100000)"
fill="#000000" stroke="none">
<path d="M2180 2450 c-617 -55 -1050 -137 -1265 -239 -137 -66 -185 -114 -185
-186 0 -52 19 -78 92 -125 267 -173 1192 -311 2478 -371 1039 -47 3218 71
3898 212 56 12 101 24 98 26 -2 2 -57 -3 -122 -11 -314 -41 -935 -92 -1389
-116 -602 -31 -1493 -40 -2025 -20 -1485 55 -2640 254 -2640 456 0 127 407
247 1280 378 83 12 88 14 40 14 -30 0 -147 -8 -260 -18z"/>
<path d="M3263 2281 c-85 -40 -97 -139 -23 -198 8 -7 47 -22 85 -34 115 -35
137 -57 95 -99 -29 -29 -100 -28 -127 3 -11 12 -23 30 -26 40 -11 31 -87 17
-87 -17 0 -71 91 -131 189 -124 104 8 156 53 156 138 0 72 -34 103 -150 138
-64 20 -91 33 -93 45 -6 30 17 47 62 47 47 0 58 -6 75 -38 10 -19 19 -23 54
-20 38 3 42 5 39 28 -4 34 -33 72 -68 89 -47 24 -133 25 -181 2z"/>
<path d="M1550 2235 l0 -55 65 0 65 0 0 -160 0 -160 70 0 70 0 0 160 0 159 68
3 67 3 3 53 3 52 -205 0 -206 0 0 -55z"/>
<path d="M2670 2075 l0 -215 45 0 45 0 0 109 c0 122 8 141 60 141 42 0 50 -23
50 -144 l0 -106 45 0 45 0 0 103 c0 114 -11 166 -39 191 -28 26 -91 31 -129
12 l-32 -17 0 71 0 70 -45 0 -45 0 0 -215z"/>
<path d="M3922 2253 c3 -37 4 -38 46 -41 l42 -3 0 40 0 41 -46 0 -45 0 3 -37z"/>
<path d="M5610 2076 l0 -216 45 0 45 0 0 80 0 80 65 0 c124 0 180 48 172 148
-3 44 -10 59 -36 85 l-31 32 -130 3 -130 4 0 -216z m224 112 c21 -30 20 -44
-4 -68 -15 -15 -33 -20 -75 -20 l-55 0 0 55 0 55 59 0 c51 0 62 -3 75 -22z"/>
<path d="M2063 2164 c-50 -25 -76 -76 -77 -148 -1 -44 5 -70 19 -95 49 -83
174 -96 240 -25 34 37 31 51 -12 59 -32 6 -40 3 -52 -14 -25 -39 -91 -22 -106
27 -6 22 -6 22 101 22 l107 0 -7 47 c-3 25 -14 60 -24 77 -34 60 -122 83 -189
50z m109 -71 c10 -9 18 -24 18 -35 0 -15 -8 -18 -61 -18 -58 0 -60 1 -53 23 3
12 11 28 16 35 15 17 58 15 80 -5z"/>
<path d="M2401 2162 c-59 -29 -76 -63 -76 -146 0 -64 3 -77 27 -108 65 -86
202 -73 251 23 l17 34 -27 6 c-47 11 -63 10 -63 -4 0 -8 -8 -21 -18 -30 -47
-43 -102 3 -102 84 0 56 24 89 64 89 23 0 56 -23 56 -39 0 -10 69 -1 76 10 2
5 -2 21 -10 37 -30 57 -127 79 -195 44z"/>
<path d="M3665 2170 c-97 -40 -120 -208 -39 -279 76 -67 198 -47 234 39 7 17
11 32 9 34 -2 3 -21 7 -41 11 -34 7 -39 5 -47 -19 -12 -30 -50 -43 -80 -27
-42 23 -49 131 -11 166 25 22 72 16 84 -12 8 -18 16 -20 45 -16 50 8 53 14 31
51 -32 52 -124 78 -185 52z"/>
<path d="M4140 2162 c-91 -49 -102 -229 -17 -285 60 -39 149 -33 197 14 40 40
38 55 -7 64 -32 6 -40 3 -52 -14 -25 -39 -91 -22 -106 27 -6 22 -6 22 101 22
l107 0 -7 47 c-8 62 -34 104 -76 125 -45 23 -96 23 -140 0z m112 -69 c10 -9
18 -24 18 -35 0 -15 -8 -18 -61 -18 -58 0 -60 1 -53 23 3 12 11 28 16 35 15
17 58 15 80 -5z"/>
<path d="M4533 2160 c-27 -16 -33 -17 -33 -5 0 11 -11 15 -40 15 l-40 0 0
-155 0 -155 40 0 40 0 0 78 c1 88 13 151 32 163 24 16 67 10 78 -10 5 -11 10
-67 10 -125 l0 -106 46 0 46 0 -4 131 -4 131 -32 29 c-39 35 -91 38 -139 9z"/>
<path d="M4843 2164 c-51 -25 -77 -76 -77 -149 0 -46 6 -71 23 -98 40 -64 150
-86 217 -42 24 15 62 80 53 89 -2 2 -21 7 -41 11 -34 6 -39 5 -49 -19 -26 -57
-102 -37 -115 30 -10 52 11 112 41 120 36 9 59 1 70 -23 7 -18 15 -21 40 -16
53 10 56 15 35 51 -35 58 -129 79 -197 46z"/>
<path d="M5159 2157 c-90 -60 -93 -217 -6 -281 40 -29 134 -29 174 0 15 11 34
32 40 45 12 23 11 24 -28 32 -36 7 -43 6 -56 -12 -27 -40 -103 -16 -103 32 0
15 13 17 100 17 l100 0 0 38 c0 82 -66 152 -145 152 -27 0 -54 -8 -76 -23z
m119 -59 c5 -7 13 -23 16 -35 7 -22 5 -23 -53 -23 -50 0 -61 3 -61 17 0 42 72
72 98 41z"/>
<path d="M6102 2158 c-19 -19 -22 -20 -22 -5 0 13 -9 17 -40 17 l-40 0 0 -155
0 -155 45 0 45 0 0 101 c0 123 8 142 58 137 34 -3 37 0 46 30 7 26 6 36 -5 43
-25 15 -64 10 -87 -13z"/>
<path d="M6293 2165 c-89 -38 -111 -199 -39 -271 58 -58 154 -58 213 1 18 18
33 37 33 43 0 5 -19 12 -41 16 -35 6 -44 3 -56 -14 -19 -28 -67 -27 -87 2 -31
44 -23 48 90 48 l106 0 -6 30 c-3 17 -8 43 -11 58 -7 33 -47 80 -82 93 -34 13
-82 11 -120 -6z m111 -77 c28 -40 21 -48 -44 -48 -65 0 -72 8 -44 48 20 30 68
30 88 0z"/>
<path d="M6603 2166 c-37 -17 -53 -43 -53 -86 0 -43 36 -76 106 -95 33 -9 65
-18 72 -21 22 -7 9 -38 -18 -44 -30 -8 -69 5 -85 27 -14 19 -85 10 -85 -11 0
-23 67 -75 105 -82 51 -9 122 4 151 29 32 29 42 88 20 121 -12 19 -39 32 -102
51 -88 27 -100 42 -51 59 22 8 33 6 56 -12 22 -16 37 -20 65 -15 20 3 36 9 36
14 0 5 -13 23 -29 41 -25 29 -35 32 -92 35 -41 2 -76 -2 -96 -11z"/>
<path d="M6940 2169 c-61 -25 -80 -100 -36 -144 13 -13 50 -31 82 -40 33 -9
65 -18 72 -20 21 -7 13 -35 -13 -45 -29 -11 -73 2 -81 25 -6 16 -33 19 -71 9
-31 -8 -29 -20 10 -59 82 -82 257 -43 257 57 0 55 -22 75 -116 104 -88 26
-100 41 -51 58 22 8 33 6 56 -12 22 -16 37 -20 65 -15 20 3 36 9 36 14 0 5
-13 23 -29 41 -26 29 -35 32 -92 35 -35 1 -75 -2 -89 -8z"/>
<path d="M3920 2015 l0 -155 45 0 45 0 0 155 0 155 -45 0 -45 0 0 -155z"/>
</g>
</svg>
