<?xml version="1.0" encoding="UTF-8" standalone="no"?>
<svg
   xmlns:dc="http://purl.org/dc/elements/1.1/"
   xmlns:cc="http://creativecommons.org/ns#"
   xmlns:rdf="http://www.w3.org/1999/02/22-rdf-syntax-ns#"
   xmlns:svg="http://www.w3.org/2000/svg"
   xmlns="http://www.w3.org/2000/svg"
   viewBox="0 0 257.33334 257.33334"
   height="257.33334"
   width="257.33334"
   xml:space="preserve"
   id="svg2"
   version="1.1"><metadata
     id="metadata8"><rdf:RDF><cc:Work
         rdf:about=""><dc:format>image/svg+xml</dc:format><dc:type
           rdf:resource="http://purl.org/dc/dcmitype/StillImage" /></cc:Work></rdf:RDF></metadata><defs
     id="defs6" /><g
     transform="matrix(1.3333333,0,0,-1.3333333,0,257.33333)"
     id="g10"><g
       transform="scale(0.1)"
       id="g12"><path
         id="path14"
         style="fill:#ffffff;fill-opacity:1;fill-rule:evenodd;stroke:none"
         d="M 0,1927.56 H 1927.56 V 0 H 0 v 1927.56" /><path
         id="path16"
         style="fill:#632390;fill-opacity:1;fill-rule:nonzero;stroke:none"
         d="M 1842.44,789.902 H 85.9336 V 1335.36 H 1842.44 V 789.902" /><path
         id="path18"
         style="fill:#fcd205;fill-opacity:1;fill-rule:nonzero;stroke:none"
         d="m 1212.41,945.488 c 24.24,-9.925 35.06,-20.718 35.06,-36.984 0,-21.977 -19.87,-38.902 -45.48,-38.902 -24.95,0 -44.8,15.421 -44.8,34.668 0,14.816 11.53,26.871 33.95,35.125 -21.71,8.898 -32.11,19.226 -32.11,33.585 0,18.606 19.19,34.25 42.27,34.25 23.09,0 41.56,-13.511 41.56,-30.433 0,-13.516 -10.13,-23.902 -30.45,-31.309 z m -16.63,-8.215 c -15.74,-7.816 -25.19,-18.843 -25.19,-32.585 0,-17.977 14.08,-29.77 31.64,-29.77 17.32,0 31.61,11.16 31.61,27.664 0,14.164 -11.29,23.504 -38.06,34.691 z m 5.29,64.617 c -15.93,0 -29.56,-9.027 -29.56,-22.343 0,-11.637 6.53,-19.664 36.56,-31.254 12.93,7.379 22.08,16.645 22.08,28.699 0,15.242 -12.92,24.898 -29.08,24.898 z m 143.32,-92.175 v 4.898 l 67.01,91.307 h 6.24 v -85.623 h 17.34 v -10.582 h -17.34 v -37.981 h -14.9 v 37.981 z m 58.35,75.672 -47.45,-65.09 h 47.45 z M 1091.15,871.734 v 5.079 c 19.95,0 20.9,3.425 20.9,13.792 h 0.03 v 98.407 c -7.11,-5.91 -19.51,-13.742 -27.77,-17.36 l -1.77,2.969 c 12.88,8.242 31.33,24.117 36.64,31.299 h 7.77 V 893.477 c 0.26,-13.586 2.84,-16.192 22.74,-16.664 v -5.079 z m 251,29.375 h -3.97 c -2.87,-12.769 -6.59,-16.136 -17.06,-16.343 h -49.91 c 26.33,23.132 66.81,53.328 66.81,85.293 0,21.211 -16.16,37.171 -38.19,37.171 -22.72,0 -39.94,-16.378 -42.43,-40.32 h 3.34 c 4.81,17.031 18.08,28.363 32.98,28.363 15.77,0 27.74,-12.41 27.74,-28.175 0,-37.696 -61.38,-84.075 -66.8,-89.364 v -6 h 83.49 l 0.03,-0.023 v 0.023 h 0.05 l 1.76,13.032 h -0.03 z M 1212.99,1167.9 c -3.42,21.94 -10.16,23.47 -19.55,23.47 h -59.41 v -64.75 h 46.51 c 9.58,0 14.11,1.22 15.42,16.65 h 5.06 v -44.59 h -5.06 c -2.13,18.87 -7.18,17.71 -18.1,17.71 h -43.83 v -56.64 c 0,-12.24 5.63,-14.61 15.45,-14.61 h 39.85 c 18.3,0 24.32,3.92 30.72,26.32 h 4.84 l -4.16,-35.89 H 1089.2 v 5.07 c 21.3,0.51 22.77,3.45 22.77,19.66 l 0.11,115.97 c 0,16.23 -1.51,19.15 -22.77,19.66 v 5.06 l 126.47,-0.06 2.08,-33.03 z m 116.76,5.41 h 112.89 l 3.24,-29.97 h -3.92 c -3.26,19.19 -7.29,21.66 -16,21.66 h -30.3 v -108.95 c 0,-11.75 3.95,-15.91 17.22,-15.91 h 5 v -4.58 h -63.36 v 4.58 h 4.98 c 13.27,0 17.21,4.16 17.21,15.91 V 1165 h -30.27 c -8.71,0 -12.6,-2.38 -15.89,-21.68 h -3.93 z m -79.83,-23.36 c 0,12.32 11.03,19.76 26.85,19.76 16.53,0 31.87,-10.52 38.59,-26.37 h 3.84 l -3.16,23.56 c -8.24,3.76 -25.9,9.24 -41.43,9.24 -24.45,0 -42.19,-15.89 -42.19,-34.17 0,-38.52 76.46,-47.09 76.46,-78.77 0,-17.38 -17,-24.82 -33.06,-24.82 -18.74,0 -35.93,11.39 -41.03,33.08 h -4.21 l 4.87,-32.77 c 12.39,-3.45 29.26,-7.39 42.53,-7.39 28.03,0 48.43,18.08 48.43,39.66 0,40.51 -76.49,47.74 -76.49,78.99" /><path
         id="path20"
         style="fill:#ffffff;fill-opacity:1;fill-rule:nonzero;stroke:none"
         d="m 1729.73,1066.37 -21.11,20.21 c -12.58,12.56 -20.58,18.1 -30.48,25.86 21.96,6.42 35.59,23.27 35.59,43.3 0,27.3 -22.19,47.6 -71.65,47.6 -17.39,0 -22.74,-0.25 -33.69,-0.81 -10.95,-0.51 -27.27,-1.6 -33.69,-1.6 v -5.08 h 5.87 c 15.5,0 20.08,-4.8 20.08,-21.39 v -111.62 c 0,-17.91 -5.63,-22.2 -21.4,-22.2 h -4.55 v -5.07 h 75.65 v 5.07 h -6.14 c -15,0 -21.39,4 -21.39,20.05 v 44.27 c 4.29,-0.28 7.76,-0.52 13.63,-0.52 7.03,0 11.26,0.24 17.61,0.5 20.37,-11.67 36.3,-29.6 45.74,-38.57 24.38,-23.21 30.07,-32.94 76.84,-30.8 v 5.07 c -20.56,1.33 -31.12,9.93 -46.91,25.73 z m -90.36,44.26 c -6.13,0 -10.16,-0.28 -16.55,0.52 v 85.47 c 4.81,0.52 8.31,0.52 13.34,0.52 41.19,0 52.43,-18.1 52.43,-42.98 0,-32.09 -19.53,-43.53 -49.22,-43.53 z m 90.36,-44.26 -21.11,20.21 c -12.58,12.56 -20.58,18.1 -30.48,25.86 21.96,6.42 35.59,23.27 35.59,43.3 0,27.3 -22.19,47.6 -71.65,47.6 -17.39,0 -22.74,-0.25 -33.69,-0.81 -10.95,-0.51 -27.27,-1.6 -33.69,-1.6 v -5.08 h 5.87 c 15.5,0 20.08,-4.8 20.08,-21.39 v -111.62 c 0,-17.91 -5.63,-22.2 -21.4,-22.2 h -4.55 v -5.07 h 75.65 v 5.07 h -6.14 c -15,0 -21.39,4 -21.39,20.05 v 44.27 c 4.29,-0.28 7.76,-0.52 13.63,-0.52 7.03,0 11.26,0.24 17.61,0.5 20.37,-11.67 36.3,-29.6 45.74,-38.57 24.38,-23.21 30.07,-32.94 76.84,-30.8 v 5.07 c -20.56,1.33 -31.12,9.93 -46.91,25.73 z m -90.36,44.26 c -6.13,0 -10.16,-0.28 -16.55,0.52 v 85.47 c 4.81,0.52 8.31,0.52 13.34,0.52 41.19,0 52.43,-18.1 52.43,-42.98 0,-32.09 -19.53,-43.53 -49.22,-43.53 z m -810.96,94.3 c 27.903,0 48.406,-9.36 60.817,-14.68 l 2.066,-32.93 h -5.082 c -8.754,24.74 -27.215,40.95 -56.219,40.95 -44.402,0 -66.539,-34.34 -66.539,-79.04 0,-48.11 29.055,-80.62 69.488,-80.62 12.106,0 42.391,8.06 60.481,40.25 h 5.031 l -12.715,-31.22 c -15.843,-7.55 -28.609,-16.34 -59.984,-16.34 -53.984,0 -86.203,35.62 -86.203,84.81 0,51.59 33.269,88.82 88.859,88.82 z m 256.87,-164.29 v -5.05 h -65.79 v 5.05 c 20.07,0.5 22.52,3.14 22.73,17.08 v 58.66 h -97.638 v -56.05 h 0.043 c 0,-16.22 1.496,-19.14 22.75,-19.67 v -5.05 h -65.777 v 5.05 c 19.941,0 20.886,3.45 20.886,13.82 h 0.028 v 127.58 l -0.055,0.03 c 0,10.37 -0.949,13.8 -20.883,13.8 v 5.07 h 65.789 v -5.07 c -21.265,-0.51 -22.769,-3.43 -22.769,-19.66 l -0.055,0.02 -0.051,-49.63 h 97.652 l 0.06,51.9 c -0.19,14.18 -2.56,16.89 -22.75,17.36 v 5.05 h 65.78 v -5.05 c -19.93,0 -20.9,-3.43 -20.9,-13.82 h -0.06 v -127.58 l 0.1,-0.02 c 0,-10.36 0.95,-13.82 20.91,-13.82 z m -402.967,160.29 v -5.05 c 21.253,-0.53 22.746,-3.45 22.746,-19.69 v -105.81 l -111.09,130.55 h -39.77 v -5.05 c 9.289,-0.26 14.239,-2.37 20.348,-6.65 v -130.8 c 0,-10.11 -3.875,-17.29 -12.797,-17.29 -7.102,0 -10.398,7.83 -14.266,16.23 l -61.879,143.56 H 466.73 l -57.117,-134.01 c -10.215,-22.23 -12.054,-25.83 -17.554,-25.83 -6.895,0 -9.344,6.14 -10.5,24 l -8.121,117 c 0,10.37 3.14,13.8 23.093,13.8 v 5.07 l -44.836,-0.01 -58.441,-134.29 -58.762,134.27 h -46.59 v -5.05 c 19.953,0 23.118,-3.43 23.118,-13.82 l -7.086,-113 c -1.34,-24.18 -3.719,-28.45 -23.161,-28.45 v -5.04 h 55.332 v 5.04 c -11.972,0.54 -22.074,3.45 -21.289,17 l 7.18,119.66 h 0.559 l 62.461,-141.7 h 6.101 l 60.653,141.7 h 0.543 l 7.699,-119.1 c 1.078,-14.11 -11.176,-17.56 -23.649,-17.56 v -5.04 h 102.641 v 5.04 h -0.965 c -14.617,0 -21.527,2.64 -21.527,9.83 0,3.72 3.472,11.7 5.316,16.77 l 14.766,34.95 h 69.277 l 17.422,-41.61 c 1.055,-2.66 2.922,-6.65 2.922,-10.88 0,-7.45 -5.578,-9.06 -20.738,-9.06 h -3.622 v -5.04 h 108.208 v 5.04 c -22.622,0 -23.543,3.97 -23.543,23.12 v 114.07 l 123.593,-144.1 h 6.907 v 148.36 c 0,10.37 0.96,13.82 20.925,13.82 v 5.05 z m -241.391,-88.54 30.48,72.18 30.188,-72.18 z m 1124.938,55.51 -2.11,33.03 -126.45,0.06 v -5.06 c 21.27,-0.51 22.74,-3.43 22.74,-19.66 l -0.07,-115.97 c 0,-16.21 -1.51,-19.15 -22.77,-19.66 v -5.07 h 131.5 l 4.19,35.89 h -4.85 c -6.42,-22.4 -12.4,-26.32 -30.72,-26.32 h -39.82 c -9.87,0 -15.48,2.37 -15.48,14.61 v 56.64 h 43.86 c 10.89,0 15.97,1.16 18.07,-17.71 h 5.06 v 44.59 h -5.06 c -1.34,-15.43 -5.86,-16.65 -15.41,-16.65 h -46.52 v 64.75 h 59.38 c 9.43,0 16.17,-1.53 19.58,-23.47 h 4.88" /><path
         id="path22"
         style="fill:#868484;fill-opacity:1;fill-rule:nonzero;stroke:none"
         d="m 125.613,718.742 v -89.179 h -11.086 v 89.179 H 85.0391 v 9.34 h 70.2069 v -9.34 h -29.633" /><path
         id="path24"
         style="fill:#868484;fill-opacity:1;fill-rule:nonzero;stroke:none"
         d="m 215.086,629.563 v 47 c 0,11.382 -3.066,17.953 -13.574,17.953 -12.992,0 -22.188,-12.848 -22.188,-30.071 v -34.882 h -10.945 v 106.542 h 10.945 v -35.46 c 0,-4.821 -0.289,-10.801 -1.168,-14.45 l 0.293,-0.144 c 4.235,10.652 13.285,17.508 25.832,17.508 16.641,0 21.746,-10.508 21.746,-23.352 v -50.644 h -10.941" /><path
         id="path26"
         style="fill:#868484;fill-opacity:1;fill-rule:nonzero;stroke:none"
         d="m 302.652,668.094 h -48.449 c -0.734,-21.742 7.871,-30.793 24.074,-30.793 7.594,0 15.618,1.898 21.016,4.668 l 1.02,-9.34 c -6.711,-2.777 -14.879,-4.379 -23.934,-4.379 -21.891,0 -33.559,11.82 -33.559,37.215 0,21.754 11.668,37.949 31.813,37.949 19.988,0 28.312,-13.863 28.312,-29.918 0,-1.32 0,-3.215 -0.293,-5.402 z m -28.605,27.004 c -10.215,0 -17.52,-7.442 -19.27,-18.825 h 36.786 c 0.289,11.231 -6.422,18.825 -17.516,18.825" /><path
         id="path28"
         style="fill:#868484;fill-opacity:1;fill-rule:nonzero;stroke:none"
         d="m 385.691,628.25 c -30.5,0 -36.339,17.074 -36.339,34.004 v 65.828 h 11.242 v -64.797 c 0,-14.164 4.672,-25.836 25.976,-25.836 18.094,0 27,7.586 27,28.606 v 62.027 h 10.946 v -61.156 c 0,-25.25 -13.278,-38.676 -38.825,-38.676" /><path
         id="path30"
         style="fill:#868484;fill-opacity:1;fill-rule:nonzero;stroke:none"
         d="m 492.676,629.563 v 47 c 0,11.382 -3.067,17.953 -13.574,17.953 -12.989,0 -22.184,-12.848 -22.184,-30.071 v -34.882 h -10.945 v 72.535 h 10.793 c 0,-4.66 -0.43,-11.672 -1.161,-16.047 l 0.29,-0.153 c 4.085,10.508 13.285,17.661 25.976,17.661 16.641,0 21.75,-10.508 21.75,-23.352 v -50.644 h -10.945" /><path
         id="path32"
         style="fill:#868484;fill-opacity:1;fill-rule:nonzero;stroke:none"
         d="m 529.895,715.242 c -4.235,0 -7.594,3.203 -7.594,7.438 0,4.09 3.359,7.445 7.594,7.445 4.085,0 7.589,-3.355 7.589,-7.445 0,-4.235 -3.504,-7.438 -7.589,-7.438 z m -5.547,-85.679 v 72.535 h 10.945 v -72.535 h -10.945" /><path
         id="path34"
         style="fill:#868484;fill-opacity:1;fill-rule:nonzero;stroke:none"
         d="m 585.934,629.563 h -11.387 l -27.434,72.535 h 12.407 l 16.929,-47.282 c 1.457,-4.527 2.77,-8.617 4.09,-12.847 h 0.145 c 1.164,3.941 2.48,8.32 3.941,12.258 l 17.363,47.871 h 11.973 l -28.027,-72.535" /><path
         id="path36"
         style="fill:#868484;fill-opacity:1;fill-rule:nonzero;stroke:none"
         d="m 676.555,668.094 h -48.461 c -0.727,-21.742 7.883,-30.793 24.086,-30.793 7.586,0 15.613,1.898 21.015,4.668 l 1.02,-9.34 c -6.711,-2.777 -14.883,-4.379 -23.934,-4.379 -21.89,0 -33.57,11.82 -33.57,37.215 0,21.754 11.68,37.949 31.812,37.949 20,0 28.317,-13.863 28.317,-29.918 0,-1.32 0,-3.215 -0.285,-5.402 z m -28.606,27.004 c -10.219,0 -17.519,-7.442 -19.269,-18.825 h 36.777 c 0.297,11.231 -6.422,18.825 -17.508,18.825" /><path
         id="path38"
         style="fill:#868484;fill-opacity:1;fill-rule:nonzero;stroke:none"
         d="m 728.945,692.617 c -16.058,2.625 -23.644,-9.633 -23.644,-34.004 v -29.05 h -10.942 v 72.535 h 10.797 c 0,-4.817 -0.586,-11.965 -1.605,-18.239 l 0.144,-0.144 c 2.922,10.656 10.508,21.453 25.692,19.699 l -0.442,-10.797" /><path
         id="path40"
         style="fill:#868484;fill-opacity:1;fill-rule:nonzero;stroke:none"
         d="m 754.047,628.25 c -5.399,0 -10.949,0.586 -15.324,1.457 l 0.289,10.074 c 4.672,-1.312 10.508,-2.332 16.199,-2.332 10.512,0 17.809,4.664 17.809,12.258 0,17.512 -35.317,6.566 -35.317,32.402 0,12.114 9.922,21.305 28.313,21.305 4.523,0 9.632,-0.73 14.156,-1.605 l -0.289,-9.489 c -4.817,1.61 -10.078,2.485 -15.035,2.485 -10.653,0 -15.91,-4.379 -15.91,-11.532 0,-17.363 35.464,-7.441 35.464,-32.105 0,-12.844 -11.382,-22.918 -30.355,-22.918" /><path
         id="path42"
         style="fill:#868484;fill-opacity:1;fill-rule:nonzero;stroke:none"
         d="m 814.324,722.68 c 0,4.09 -3.504,7.445 -7.59,7.445 -4.234,0 -7.589,-3.355 -7.589,-7.445 0,-4.235 3.355,-7.438 7.589,-7.438 4.086,0 7.59,3.203 7.59,7.438 z m -2.191,-93.117 v 72.535 h -10.945 v -72.535 h 10.945" /><path
         id="path44"
         style="fill:#868484;fill-opacity:1;fill-rule:nonzero;stroke:none"
         d="m 857.379,628.398 c -14.594,0 -18.824,6.418 -18.824,21.454 v 43.64 h -15.766 v 8.606 h 15.766 v 24.086 l 10.941,3.066 v -27.152 h 21.309 v -8.606 h -21.309 v -39.113 c 0,-12.988 2.336,-16.356 10.949,-16.356 3.645,0 7.442,0.446 10.36,1.321 v -9.492 c -3.793,-0.872 -8.903,-1.454 -13.426,-1.454" /><path
         id="path46"
         style="fill:#868484;fill-opacity:1;fill-rule:nonzero;stroke:none"
         d="m 910.5,621.977 c -8.461,-22.332 -14.883,-29.774 -30.793,-29.774 -2.629,0 -6.273,0.285 -9.195,0.727 l 1.164,10.066 c 2.922,-1.016 5.844,-1.449 9.054,-1.449 8.754,0 13.137,4.082 18.833,19.402 l 3.351,8.614 -27.73,72.535 h 12.546 l 15.184,-41.59 c 2.34,-6.57 3.941,-11.82 5.547,-17.223 h 0.144 c 1.309,4.672 4.379,13.719 7.297,22.039 l 12.993,36.774 h 11.968 L 910.5,621.977" /><path
         id="path48"
         style="fill:#868484;fill-opacity:1;fill-rule:nonzero;stroke:none"
         d="m 1006.39,628.25 c -19.413,0 -31.96,11.82 -31.96,37.215 0,20.73 12.84,37.949 34.59,37.949 17.66,0 32.11,-9.777 32.11,-36.34 0,-21.601 -13.29,-38.824 -34.74,-38.824 z m 1.61,66.121 c -11.387,0 -22.187,-8.617 -22.187,-28.027 0,-18.539 8.023,-28.75 22.187,-28.75 11.38,0 21.75,8.758 21.75,28.75 0,17.515 -7.3,28.027 -21.75,28.027" /><path
         id="path50"
         style="fill:#868484;fill-opacity:1;fill-rule:nonzero;stroke:none"
         d="m 1099.94,726.328 c -3.65,1.172 -7.59,1.606 -11.39,1.606 -11.09,0 -16.05,-6.422 -16.05,-20.43 v -5.406 h 21.45 v -8.606 h -21.45 v -63.929 h -10.95 v 63.929 h -15.76 v 8.606 h 15.76 v 5.113 c 0,20.289 10.07,29.625 27.44,29.625 4.08,0 8.02,-0.434 11.97,-1.313 l -1.02,-9.195" /><path
         id="path52"
         style="fill:#868484;fill-opacity:1;fill-rule:nonzero;stroke:none"
         d="m 1231.87,629.563 -8.76,60.718 c -1.75,11.973 -2.48,19.258 -3.06,24.66 h -0.29 c -1.02,-4.082 -2.49,-9.773 -4.82,-16.484 l -23.06,-68.894 h -12.7 l -21.89,64.507 c -2.48,7.157 -5.11,14.895 -6.28,20.871 h -0.14 c -0.44,-7.878 -1.46,-15.757 -2.63,-25.832 l -7.15,-59.546 h -11.53 l 14.01,98.519 h 14.16 l 22.47,-66.555 c 2.48,-7.148 4.53,-13.722 5.55,-19.117 h 0.29 c 1.46,6.711 2.92,11.086 5.41,18.098 l 23.05,67.574 h 14.6 l 14.6,-98.519 h -11.83" /><path
         id="path54"
         style="fill:#868484;fill-opacity:1;fill-rule:nonzero;stroke:none"
         d="m 1300.76,629.563 c 0,5.546 0,11.097 0.73,15.328 h -0.29 c -3.5,-9.192 -12.84,-16.641 -25.25,-16.641 -11.53,0 -19.85,6.129 -19.85,17.66 0,15.18 15.76,25.692 44.08,25.692 v 5.98 c 0,10.949 -3.95,17.078 -16.5,17.078 -7,0 -15.76,-2.195 -22.18,-6.285 l -1.02,9.637 c 6.86,3.066 15.32,5.402 25.1,5.402 19.99,0 25.69,-9.922 25.69,-23.644 v -28.457 c 0,-7.153 0,-15.329 0.29,-21.75 z m -0.58,34.007 c -27.29,0 -33.14,-8.609 -33.14,-15.613 0,-6.566 4.67,-10.809 11.83,-10.809 12.84,0 21.31,12.704 21.31,25.25 v 1.172" /><path
         id="path56"
         style="fill:#868484;fill-opacity:1;fill-rule:nonzero;stroke:none"
         d="m 1378.84,629.563 v 47 c 0,11.382 -3.06,17.953 -13.57,17.953 -12.99,0 -22.18,-12.848 -22.18,-30.071 v -34.882 h -10.95 v 72.535 h 10.8 c 0,-4.66 -0.44,-11.672 -1.17,-16.047 l 0.3,-0.153 c 4.08,10.508 13.27,17.661 25.97,17.661 16.64,0 21.75,-10.508 21.75,-23.352 v -50.644 h -10.95" /><path
         id="path58"
         style="fill:#868484;fill-opacity:1;fill-rule:nonzero;stroke:none"
         d="m 1437.95,628.688 c -16.2,0 -31.38,7.156 -31.38,34.597 0,23.789 11.97,39.844 35.61,39.844 5.99,0 11.98,-0.875 17.08,-2.484 l -1.17,-9.633 c -4.81,1.898 -10.51,3.211 -16.64,3.211 -15.61,0 -23.35,-11.539 -23.35,-29.043 0,-14.891 4.67,-27.157 22.19,-27.157 6.42,0 13.42,1.61 18.24,4.09 l 1.02,-9.484 c -4.82,-1.899 -12.69,-3.941 -21.6,-3.941" /><path
         id="path60"
         style="fill:#868484;fill-opacity:1;fill-rule:nonzero;stroke:none"
         d="m 1521.43,629.563 v 47 c 0,11.382 -3.07,17.953 -13.57,17.953 -12.99,0 -22.18,-12.848 -22.18,-30.071 v -34.882 h -10.95 v 106.542 h 10.95 v -35.46 c 0,-4.821 -0.29,-10.801 -1.17,-14.45 l 0.29,-0.144 c 4.23,10.652 13.28,17.508 25.83,17.508 16.64,0 21.75,-10.508 21.75,-23.352 v -50.644 h -10.95" /><path
         id="path62"
         style="fill:#868484;fill-opacity:1;fill-rule:nonzero;stroke:none"
         d="m 1609,668.094 h -48.45 c -0.73,-21.742 7.88,-30.793 24.08,-30.793 7.59,0 15.62,1.898 21.01,4.668 l 1.02,-9.34 c -6.71,-2.777 -14.87,-4.379 -23.93,-4.379 -21.89,0 -33.57,11.82 -33.57,37.215 0,21.754 11.68,37.949 31.82,37.949 19.99,0 28.31,-13.863 28.31,-29.918 0,-1.32 0,-3.215 -0.29,-5.402 z m -28.6,27.004 c -10.22,0 -17.52,-7.442 -19.27,-18.825 h 36.78 c 0.29,11.231 -6.42,18.825 -17.51,18.825" /><path
         id="path64"
         style="fill:#868484;fill-opacity:1;fill-rule:nonzero;stroke:none"
         d="m 1637.75,628.25 c -5.39,0 -10.94,0.586 -15.32,1.457 l 0.29,10.074 c 4.67,-1.312 10.51,-2.332 16.21,-2.332 10.5,0 17.8,4.664 17.8,12.258 0,17.512 -35.32,6.566 -35.32,32.402 0,12.114 9.92,21.305 28.31,21.305 4.53,0 9.64,-0.73 14.16,-1.605 l -0.29,-9.489 c -4.82,1.61 -10.07,2.485 -15.04,2.485 -10.66,0 -15.91,-4.379 -15.91,-11.532 0,-17.363 35.47,-7.441 35.47,-32.105 0,-12.844 -11.38,-22.918 -30.36,-22.918" /><path
         id="path66"
         style="fill:#868484;fill-opacity:1;fill-rule:nonzero;stroke:none"
         d="m 1707.96,628.398 c -14.6,0 -18.84,6.418 -18.84,21.454 v 43.64 h -15.76 v 8.606 h 15.76 v 24.086 l 10.95,3.066 v -27.152 h 21.31 v -8.606 h -21.31 v -39.113 c 0,-12.988 2.34,-16.356 10.95,-16.356 3.65,0 7.44,0.446 10.36,1.321 v -9.492 c -3.79,-0.872 -8.9,-1.454 -13.42,-1.454" /><path
         id="path68"
         style="fill:#868484;fill-opacity:1;fill-rule:nonzero;stroke:none"
         d="m 1790.42,668.094 h -48.46 c -0.73,-21.742 7.88,-30.793 24.08,-30.793 7.59,0 15.62,1.898 21.02,4.668 l 1.02,-9.34 c -6.71,-2.777 -14.88,-4.379 -23.93,-4.379 -21.9,0 -33.58,11.82 -33.58,37.215 0,21.754 11.68,37.949 31.82,37.949 20,0 28.31,-13.863 28.31,-29.918 0,-1.32 0,-3.215 -0.28,-5.402 z m -28.61,27.004 c -10.22,0 -17.52,-7.442 -19.27,-18.825 h 36.78 c 0.3,11.231 -6.41,18.825 -17.51,18.825" /><path
         id="path70"
         style="fill:#868484;fill-opacity:1;fill-rule:nonzero;stroke:none"
         d="m 1842.08,692.617 c -16.05,2.625 -23.65,-9.633 -23.65,-34.004 v -29.05 h -10.94 v 72.535 h 10.8 c 0,-4.817 -0.58,-11.965 -1.61,-18.239 l 0.15,-0.144 c 2.92,10.656 10.51,21.453 25.69,19.699 l -0.44,-10.797" /></g></g></svg>